<svg width="87" height="14" viewBox="0 0 87 14" fill="none" xmlns="http://www.w3.org/2000/svg">
<path d="M5.26453 -0.000619055C3.97853 -0.00861906 2.74353 0.498381 1.84453 1.40638C0.944533 2.31338 0.457533 3.54338 0.494533 4.81238C0.454533 6.05938 0.927533 7.26938 1.80553 8.16638C2.68453 9.06338 3.89453 9.57038 5.15853 9.57238C5.60253 9.57338 6.03953 9.46538 6.43053 9.25738H6.48353L3.30553 13.8594H4.89253L8.33653 8.84138C9.13453 7.63838 9.98153 6.43538 9.98153 4.86438C9.98153 2.14338 8.07553 -0.000619055 5.26453 -0.000619055ZM5.26453 8.31238C3.30553 8.31238 1.92653 6.68938 1.92653 4.81238C1.92653 2.93538 3.25653 1.31238 5.26453 1.31238C7.17153 1.25938 8.60253 2.88338 8.60253 4.76438C8.60253 6.64538 7.27753 8.31238 5.26453 8.31238ZM10.5135 1.51838H13.6915V13.9124H15.0705V1.46538H18.2495V0.262381H10.5135V1.51838ZM26.5165 -0.000619055C24.5895 -0.0196191 22.7335 0.719381 21.3595 2.05538C19.9865 3.39038 19.2105 5.21138 19.2025 7.11338C19.2025 10.9854 22.6465 14.1134 26.5165 14.1134C30.3865 14.1134 33.8315 10.9764 33.8315 7.05238C33.7675 3.11838 30.5025 -0.0296191 26.5165 -0.000619055ZM26.5165 12.8664C23.2885 12.8464 20.6595 10.2984 20.5805 7.11338C20.5665 3.87838 23.2115 1.24338 26.4895 1.22938C29.7685 1.21438 32.4375 3.82538 32.4525 7.06138C32.4155 10.2724 29.7715 12.8594 26.5165 12.8664ZM39.9795 4.60238C39.1605 4.63038 38.3615 4.85238 37.6475 5.24938L38.3345 1.48338H43.4245V0.262381H37.1695L35.8965 6.99938L36.9605 7.36738C37.6135 6.43238 38.6715 5.85238 39.8195 5.79638C41.7835 5.79638 43.1045 7.52438 43.1045 9.35338C43.1045 11.1824 41.7305 12.8534 39.8195 12.8534C37.9095 12.8534 36.6415 11.3354 36.4815 9.55938H35.1035C35.3695 11.4934 36.3225 13.1164 38.2285 13.7944C38.7335 13.9984 39.2735 14.1054 39.8195 14.1094C42.4645 14.0974 44.5995 11.9724 44.5895 9.36238C44.6245 8.12638 44.1565 6.92738 43.2905 6.03338C42.4245 5.13938 41.2325 4.62438 39.9795 4.60238Z" fill="white"/>
<path d="M26.4107 1.98657C26.2357 1.97557 26.0647 2.03957 25.9417 2.16157C25.8177 2.28357 25.7528 2.45257 25.7628 2.62457V6.59757H23.1788C22.8478 6.62457 22.5938 6.89757 22.5938 7.22557C22.5938 7.55257 22.8478 7.82557 23.1788 7.85357H26.4107C26.7637 7.85057 27.0487 7.56757 27.0487 7.21857V2.62457C27.0577 2.45457 26.9937 2.28857 26.8717 2.16657C26.7507 2.04557 26.5827 1.97957 26.4107 1.98657Z" fill="white"/>
<path d="M53.6553 11.8737L48.5663 0.262695H46.4473V13.9127H47.8253V1.7237H47.8743L53.0163 13.8597H54.1823L59.3783 1.7237H59.4313V13.8597H60.8103V0.262695H58.6863L53.6553 11.8737ZM72.5223 5.5957H72.4683C71.5843 4.2817 70.0763 3.5107 68.4793 3.5567C66.5203 3.5017 64.6863 4.5007 63.6903 6.1667C62.6943 7.8317 62.6943 9.89969 63.6903 11.5657C64.6863 13.2307 66.5203 14.2307 68.4793 14.1747C70.0633 14.2177 71.5623 13.4717 72.4683 12.1887H72.5223V13.9647H73.8523V3.8197H72.5223V5.5957ZM68.4923 12.9717C67.3843 13.0017 66.3113 12.5827 65.5253 11.8117C64.7383 11.0397 64.3063 9.9837 64.3293 8.8897C64.2723 7.4017 65.0413 6.0007 66.3353 5.2337C67.6303 4.4677 69.2443 4.4587 70.5483 5.2097C71.8513 5.9607 72.6373 7.3527 72.5973 8.8417C72.6093 9.9277 72.1833 10.9727 71.4133 11.7477C70.6433 12.5217 69.5923 12.9627 68.4923 12.9717ZM81.3173 12.9197C79.7883 12.9687 78.3543 12.1917 77.5753 10.8927C76.7973 9.59469 76.7973 7.9797 77.5753 6.6817C78.3543 5.3827 79.7883 4.6057 81.3173 4.6547C82.8303 4.6477 84.2213 5.4747 84.9213 6.7987H86.3533C85.3213 4.4467 82.7693 3.1207 80.2203 3.6127C77.6713 4.1037 75.8133 6.2797 75.7533 8.8417C75.7593 10.2687 76.3473 11.6337 77.3853 12.6277C78.4233 13.6217 79.8223 14.1607 81.2683 14.1227C83.6533 14.1227 85.2933 12.9717 86.3533 10.9337V10.8807H84.9213C84.2253 12.1957 82.8183 12.9907 81.3173 12.9197Z" fill="white"/>
</svg>
