<svg width="106" height="18" viewBox="0 0 106 18" fill="none" xmlns="http://www.w3.org/2000/svg">
<path d="M100.075 13.513V7.284C100.075 5.912 100.075 5.015 100.022 4.223H102.509L102.615 5.912H102.668C103.144 4.54 104.255 3.959 105.207 3.959C105.472 3.959 105.631 3.959 105.842 4.012V6.757C105.631 6.704 105.366 6.704 105.049 6.704C103.99 6.704 103.25 7.284 103.091 8.182C103.038 8.393 103.038 8.604 103.038 8.815V13.513H100.075ZM98.2225 9.765H92.1905C92.2435 10.979 93.4605 11.56 94.8365 11.56C95.8415 11.56 96.6355 11.402 97.4285 11.138L97.7995 13.091C96.8465 13.513 95.6825 13.672 94.4125 13.672C91.2385 13.672 89.4395 11.824 89.4395 8.921C89.4395 6.545 90.9205 3.959 94.1485 3.959C97.1645 3.959 98.3285 6.282 98.3285 8.604C98.3285 9.132 98.2755 9.554 98.2225 9.765ZM92.1905 7.812H95.6295C95.6295 7.126 95.3125 5.912 93.9895 5.912C92.7725 5.912 92.2965 7.021 92.1905 7.812ZM84.7825 0H87.6935V10.716C87.6935 11.771 87.7455 12.88 87.7455 13.513H85.1535L85.0475 12.141H84.9945C84.4125 13.144 83.3015 13.724 82.0845 13.724C79.8625 13.724 78.1155 11.824 78.1155 8.921C78.1155 5.754 80.0735 3.959 82.2965 3.959C83.4605 3.959 84.3595 4.381 84.7825 5.015H84.8355V0H84.7825ZM84.7825 9.343V8.129C84.7825 7.971 84.7825 7.76 84.7295 7.601C84.5715 6.862 83.9365 6.176 83.0365 6.176C81.7135 6.176 81.0265 7.337 81.0265 8.815C81.0265 10.399 81.8195 11.402 82.9835 11.402C83.8305 11.402 84.5185 10.821 84.6775 10.029C84.7295 9.818 84.7825 9.607 84.7825 9.343ZM74.8885 0.158C75.8405 0.158 76.3695 0.792 76.4225 1.584C76.4225 2.375 75.8405 3.009 74.8355 3.009C73.9355 3.009 73.3535 2.375 73.3535 1.584C73.3005 0.792 73.9355 0.158 74.8885 0.158ZM76.3165 13.513H73.4065V4.223H76.3165V13.513ZM64.5705 13.038L65.0995 10.979C65.6285 11.296 66.7395 11.666 67.5865 11.666C68.4865 11.666 68.8035 11.402 68.8035 10.927C68.8035 10.452 68.5385 10.188 67.4275 9.818C65.4705 9.185 64.7295 8.129 64.7825 7.021C64.7825 5.279 66.2635 3.959 68.5915 3.959C69.7025 3.959 70.6555 4.223 71.1845 4.487L70.7085 6.493C70.2855 6.282 69.4915 5.965 68.6975 5.965C68.0095 5.965 67.5865 6.229 67.5865 6.704C67.5865 7.179 67.9565 7.39 69.0685 7.812C70.8675 8.446 71.5545 9.343 71.6075 10.663C71.6075 12.405 70.2325 13.672 67.5865 13.672C66.3695 13.724 65.3115 13.46 64.5705 13.038ZM53.9355 13.513V7.179C53.9355 6.018 53.8825 5.067 53.8825 4.223H56.4225L56.5805 5.543H56.6335C57.0045 4.909 57.9565 4.065 59.4915 4.065C61.3955 4.065 62.8245 5.331 62.8245 8.076V13.566H59.9145V8.393C59.9145 7.179 59.4915 6.387 58.4325 6.387C57.6395 6.387 57.1625 6.915 56.9515 7.496C56.8985 7.707 56.8455 7.971 56.8455 8.235V13.619H53.9355V13.513ZM50.1785 0.158C51.1305 0.158 51.6605 0.792 51.7125 1.584C51.7125 2.375 51.1305 3.009 50.1255 3.009C49.2265 3.009 48.6445 2.375 48.6445 1.584C48.6445 0.792 49.2795 0.158 50.1785 0.158ZM51.6075 13.513H48.6975V4.223H51.6075V13.513ZM8.32553 8.076V11.349C8.32553 12.246 8.37853 13.091 8.48453 13.619H5.89153L5.73253 12.669H5.67953C5.04453 13.408 4.09253 13.83 3.03453 13.83C1.12953 13.83 0.0185281 12.457 0.0185281 10.927C-0.0344719 8.499 2.13453 7.39 5.41553 7.39V7.284C5.41553 6.757 5.15053 6.07 3.72153 6.07C2.76953 6.07 1.76453 6.387 1.12953 6.757L0.600528 4.856C1.23553 4.487 2.50453 4.012 4.25153 4.012C7.37253 4.012 8.32553 5.859 8.32553 8.076ZM5.52053 10.188V9.185C3.98653 9.185 2.82253 9.554 2.82253 10.663C2.82253 11.402 3.29853 11.771 3.98653 11.771C4.67453 11.771 5.30953 11.296 5.46853 10.716C5.52053 10.557 5.52053 10.399 5.52053 10.188ZM10.6535 17.419V7.39C10.6535 6.176 10.6005 5.12 10.6005 4.223H13.1405L13.2995 5.543H13.3515C14.0395 4.54 15.0985 4.012 16.4735 4.012C18.5375 4.012 20.3365 5.806 20.3365 8.762C20.3365 12.194 18.1665 13.777 16.1035 13.777C14.9925 13.777 14.0925 13.302 13.6695 12.721H13.6165V17.419H10.6535ZM13.5635 8.287V9.554C13.5635 9.765 13.5635 9.977 13.6165 10.188C13.8285 10.979 14.4635 11.56 15.3095 11.56C16.5795 11.56 17.3205 10.504 17.3205 8.921C17.3205 7.443 16.6325 6.282 15.3625 6.282C14.5155 6.282 13.8285 6.915 13.6165 7.76C13.5635 7.918 13.5635 8.129 13.5635 8.287ZM22.0825 17.419V7.39C22.0825 6.176 22.0295 5.12 22.0295 4.223H24.5695L24.7275 5.543H24.7805C25.3625 4.54 26.4215 4.012 27.7965 4.012C29.8605 4.012 31.6595 5.806 31.6595 8.762C31.6595 12.194 29.4905 13.777 27.4265 13.777C26.3155 13.777 25.4155 13.302 24.9925 12.721H24.9395V17.419H22.0825ZM24.9395 8.287V9.554C24.9395 9.765 24.9395 9.977 24.9925 10.188C25.2045 10.979 25.8395 11.56 26.6855 11.56C27.9555 11.56 28.6965 10.504 28.6965 8.921C28.6965 7.443 28.0085 6.282 26.7385 6.282C25.8925 6.282 25.2045 6.915 24.9925 7.76C24.9925 7.918 24.9395 8.129 24.9395 8.287ZM33.4585 13.619H36.3685V0H33.4585V13.619ZM46.9505 9.871H40.9715C41.0245 11.085 42.2415 11.666 43.6175 11.666C44.6225 11.666 45.4165 11.507 46.2105 11.243L46.5275 13.196C45.5755 13.619 44.4115 13.777 43.1415 13.777C39.9665 13.777 38.1675 11.93 38.1675 9.026C38.1675 6.651 39.6495 4.012 42.8765 4.012C45.8925 4.012 47.0565 6.387 47.0565 8.71C47.0565 9.185 47.0035 9.66 46.9505 9.871ZM40.9185 7.865H44.3585C44.3585 7.179 44.0405 5.965 42.7175 5.965C41.5005 5.965 41.0245 7.073 40.9185 7.865Z" fill="white"/>
</svg>
