<svg width="105" height="18" viewBox="0 0 105 18" fill="none" xmlns="http://www.w3.org/2000/svg">
<path d="M0.408468 8.35904C0.792907 6.43684 2.47483 5.09131 4.87758 5.09131C7.66476 5.09131 9.8032 6.24463 9.8032 10.0169V16.9849H7.44851L7.16018 15.4952C6.34325 16.5043 5.23799 17.1771 3.55606 17.1771C1.56179 17.1771 0 15.9277 0 13.6211C0 11.3144 2.06636 9.80069 4.99771 9.80069H6.94394V9.27209C6.94394 7.95057 5.95881 7.54211 4.87758 7.54211C4.06064 7.54211 3.21968 7.80641 2.85927 8.88764L0.408468 8.35904ZM4.20481 14.7263C5.52632 14.7263 6.89588 13.8373 6.89588 12.3236V12.1073H4.97369C3.72426 12.0593 2.97941 12.5638 2.97941 13.573C3.00343 14.1256 3.4119 14.7263 4.20481 14.7263Z" fill="white"/>
<path d="M56.6087 8.35904C56.9931 6.43684 58.675 5.09131 61.0778 5.09131C63.865 5.09131 66.0034 6.24463 66.0034 10.0169V16.9849H63.6487L63.3604 15.4952C62.5434 16.5043 61.4382 17.1771 59.7563 17.1771C57.762 17.1771 56.2002 15.9277 56.2002 13.6211C56.2002 11.3144 58.2666 9.80069 61.1979 9.80069H63.1441V9.27209C63.1441 7.95057 62.159 7.54211 61.0778 7.54211C60.2608 7.54211 59.4199 7.80641 59.0595 8.88764L56.6087 8.35904ZM60.405 14.7263C61.7265 14.7263 63.0961 13.8373 63.0961 12.3236V12.1073H61.1739C59.9244 12.1073 59.1796 12.5638 59.1796 13.597C59.2036 14.1256 59.6121 14.7263 60.405 14.7263Z" fill="white"/>
<path d="M68.6221 17.0089V5.2595H71.5054V7.1817C72.3223 5.7881 73.6438 5.09131 74.9653 5.09131C75.4939 5.09131 75.9024 5.16339 76.3829 5.30755L75.8543 7.9746C75.518 7.75836 75.1335 7.63822 74.653 7.63822C72.971 7.63822 71.5054 9.03181 71.5054 12.8041V16.9609L68.6221 17.0089Z" fill="white"/>
<path d="M82.5343 5.09138C83.7357 5.09138 84.865 5.69207 85.3936 6.34081V0.574219H88.2769V17.033H85.3936V15.8317C85.0572 16.4323 84 17.2252 82.5343 17.2252C79.0023 17.2252 77.2002 14.7985 77.2002 11.1944C77.2002 7.56621 79.0023 5.09138 82.5343 5.09138ZM82.9428 14.7264C84.4325 14.7264 85.6338 13.477 85.6338 11.1703C85.6338 8.83966 84.4325 7.61426 82.9428 7.61426C81.4531 7.61426 80.2517 8.86369 80.2517 11.1703C80.2277 13.501 81.429 14.7264 82.9428 14.7264Z" fill="white"/>
<path d="M98.7047 6.96559L96.9747 8.55141C96.4461 7.83058 95.6532 7.54226 95.0285 7.54226C94.4759 7.54226 93.9473 7.87864 93.9473 8.52738C93.9473 9.05598 94.3557 9.4164 95.0766 9.65667C96.6864 10.2574 99.3054 10.7379 99.3054 13.2608C99.3054 15.3992 97.6955 17.1532 95.1486 17.1532C92.7219 17.1532 91.064 15.4233 90.4873 14.0056L92.7699 12.7562C93.1784 13.8855 93.9713 14.7024 95.1246 14.7024C96.0136 14.7024 96.5903 14.294 96.5903 13.429C96.5903 12.4439 95.1006 12.2276 93.6589 11.6269C92.3855 11.0983 91.3042 10.2814 91.3042 8.47932C91.3042 6.67727 92.7699 5.06743 95.0525 5.06743C96.5903 5.0434 97.9839 5.8363 98.7047 6.96559Z" fill="white"/>
<path d="M38.6121 5.2832L36.5457 13.3324L34.5514 5.2832H31.8604L29.8901 13.3324L28.2562 8.64705L28.064 9.22371L27.127 12.2271L28.6167 17.0086H31.1876L33.2059 9.43995L35.2242 17.0086H37.7711L41.5194 5.2832H38.6121Z" fill="white"/>
<path d="M52.548 5.2832L50.4576 13.3324L48.4633 5.2832H45.7722L43.826 13.3324L42.1681 8.64705L41.9759 9.22371L41.0388 12.2271L42.5525 17.0086H45.0995L47.1178 9.43995L49.1361 17.0086H51.683L55.4553 5.2832H52.548Z" fill="white"/>
<path d="M27.6075 5.2832L23.8592 16.9846H21.3123L19.294 9.41593L17.2757 17.0326H14.7288L10.9805 5.33126H13.9118L16.0022 13.3564L17.9965 5.33126H20.6635L22.6578 13.3564L24.7482 5.33126L27.6075 5.2832Z" fill="white"/>
<path d="M103.054 13.2363C104.183 13.2363 105 14.0533 105 15.1826C105 16.3118 104.183 17.1288 103.054 17.1288C101.925 17.1288 101.108 16.3118 101.108 15.1826C101.108 14.0533 101.949 13.2363 103.054 13.2363Z" fill="white"/>
</svg>
