<svg xmlns="http://www.w3.org/2000/svg" width="73" height="34" fill="none" viewBox="0 0 73 34"><path fill="#fff" d="M6.243 7.927H4.491v6.4c.428.089 1.19.158 1.843.158 2.38 0 3.435-1.28 3.435-3.347 0-1.908-1.033-3.211-3.526-3.211Zm.09-.63c1.707 0 2.718-1.1 2.718-3.053 0-2.132-1.437-2.896-2.875-2.896-.63 0-1.257.044-1.685.134v5.815h1.843Zm.899 7.771H0v-.382l2.246-.405V1.55L0 1.144v-.38h6.648c3.121 0 4.737 1.415 4.737 3.211 0 1.505-.986 2.873-3.232 3.345v.114c2.85.313 4.176 1.884 4.176 3.525 0 2.2-1.863 4.11-5.097 4.11ZM23.69 14.394v.225l-3.143.787-.09-.046.045-1.774-.09-.046c-1.347 1.26-2.627 1.887-3.84 1.887-2.021 0-2.762-1.526-2.762-3.12V6.421l-1.46-.785v-.202l3.28-.81.088.068v6.648c0 1.729.606 2.537 2.09 2.537.942 0 1.616-.202 2.514-.718V6.422l-1.482-.785v-.202l3.278-.81.09.068v9.118l1.482.583ZM27.058 15.405c-1.122 0-2.044-.158-3.076-.607V11.97l.472-.046c.74 2.067 1.773 2.921 2.986 2.921 1.19 0 1.954-.696 1.954-1.886 0-1.213-1.19-1.685-2.449-2.202-1.368-.583-2.806-1.234-2.806-2.986 0-1.773 1.37-3.144 3.526-3.144.875 0 2.044.202 2.65.426l.067 2.538-.405.113c-.875-1.796-1.729-2.516-2.717-2.516-1.01 0-1.683.585-1.683 1.528 0 1.212 1.213 1.683 2.49 2.222 1.394.585 2.876 1.236 2.876 3.055 0 2.088-1.683 3.413-3.885 3.413ZM34.131 0c.697 0 1.213.516 1.213 1.213 0 .718-.583 1.368-1.347 1.368-.697 0-1.19-.516-1.19-1.234 0-.696.584-1.347 1.324-1.347Zm-2.493 5.637v-.204l3.28-.808.089.068v9.678l1.504.405v.292H31.55v-.292l1.572-.405V6.58l-1.484-.942ZM46.729 14.372l1.482.405v.292h-4.783v-.292l1.414-.405V8.735c0-1.706-.606-2.514-2.11-2.514-.943 0-1.617.179-2.515.695v7.456l1.391.405v.292h-4.782v-.292l1.481-.405V6.58l-1.458-.942v-.204l3.143-.808.09.067-.046 1.797.09.046c1.348-1.26 2.628-1.887 3.841-1.887 2.021 0 2.762 1.526 2.762 3.121v6.602ZM55.351 8.376c-.157-1.93-.785-3.234-2.178-3.234-1.438 0-2.605 1.347-2.739 3.391l4.917-.157Zm-4.94.63c0 2.986 1.011 5.028 3.549 5.028 1.1 0 2.02-.246 3.3-.898l.135.27c-1.393 1.325-2.65 2.021-4.109 2.021-2.875 0-4.919-2.11-4.919-5.232 0-3.166 2.178-5.546 4.963-5.546s4.176 1.863 4.176 4.356h-7.095ZM61.369 15.405c-1.123 0-2.044-.158-3.077-.607V11.97l.472-.046c.741 2.067 1.774 2.921 2.987 2.921 1.19 0 1.954-.696 1.954-1.886 0-1.213-1.19-1.685-2.45-2.202-1.368-.583-2.805-1.234-2.805-2.986 0-1.773 1.37-3.144 3.525-3.144.876 0 2.044.202 2.65.426l.068 2.538-.405.113c-.875-1.796-1.73-2.516-2.717-2.516-1.01 0-1.684.585-1.684 1.528 0 1.212 1.213 1.683 2.493 2.222 1.392.585 2.873 1.236 2.873 3.055 0 2.088-1.683 3.413-3.884 3.413ZM69.115 15.405c-1.122 0-2.043-.158-3.076-.607V11.97l.472-.046c.741 2.067 1.773 2.921 2.987 2.921 1.19 0 1.953-.696 1.953-1.886 0-1.213-1.19-1.685-2.447-2.202-1.37-.583-2.808-1.234-2.808-2.986 0-1.773 1.37-3.144 3.526-3.144.875 0 2.044.202 2.65.426l.068 2.538-.405.113c-.876-1.796-1.73-2.516-2.718-2.516-1.01 0-1.683.585-1.683 1.528 0 1.212 1.213 1.683 2.493 2.222C71.518 9.522 73 10.173 73 11.992c0 2.088-1.683 3.413-3.885 3.413ZM6.041 19.196c-.562 0-1.1.045-1.549.135v6.625c.403.067.831.111 1.505.111 2.065 0 3.144-1.122 3.144-3.456 0-2.134-1.102-3.415-3.1-3.415Zm.808 7.5c-.74 0-1.639-.09-2.357-.2v5.636l2.223.403v.382H.022v-.382l2.225-.403V19.398l-2.225-.403v-.382h6.491c3.436 0 5.142 1.73 5.142 3.929 0 2-1.549 4.155-4.806 4.155ZM23.377 32.243v.225l-3.144.787-.09-.046.046-1.774-.09-.046c-1.348 1.26-2.628 1.887-3.84 1.887-2.022 0-2.763-1.526-2.763-3.12V24.27l-1.46-.785v-.202l3.278-.81.09.068v6.648c0 1.73.607 2.537 2.088 2.537.944 0 1.618-.201 2.516-.72v-6.736l-1.481-.785v-.202l3.278-.81.09.068v9.118l1.482.583ZM33.369 32.22l1.481.406v.291h-4.782v-.291l1.414-.405v-5.637c0-1.706-.606-2.514-2.11-2.514-.943 0-1.617.178-2.515.695v7.456l1.391.405v.291h-4.782v-.291l1.481-.405v-7.792l-1.458-.944v-.202l3.143-.808.09.067-.046 1.796.09.047c1.348-1.26 2.628-1.887 3.841-1.887 2.021 0 2.762 1.526 2.762 3.12v6.603Z"/><path fill="#fff" d="m44.417 32.154 1.257.472v.291h-4.4v-.291l.897-.472-2.942-4.133h-.898v4.2l1.257.405v.291h-4.737v-.291l1.572-.405V18.343l-1.64-.965v-.225l3.458-.875.09.044v11.026h1.011l2.94-3.482-1.19-.785v-.224h4.133v.292l-1.505.583-3.234 3.28 3.93 5.142Z"/></svg>