<svg width="98" height="20" viewBox="0 0 98 20" fill="none" xmlns="http://www.w3.org/2000/svg">
<path d="M26.022 4.4804C24.727 4.4714 23.926 4.6054 23.622 4.8834C23.298 5.1244 23.136 5.7494 23.136 6.7574V13.2564C23.136 14.3104 23.304 14.9624 23.637 15.2064C23.973 15.4524 24.776 15.5794 26.052 15.5884C27.317 15.5984 28.117 15.4704 28.451 15.2064C28.785 14.9424 28.952 14.2974 28.952 13.2684V10.8394H26.414V13.4214C26.414 13.6724 26.294 13.7884 26.052 13.7704C25.926 13.7784 25.831 13.7394 25.768 13.6514C25.707 13.5644 25.674 13.4274 25.674 13.2414V6.8554C25.674 6.4844 25.785 6.2994 26.005 6.2994C26.279 6.2994 26.415 6.4794 26.415 6.8404V8.2704H28.953V6.7714C28.963 5.7804 28.802 5.1464 28.467 4.8684C28.113 4.6194 27.298 4.4894 26.022 4.4804ZM35.163 5.0144C34.728 4.7454 34.131 4.4804 32.82 4.4804H29.89V15.5894H32.473V11.1734H32.627C32.863 11.1734 33.022 11.2184 33.105 11.3054C33.186 11.3944 33.228 11.5434 33.228 11.7564V15.5894H35.811V11.9794C35.811 11.4704 35.742 11.0904 35.599 10.8394C35.418 10.5264 35.091 10.2984 34.618 10.1594C35.132 9.9924 35.469 9.7284 35.631 9.3684C35.752 9.0904 35.812 8.6094 35.812 7.9244V7.0004C35.812 5.9634 35.596 5.3014 35.163 5.0144ZM33.228 8.6744C33.228 8.9784 33.054 9.1324 32.705 9.1324L32.473 9.1044V6.2854H32.705C32.94 6.2854 33.099 6.3234 33.182 6.3964L33.228 6.8974V8.6744ZM36.884 15.5884L41.181 15.5614V13.7424H39.453V10.3684H41.181V8.5774H39.453V6.2994H41.181V4.4804L36.884 4.5074V15.5884ZM43.532 4.4804L41.99 15.5894H44.393L44.573 13.3954H45.616L45.813 15.5894H48.245L46.643 4.4804H43.532ZM44.724 11.5774L45.081 7.3134L45.479 11.5894L44.724 11.5774ZM53.381 4.4804H48.139L48.153 6.2994H49.498V15.5884H52.076L52.052 6.2994H53.397L53.381 4.4804ZM54.408 15.5884H57.019L57.022 4.4804H54.408V15.5884ZM61.206 11.8674L60.617 4.4804L58.169 4.4944L59.8 15.5884H62.672L64.242 4.4804H61.78L61.206 11.8674ZM65.255 15.5884L69.4 15.5614V13.7424H67.823V10.3684H69.4V8.5774H67.823V6.2994H69.4V4.5024L65.255 4.5074V15.5884ZM77.507 4.8274C77.165 4.5964 76.389 4.4804 75.18 4.4804H72.265V15.5894H75.21C76.419 15.5894 77.19 15.4724 77.522 15.2414C77.935 14.9644 78.142 14.3034 78.142 13.2564V11.4654C78.142 10.9374 78.075 10.5574 77.945 10.3264C77.793 10.0204 77.475 9.7884 76.993 9.6314C77.768 9.4664 78.157 8.9054 78.157 7.9514V6.7864C78.156 5.7574 77.939 5.1054 77.507 4.8274ZM75.574 13.4504C75.574 13.7104 75.391 13.8254 75.029 13.7984L74.819 13.7844V10.5764H75.018C75.276 10.5854 75.432 10.6254 75.489 10.6944C75.546 10.7644 75.574 10.9094 75.574 11.1314V13.4504ZM75.574 8.2434C75.574 8.5024 75.395 8.6234 75.04 8.6044L74.818 8.5904V6.2854H75.014L75.467 6.3964C75.537 6.4714 75.574 6.6144 75.574 6.8274V8.2434ZM81.768 4.4804H79.198V15.5754L83.694 15.5884V13.7704H81.768V4.4804ZM89.364 4.7994C89.033 4.5864 88.262 4.4794 87.054 4.4794C85.755 4.4794 84.954 4.6184 84.652 4.8964C84.34 5.1284 84.183 5.7524 84.183 6.7714V13.2554C84.183 14.2824 84.355 14.9264 84.696 15.1854C85.039 15.4444 85.835 15.5804 87.083 15.5894C88.353 15.5984 89.156 15.4694 89.494 15.1994C89.832 14.9324 90.001 14.2884 90.001 13.2694V6.7714C90 5.7344 89.789 5.0774 89.364 4.7994ZM87.461 13.4354C87.461 13.6684 87.34 13.7744 87.092 13.7564C86.836 13.7464 86.706 13.5604 86.706 13.2014V6.6184C86.706 6.4054 86.827 6.3044 87.07 6.3144C87.331 6.3144 87.463 6.4894 87.463 6.8404L87.461 13.4354ZM96.884 14.0984C96.907 13.8694 96.918 13.6094 96.918 13.3114V6.7434C96.918 5.7164 96.668 5.1704 96.256 4.8924C95.923 4.6794 95.197 4.4664 93.987 4.4664C92.709 4.4664 92.052 4.7064 91.708 4.9694C91.367 5.2334 91.042 5.7524 91.042 6.7434V13.3104C91.042 14.1354 91.277 14.4964 91.528 14.8254C91.78 15.1544 92.224 15.4714 93.082 15.5174H94.955L96.144 15.3834L96.856 16.0834L97.88 15.0774L96.884 14.0984ZM94.396 13.4354C94.396 13.6584 94.26 13.7834 93.987 13.8124C93.757 13.7934 93.641 13.6034 93.641 13.2414V6.6054C93.641 6.3824 93.761 6.2724 94.003 6.2724C94.274 6.2724 94.406 6.4484 94.396 6.7994V13.4354ZM12.516 5.6224H11.895V8.6394L12.527 8.6514C12.859 8.6784 13.026 8.5704 13.026 8.3264V6.1454C13.026 5.9364 13 5.7994 12.948 5.7344C12.895 5.6694 12.752 5.6314 12.516 5.6224ZM12.516 9.8864H11.895V12.9024L12.527 12.9154C12.859 12.9414 13.026 12.8324 13.026 12.5894V10.4084C13.026 10.2004 13 10.0624 12.948 9.9974C12.895 9.9324 12.752 9.8944 12.516 9.8864ZM18.895 16.3484V2.3844C18.895 1.1274 17.856 0.108398 16.572 0.108398H2.322C1.04 0.108398 0 1.1274 0 2.3844V16.3484C0 17.6064 1.04 18.6264 2.322 18.6264H16.572C16.745 18.6264 16.91 18.6054 17.073 18.5704L18.514 19.9834L20.211 18.3194L18.806 16.9414C18.857 16.7514 18.895 16.5554 18.895 16.3484ZM8.723 7.7084H7.009V6.3644C7.009 6.0234 6.535 5.8544 6.285 5.8544C6.083 5.8544 5.633 6.0284 5.633 6.3774V12.3824C5.633 12.5574 5.662 12.6854 5.719 12.7684C5.777 12.8514 6.255 12.8884 6.371 12.8794C6.592 12.8964 7.009 12.7884 7.009 12.5514V10.1244H8.723V12.4104C8.723 13.3764 8.571 13.9834 8.263 14.2314C7.957 14.4794 7.554 14.5984 6.394 14.5904C5.224 14.5824 4.575 14.3764 4.268 14.1454C3.961 13.9144 3.723 13.3894 3.723 12.3964V6.2854C3.723 5.3364 4.068 4.7274 4.365 4.5014C4.643 4.2404 5.178 4.1354 6.366 4.1434C7.535 4.1524 7.954 4.2744 8.279 4.5094C8.584 4.7714 8.734 5.3674 8.724 6.2994L8.723 7.7084ZM15.174 7.4074C15.174 8.3044 14.819 8.8314 14.108 8.9874C14.55 9.1364 14.842 9.3524 14.979 9.6404C15.099 9.8574 15.16 10.2144 15.16 10.7104V12.3964C15.16 13.3804 14.97 14.0034 14.592 14.2644C14.286 14.4814 13.58 14.5894 12.474 14.5894H9.775V4.1424H12.446C13.554 4.1424 14.265 4.2524 14.578 4.4694C14.974 4.7304 15.173 5.3444 15.173 6.3104L15.174 7.4074Z" fill="white"/>
</svg>
