<svg width="98" height="14" viewBox="0 0 98 14" fill="none" xmlns="http://www.w3.org/2000/svg">
<path d="M0.655544 6.88726C0.655544 10.8303 3.51154 13.9203 7.53554 13.9203C9.54054 13.9353 11.4655 13.1273 12.8655 11.6833L11.7995 10.2933C10.6665 11.4493 9.12254 12.1013 7.50954 12.1073C4.75854 12.1073 2.58954 9.76226 2.58954 6.83426C2.58954 3.79826 4.72154 1.77026 7.45554 1.77026C8.83054 1.77026 10.7385 2.36026 10.7385 3.47626V4.22126H12.5295V2.89126C12.5295 0.746258 9.24654 0.0162575 7.44554 0.0162575C5.63054 -0.00874248 3.88254 0.708258 2.60354 2.00326C1.32354 3.29926 0.620544 5.06126 0.655544 6.88726ZM14.6615 10.2453C14.6615 12.7983 15.7755 13.9203 17.9975 13.9203C19.5045 13.9193 20.8875 13.0793 21.5905 11.7363H21.6435V12.6383C21.6435 13.3353 22.0695 13.7103 22.8635 13.7103H24.6595V12.1013H23.8815C23.6205 12.1013 23.4605 11.9943 23.4605 11.6773V4.11426H21.5905V8.59326C21.5905 10.5083 20.4285 12.2143 18.3925 12.2143C16.8575 12.2143 16.5965 11.1413 16.5965 9.81626V5.28926C16.6335 4.49026 16.2605 4.11426 15.3595 4.11426H13.4565V5.72326H14.2515C14.5125 5.72326 14.6725 5.83126 14.6725 6.15226L14.6615 10.2453ZM26.6265 12.4823C26.6265 13.3353 26.9945 13.7053 27.8415 13.7053H29.6965V12.0963H28.9025C28.6355 12.0963 28.4755 11.9893 28.4755 11.6723V1.48026C28.4755 0.628258 28.1085 0.252258 27.2605 0.252258H25.4065V1.86126H26.2005C26.4665 1.86126 26.6265 1.96926 26.6265 2.29026V12.4823ZM31.4875 10.1923C31.4875 13.4103 33.9765 13.7593 35.1915 13.7593C35.4045 13.7643 35.6165 13.7463 35.8255 13.7053V12.0533C35.6885 12.0913 35.5465 12.1093 35.4045 12.1073C34.7165 12.1073 33.3365 11.8383 33.3365 9.92326V5.50326H35.6655V4.01226H33.3365V1.33026H31.5405V4.01226H30.2245V5.50326H31.4975L31.4875 10.1923ZM39.8285 8.86126C39.8285 11.7953 42.1575 13.9253 45.0675 13.9253C47.9775 13.9253 50.3115 11.7793 50.3115 8.86126C50.3115 5.94326 47.9825 3.85726 45.0675 3.85726C42.1515 3.85726 39.8385 5.98626 39.8385 8.86126H39.8285ZM41.7365 8.86126C41.6875 7.63126 42.3115 6.47226 43.3635 5.84226C44.4145 5.21226 45.7245 5.21226 46.7765 5.84226C47.8275 6.47226 48.4525 7.63126 48.4035 8.86126C48.4525 10.0923 47.8275 11.2513 46.7765 11.8813C45.7245 12.5113 44.4145 12.5113 43.3635 11.8813C42.3115 11.2513 41.6875 10.0923 41.7365 8.86126ZM52.2085 13.6893H54.0585V5.56226H56.3875V4.07126H54.0585V3.80326C54.0585 2.04426 55.3805 1.78126 56.1205 1.78126C56.2825 1.78126 56.4425 1.79726 56.6005 1.82926V0.220258C56.3735 0.181258 56.1435 0.164258 55.9135 0.166258C54.6925 0.166258 52.2085 0.536258 52.2085 3.73326V4.05526H50.9885V5.56226H52.2085V13.6893ZM60.7365 13.6893H62.4255C63.3265 13.6893 63.6465 13.3193 63.6995 12.4663L64.2325 5.38026C64.2855 4.58126 64.2855 3.40626 64.2855 3.40626H64.3395C64.3395 3.40626 64.7605 4.68826 65.0805 5.38026L67.8305 11.2383H69.4715L72.2215 5.39626C72.5365 4.65126 72.9095 3.42226 72.9095 3.42226H72.9625C72.9625 3.42226 72.9625 4.59726 73.0155 5.39626L73.5965 12.4823C73.6505 13.3353 73.9645 13.7053 74.8125 13.7053H76.4855V12.0533H75.8515C75.7345 12.0673 75.6175 12.0263 75.5335 11.9423C75.4495 11.8593 75.4075 11.7423 75.4195 11.6243L74.5245 0.274258H72.5095L69.3115 7.35926C68.9975 8.10526 68.6245 9.06526 68.6245 9.06526H68.5715C68.5715 9.06526 68.2035 8.10526 67.8835 7.35926L64.6855 0.274258H62.6765L61.8395 11.6243C61.8495 11.7393 61.8085 11.8533 61.7275 11.9343C61.6455 12.0163 61.5335 12.0573 61.4185 12.0483H60.7795V13.7003L60.7365 13.6893ZM77.9995 10.9753C77.9995 12.8903 79.6355 13.9033 81.3305 13.9033C82.6555 13.9353 83.8765 13.1843 84.4535 11.9833H84.5065C84.4715 12.1763 84.4545 12.3723 84.4535 12.5683C84.4535 13.2653 84.8265 13.6893 85.6735 13.6893H87.4165V12.0803H86.6115C86.3505 12.0803 86.1905 11.9723 86.1905 11.6563V7.57926C86.1905 5.43426 85.3435 3.82526 82.1675 3.82526C81.2135 3.82526 78.7825 4.03926 78.7825 5.63826V6.59226H80.5255V6.05626C80.5255 5.41826 81.6395 5.31026 82.1245 5.31026C83.6595 5.31026 84.2935 5.89526 84.2935 7.60126V7.70826H83.8725C82.2255 7.74026 77.9935 7.90126 77.9935 10.9913L77.9995 10.9753ZM79.9015 10.8673C79.9015 9.10826 82.4445 9.00126 83.8725 9.00126H84.3465V9.32326C84.3465 10.7603 83.3445 12.3593 81.7565 12.3593C80.4775 12.4283 79.8965 11.6833 79.8965 10.8843L79.9015 10.8673ZM88.0455 8.89326C88.0455 11.7743 90.1775 13.9033 93.2315 13.9033C94.7255 13.9323 96.1645 13.3333 97.2025 12.2513L96.4075 10.9213C95.6075 11.7353 94.5285 12.2103 93.3915 12.2513C92.4755 12.2943 91.5835 11.9503 90.9295 11.3023C90.2765 10.6553 89.9205 9.76226 89.9485 8.84026C89.9075 7.93326 90.2445 7.05026 90.8775 6.40426C91.5115 5.75826 92.3835 5.40626 93.2845 5.43426C93.9725 5.43426 95.0865 5.75026 95.0865 6.44226V6.97926H96.7805V5.98126C96.7805 4.32926 94.4515 3.83526 93.2845 3.83526C90.1025 3.85126 88.0405 6.08826 88.0405 8.91026L88.0455 8.89326Z" fill="white"/>
</svg>
