<svg width="101" height="18" viewBox="0 0 101 18" fill="none" xmlns="http://www.w3.org/2000/svg">
<path fill-rule="evenodd" clip-rule="evenodd" d="M6.22412 0.705494C4.11333 1.03815 1.93439 2.93613 1.20083 5.08119C0.972942 5.74748 0.939956 6.1283 0.886733 8.71729C0.819263 11.9984 0.917393 12.7862 1.55126 14.0511C2.0446 15.0355 3.40423 16.3992 4.37705 16.8856C5.69497 17.5444 6.04533 17.5881 10.1602 17.6073C13.6174 17.6235 13.9539 17.6076 14.6018 17.397C15.5477 17.0897 16.048 16.7653 16.7893 15.979C17.9943 14.7008 18.194 13.8891 18.212 10.1951L18.2248 7.55072L14.8107 7.53476L11.3966 7.5188L11.3885 9.16334L11.3805 10.8079L13.13 10.8161L14.8795 10.8242L14.8286 11.9327C14.7711 13.1875 14.5747 13.6499 13.9164 14.0802C13.5352 14.3293 13.4659 14.3336 10.1022 14.3167C6.75679 14.3001 6.66261 14.2934 6.09886 14.0323C5.7813 13.8853 5.3222 13.5463 5.0786 13.2789C4.27379 12.3958 4.25584 12.3032 4.27105 9.13008C4.28653 5.92437 4.30122 5.85627 5.17955 4.92716C6.14559 3.90513 6.01112 3.92571 11.7902 3.91404L16.8537 3.90379L16.8617 2.26481L16.8697 0.625835L11.8642 0.615712C9.11105 0.610104 6.57311 0.650529 6.22412 0.705494ZM29.079 0.7962C26.4459 0.844346 26.1265 0.871776 25.5307 1.10014C23.9781 1.69559 22.5426 2.94726 21.85 4.30959C21.1977 5.59248 21.0991 6.3255 21.1374 9.60587C21.1675 12.1823 21.1979 12.5798 21.4167 13.2447C22.0431 15.1499 23.7463 16.8359 25.691 17.476C26.3781 17.7022 26.751 17.7316 29.604 17.7856L32.7575 17.8453L32.7677 17.4106C32.7819 16.8119 32.7914 14.9758 32.7815 14.7471C32.7743 14.5795 32.4674 14.554 29.8514 14.5028C26.9549 14.4463 26.9242 14.4431 26.3417 14.1422C25.6532 13.7864 25.088 13.1878 24.7568 12.464C24.5391 11.9882 24.5208 11.7284 24.5288 9.22475C24.5391 6.01425 24.5942 5.78472 25.5668 4.89179C26.4822 4.05143 26.6548 4.01742 29.9313 4.03273L32.7668 4.04599L33.3877 4.38676C33.7292 4.57425 34.1834 4.95417 34.3971 5.23112C35.1159 6.16281 35.1285 6.28956 35.0992 12.3004L35.0728 17.7237L36.7509 17.7316L38.4291 17.7394L38.4543 12.1537C38.4741 7.74493 38.4453 6.40623 38.3174 5.80077C37.7632 3.17605 35.2647 0.982762 32.609 0.789561C32.259 0.764107 30.6705 0.767117 29.079 0.7962ZM68.6017 1.04533C66.3465 1.51285 64.3708 3.33908 63.6737 5.60045C63.5193 6.10138 63.4814 6.79669 63.4689 9.34674C63.4521 12.8175 63.5143 13.275 64.1708 14.5047C64.6504 15.403 65.9571 16.6996 66.8451 17.1584C68.1951 17.8555 68.4292 17.8796 74.1206 17.9062L79.283 17.9304L79.291 16.2892L79.299 14.6481L74.1779 14.5924L69.0569 14.5367L68.4797 14.2383C67.8297 13.9023 67.139 13.0917 66.9411 12.4329C66.8609 12.166 66.8178 10.9843 66.8267 9.29586C66.8404 6.69693 66.852 6.56406 67.1138 6.02121C67.2638 5.71001 67.6097 5.2601 67.8826 5.02139C68.8028 4.2161 68.8132 4.21445 72.7039 4.23263L76.1849 4.2489L76.6206 4.57781C77.22 5.0302 77.3762 5.46998 77.3702 6.68784L77.3652 7.71086L73.2276 7.72124L69.09 7.73173L69.0498 9.40447L69.0097 11.0772L74.8573 11.1045L80.7049 11.1319L80.7161 8.26809C80.7222 6.69307 80.6756 5.18008 80.6124 4.9061C80.1836 3.0421 78.4586 1.37517 76.5902 1.01881C75.6334 0.836387 69.5116 0.856661 68.6017 1.04533ZM88.5658 1.12775C86.1935 1.62432 84.1888 3.52527 83.5682 5.86674C83.3138 6.82666 83.2901 12.0193 83.5354 13.0615C84.0467 15.2331 85.9051 17.1665 88.0527 17.7609C88.7182 17.9451 89.2628 17.977 91.9579 17.9896C94.3969 18.001 95.2407 17.9665 95.771 17.8338C97.8831 17.3051 99.6955 15.5837 100.402 13.4356C100.644 12.6978 100.663 12.4307 100.676 9.58063C100.688 6.94006 100.661 6.42536 100.482 5.8428C100.11 4.63576 99.622 3.8383 98.6972 2.92662C97.6968 1.94054 96.7792 1.43323 95.5098 1.16474C94.4463 0.939735 89.5875 0.913851 88.5658 1.12775ZM42.2891 9.36446L42.2477 17.8707L43.9259 17.8785L45.604 17.8864L45.6454 9.38015L45.6868 0.873931L44.0087 0.866088L42.3305 0.858246L42.2891 9.36446ZM49.498 2.53632L49.49 4.18085L51.1681 4.18869L52.8463 4.19654L52.8543 2.552L52.8623 0.907466L51.1841 0.899623L49.506 0.89178L49.498 2.53632ZM56.6401 9.43153L56.5987 17.9378L58.2768 17.9456L59.955 17.9534L59.9964 9.44722L60.0378 0.941001L58.3596 0.933158L56.6815 0.925315L56.6401 9.43153ZM95.0966 4.46103C95.884 4.69109 96.9207 5.67723 97.1366 6.40151C97.3543 7.13182 97.303 12.0397 97.0708 12.6973C96.8362 13.3615 96.313 13.9655 95.6396 14.3491L95.0969 14.6584L92.03 14.6441C89.2291 14.631 88.9239 14.6105 88.5124 14.4079C87.9377 14.1252 87.3635 13.5571 87.0335 12.9447C86.7886 12.4905 86.7734 12.3155 86.7516 9.7087C86.7244 6.44949 86.7858 6.15545 87.6805 5.26396C88.6014 4.34606 88.9013 4.27816 92.0305 4.27782C93.9468 4.2777 94.6033 4.31695 95.0966 4.46103ZM49.4525 11.8932L49.4232 17.9042L51.1014 17.9121L52.7795 17.9199L52.8087 11.9088L52.838 5.89778L51.1599 5.88994L49.4817 5.8821L49.4525 11.8932Z" fill="white"/>
</svg>
