<svg width="134" height="23" viewBox="0 0 134 23" fill="none" xmlns="http://www.w3.org/2000/svg">
<g clip-path="url(#clip0_1097_2021)">
<path d="M10.3972 13.0854L4.16796 19.3147L3.57227 18.719L9.80034 12.4897L10.3972 13.0854Z" fill="white"/>
<path d="M11.0445 5.04757L9.708 6.38403L9.1123 5.78833L10.4488 4.45068L11.0445 5.04757Z" fill="white"/>
<path d="M18.4624 1.32958L4.03125 15.7607L3.43555 15.165L17.8667 0.733887L18.4624 1.32958Z" fill="white"/>
<path d="M11.0166 1.35058L7.84667 4.5205L7.25098 3.92481L10.4209 0.754883L11.0166 1.35058Z" fill="white"/>
<path d="M22.1799 8.75216L17.129 13.8031L16.5321 13.2074L21.5842 8.15527L22.1799 8.75216Z" fill="white"/>
<path d="M22.1804 12.478L20.7334 13.9239L20.1377 13.3282L21.5847 11.8823L22.1804 12.478Z" fill="white"/>
<path d="M14.7604 1.33154L11.6072 4.48482L11.0115 3.88912L14.1648 0.73584L14.7604 1.33154Z" fill="white"/>
<path d="M0.595698 22.8864L3.57776 19.9043L2.98206 19.3086L0 22.2907L0.595698 22.8864Z" fill="white"/>
<path d="M22.1871 1.29492L10.9473 12.5347L10.3516 11.939L21.5914 0.699219L22.1871 1.29492Z" fill="white"/>
<path d="M22.1704 5.0371L18.387 8.82056L17.7913 8.22486L21.5735 4.44141L22.1704 5.0371Z" fill="white"/>
<path d="M10.9572 16.2507L17.8464 9.36035L17.2507 8.76465L10.3604 15.655L10.9572 16.2507Z" fill="white"/>
<path d="M18.9911 15.6666L20.2039 14.4526L19.6082 13.8569L18.3954 15.0697L18.9911 15.6666Z" fill="white"/>
<path d="M37.581 6.97247C36.5834 6.06406 35.4218 5.66455 33.8594 5.66455C30.9558 5.66455 28.7383 7.88326 28.7383 10.7773C28.7383 13.8284 30.8524 15.9127 33.9331 15.9127C35.4075 15.9127 36.524 15.5857 37.6547 14.8105V10.53H33.9034L33.7548 11.8998H35.8688V13.9841C35.2743 14.3111 34.9604 14.3705 34.0853 14.3705C33.2975 14.3433 32.5398 14.0613 31.926 13.5668C31.2126 12.9413 30.7204 11.8403 30.7204 10.832C30.7204 9.82374 30.9285 9.07466 31.4053 8.46469C31.7073 8.08997 32.091 7.78923 32.5271 7.58543C32.9631 7.38163 33.44 7.28015 33.9212 7.28875C34.8781 7.28127 35.8008 7.6438 36.4966 8.3006L37.5834 6.97604L37.581 6.97247ZM41.7343 15.6666H43.5499V11.9295H44.9446L47.3559 15.6666H49.4855L46.6116 11.379C46.8866 11.2772 47.1432 11.1315 47.3714 10.9474C47.6912 10.6897 47.9494 10.3638 48.1272 9.99347C48.3049 9.62318 48.3977 9.21786 48.3987 8.80713C48.3987 6.85714 46.9838 5.8001 44.3786 5.8001C43.4951 5.79537 42.612 5.84381 41.7343 5.94516V15.6666ZM43.5499 7.23881C44.0112 7.22454 44.0564 7.22454 44.2633 7.22454H44.5011C45.8257 7.22454 46.5997 7.86423 46.5997 8.951C46.5997 9.79996 45.9446 10.6156 45.2918 10.6156H43.5499V7.23881ZM59.39 5.89998V11.7571C59.39 12.5894 59.2854 13.1268 59.0333 13.499C58.6469 14.0935 57.9917 14.3622 56.9489 14.3622C56.339 14.3622 55.7433 14.1839 55.3711 13.9009C54.8503 13.4835 54.6577 12.9033 54.6577 11.7606V5.89998H52.8397V11.7654C52.8397 12.9544 53.0335 13.7867 53.4651 14.3812C54.15 15.3634 55.4151 15.8842 57.1273 15.8842C58.214 15.8842 59.3305 15.5417 60 15.0067C60.8489 14.3218 61.2056 13.3694 61.2056 11.7606V5.89998H59.39ZM65.3291 6.04979V15.6666H66.9938V9.00807L72.9935 15.8116L74.0506 15.5132V5.89998H72.386V12.4955L66.4302 5.73708L65.3291 6.04979ZM78.1765 15.6071C78.8868 15.6922 79.6013 15.7367 80.3167 15.7403H81.149C81.7872 15.7253 82.4233 15.6605 83.0515 15.5465C83.7815 15.3979 84.3475 15.1898 84.8088 14.8771C86.0442 14.0733 86.8634 12.5252 86.8634 10.9771C86.8634 8.6692 85.7458 6.97247 83.7958 6.2876C82.9341 5.98805 82.0291 5.8322 81.1169 5.82626C80.133 5.81598 79.1492 5.85566 78.1693 5.94516V15.6071H78.1765ZM79.9921 7.32918C80.0762 7.32011 80.1608 7.31535 80.2454 7.31491H80.5878C80.8162 7.30465 81.045 7.30942 81.2727 7.32918C81.9133 7.36365 82.5406 7.52533 83.118 7.80478C84.2048 8.34103 84.9349 9.57642 84.9349 10.8713C84.9349 11.8225 84.6971 12.5834 84.2048 13.1934C83.6246 13.9068 82.627 14.2956 81.3619 14.2956C80.5735 14.2956 80.5581 14.2956 79.9921 14.2065V7.32918ZM92.4768 7.38863H96.2888V5.89998H90.6957V15.6666H96.7597L96.9677 14.1625H92.4816V11.3088H95.9535V9.8606H92.4816V7.38863H92.4768ZM100.562 15.6666H102.378V11.9295H103.777L106.189 15.6666H108.319L105.445 11.379C105.72 11.2772 105.977 11.1315 106.205 10.9474C106.525 10.6897 106.783 10.3638 106.961 9.99347C107.139 9.62318 107.231 9.21786 107.233 8.80713C107.233 6.85714 105.818 5.8001 103.212 5.8001C102.327 5.79636 101.443 5.84599 100.563 5.94873V15.6701L100.562 15.6666ZM102.381 7.23881C102.843 7.22454 102.888 7.22454 103.095 7.22454H103.333C104.657 7.22454 105.431 7.86423 105.431 8.951C105.431 9.79996 104.776 10.6156 104.123 10.6156H102.381V7.23881Z" fill="white"/>
<path d="M54.6553 3.26953V5.11132H56.4971V3.26953H54.6553Z" fill="white"/>
<path d="M57.5402 3.26953V5.11132H59.382V3.26953H57.5402Z" fill="white"/>
<path d="M111.275 13.8276H113.106V15.6599H111.275V13.8276Z" fill="white"/>
<path d="M129.184 15.0245V10.7939H132.943V10.1828H129.184V6.49565H133.44V5.8833H128.515V15.6499H133.878L134 15.0245H129.184Z" fill="white"/>
<path d="M122.91 7.04356C121.906 6.19103 120.549 5.81055 118.51 5.81055C118.226 5.81055 117.685 5.83789 117.271 5.88427L117.119 5.90091C117.019 5.91161 116.898 5.9235 116.762 5.94253L116.688 5.95204V15.5617L116.762 15.5724C117.438 15.6826 118.122 15.7316 118.806 15.7186C120.243 15.7186 121.593 15.4131 122.421 14.9018C123.787 14.0457 124.509 12.6046 124.509 10.7402C124.509 9.3134 123.898 7.89609 122.914 7.04594L122.91 7.04356ZM123.82 10.7378C123.82 12.0565 123.445 13.0802 122.674 13.865C121.862 14.7056 120.636 15.0968 118.817 15.0968C118.328 15.1018 117.839 15.0664 117.356 14.991V6.48591C117.72 6.44414 118.087 6.4227 118.454 6.4217C120.656 6.4217 122.094 6.96865 122.973 8.14221C123.518 8.89809 123.814 9.80564 123.818 10.7378H123.82Z" fill="white"/>
</g>
<defs>
<clipPath id="clip0_1097_2021">
<rect width="134" height="22.1871" fill="white" transform="translate(0 0.699219)"/>
</clipPath>
</defs>
</svg>
