<svg width="59" height="16" viewBox="0 0 59 16" fill="none" xmlns="http://www.w3.org/2000/svg">
<path d="M4.83352 5.01937V12.8554H5.99052V15.2554H0.728516V12.8554H1.99352V7.47237H0.728516V5.01937H4.83352ZM1.78252 2.35137C1.76652 1.90837 1.93352 1.47937 2.24252 1.16537C2.55252 0.851368 2.97652 0.682368 3.41352 0.699368C3.85852 0.671368 4.29452 0.835368 4.61452 1.14937C4.93552 1.46437 5.11052 1.90037 5.09752 2.35137C5.09952 2.79537 4.91952 3.22037 4.59952 3.52337C4.28052 3.82737 3.85052 3.98237 3.41352 3.95237C2.98252 3.98037 2.55852 3.82337 2.24752 3.51837C1.93652 3.21337 1.76752 2.78937 1.78252 2.35137ZM19.9365 15.3084V12.8554H21.4135V5.28637L16.8855 10.6684H16.2555L11.8865 5.17637V12.8554H13.2555V15.3084H7.25552V12.8554H8.88652V3.63337H7.25552V0.804368H12.4135L16.6735 6.56237L20.9385 0.804368H25.9415V3.63337H24.3615V12.8554H25.8845V15.3084H19.9365ZM31.9535 4.75237C35.3725 4.75237 37.3195 6.99137 37.3195 10.1874C37.3195 13.1214 35.3205 15.5224 31.9535 15.5224C28.5875 15.5224 26.5715 13.2264 26.5715 10.1874C26.6235 7.04337 28.6775 4.75237 31.9535 4.75237ZM32.0055 7.37637C30.3225 7.37637 29.4155 8.54837 29.4155 10.2004C29.4155 11.6434 30.2055 12.8684 31.9455 12.8684C33.6845 12.8684 34.4705 11.6434 34.5355 10.2004C34.5355 8.54837 33.5895 7.37637 32.0095 7.37637H32.0055ZM40.0035 7.53737H38.6745V5.01937H42.4125L42.6755 5.97637C43.3895 5.14937 44.4375 4.69837 45.5205 4.75237C46.5245 4.73237 47.5005 5.09237 48.2565 5.76237L46.9625 8.21537C46.4185 7.79437 45.7515 7.56937 45.0675 7.57737C43.9625 7.57737 42.8575 8.21537 42.8575 10.0304V12.8554H44.2775V15.3604H38.4675V12.8554H39.9915L40.0035 7.53737ZM58.3225 13.9874C57.2045 15.0934 55.4135 15.5664 53.9415 15.5664C49.9925 15.5664 48.3565 13.1214 48.3565 10.0824C48.3565 6.88237 50.4625 4.75237 53.7775 4.75237C57.0925 4.75237 59.2555 6.56237 58.6765 11.1934H51.2565C51.4125 12.2074 52.3105 13.0084 53.9935 13.0084C54.9585 12.9854 55.8945 12.6684 56.6785 12.0984L58.3225 13.9874ZM56.0435 9.00737C56.0955 7.73037 55.0465 7.25837 53.7815 7.25837C52.5175 7.25837 51.4645 7.84437 51.1925 9.00737H56.0435Z" fill="white"/>
</svg>
