<svg width="112" height="25" viewBox="0 0 112 25" fill="none" xmlns="http://www.w3.org/2000/svg">
<path fill-rule="evenodd" clip-rule="evenodd" d="M7.16298 0.166152C5.67994 0.253314 4.50288 0.667259 3.56671 1.43091C2.42539 2.36187 2.0986 3.27051 1.98596 5.82672L1.93695 6.93887H0.968511H0V8.93696V10.9351H0.980198H1.9604V17.4948V24.0546H4.44859H6.93678V17.4948V10.9351H8.33975C9.64733 10.9351 9.73887 10.944 9.68571 11.067C9.44247 11.6301 9.1607 12.527 9.02845 13.1594C8.79448 14.2778 8.79788 16.752 9.03486 17.8518C9.81291 21.4624 12.1312 23.835 15.3915 24.3573C15.7605 24.4164 16.4231 24.4364 17.2388 24.4129C18.2937 24.3827 18.6393 24.3425 19.2647 24.1775C22.3597 23.3606 24.618 20.6457 25.103 17.158C25.2169 16.3397 25.2021 14.6447 25.0738 13.8003C24.57 10.4828 22.5744 7.90512 19.8302 7.02708C18.1735 6.49702 15.5857 6.48896 14.0765 7.00906C12.6209 7.51062 11.22 8.62096 10.3255 9.98193L9.99048 10.4916L9.97027 8.71521L9.95006 6.93887H8.43528H6.9205L6.94824 6.09062C6.97177 5.37108 7.00449 5.18574 7.16374 4.86929C7.49263 4.21565 7.57429 4.18677 9.09141 4.18677H10.4053L10.4052 2.25118V0.31567L10.184 0.267112C9.75855 0.173616 8.02247 0.115634 7.16298 0.166152ZM32.5727 0.79378C32.5727 0.864128 32.6439 0.90688 32.7612 0.90688C32.8785 0.90688 32.9497 0.864128 32.9497 0.79378C32.9497 0.723432 32.8785 0.68068 32.7612 0.68068C32.6439 0.68068 32.5727 0.723432 32.5727 0.79378ZM33.3267 0.79378C33.3267 0.864128 33.3979 0.90688 33.5152 0.90688C33.6325 0.90688 33.7037 0.864128 33.7037 0.79378C33.7037 0.723432 33.6325 0.68068 33.5152 0.68068C33.3979 0.68068 33.3267 0.723432 33.3267 0.79378ZM67.2566 4.75483V8.52747L66.731 8.00178C66.1529 7.42369 65.3284 6.9599 64.5045 6.74931C63.8241 6.57544 62.365 6.59361 61.5549 6.78596C59.3182 7.31722 57.7687 9.1842 57.1113 12.1402C56.864 13.2523 56.7761 14.1901 56.7761 15.7161C56.7761 19.0839 57.5411 21.4723 59.1091 22.999C59.6989 23.5734 60.2453 23.9145 61.0109 24.1862C61.4639 24.347 61.7386 24.3886 62.5292 24.4161C63.6671 24.4557 64.2143 24.3667 64.9569 24.0213C65.88 23.592 66.6246 22.9363 67.2252 22.0241L67.4451 21.6901L67.4659 22.8724L67.4867 24.0546H69.8598H72.233V12.5185V0.982279H69.7448H67.2566V4.75483ZM15.08 2.80107V4.31835L15.745 4.28653C16.8249 4.23488 17.2847 3.86489 17.3913 2.96145C17.4724 2.27478 17.1428 1.60817 16.6128 1.38672C16.4701 1.32716 16.0961 1.28388 15.7233 1.28388H15.08V2.80107ZM18.6238 2.79188V4.29987H18.8123H19.0008V2.79188V1.28388H18.8123H18.6238V2.79188ZM20.2826 2.79188V4.29987H21.1119C21.7989 4.29987 21.9413 4.28042 21.9413 4.18677C21.9413 4.09509 21.8199 4.07367 21.3004 4.07367H20.6596V3.47047V2.86728H21.225C21.6775 2.86728 21.7905 2.84466 21.7905 2.75418C21.7905 2.6637 21.6775 2.64108 21.225 2.64108H20.6596V2.07558V1.51008H21.2628C21.7486 1.51008 21.8659 1.48806 21.8659 1.39698C21.8659 1.30363 21.7277 1.28388 21.0743 1.28388H20.2826V2.79188ZM25.823 1.38899C25.4998 1.52976 25.1293 1.98095 25.0278 2.35735C24.8298 3.09151 25.1498 3.93441 25.7341 4.21723C26.0974 4.39314 26.7628 4.4279 27.2382 4.29588L27.5209 4.21738V3.46693V2.71648H26.9554C26.503 2.71648 26.3899 2.7391 26.3899 2.82958C26.3899 2.915 26.4821 2.94268 26.7669 2.94268H27.1439V3.50222V4.06168L26.9108 4.11288C26.5508 4.19197 26.0371 4.0843 25.7925 3.87846C25.3285 3.48797 25.1981 2.51056 25.5472 2.03893C25.9092 1.54989 26.5945 1.36199 27.0842 1.61752C27.2723 1.71569 27.2923 1.71192 27.3373 1.56995C27.3672 1.47585 27.3464 1.39057 27.284 1.35098C27.1257 1.2507 26.0779 1.27792 25.823 1.38899ZM28.9535 2.79188C28.9535 4.24958 28.9586 4.29987 29.1043 4.29987C29.2446 4.29987 29.2551 4.24958 29.2551 3.58357V2.86728H29.4486C29.7833 2.86728 29.9033 2.99342 30.1983 3.65558C30.4438 4.20668 30.5117 4.29987 30.6671 4.29987C30.8198 4.29987 30.8403 4.27348 30.7962 4.13437C30.689 3.79665 30.2963 2.9763 30.1807 2.84858C30.0783 2.73548 30.0772 2.71648 30.1728 2.71648C30.3904 2.71648 30.6123 2.38404 30.6123 2.05801C30.6123 1.88783 30.5912 1.69368 30.5655 1.62657C30.4798 1.40324 30.1166 1.28388 29.5228 1.28388H28.9535V2.79188ZM31.9712 2.39603C31.9731 3.7055 32.0709 4.03688 32.518 4.24905C32.886 4.42368 33.4548 4.41161 33.7648 4.22251C34.1604 3.98131 34.2315 3.70632 34.2315 2.41729V1.28388H34.043H33.8545V2.45137V3.61886L33.636 3.86338C33.3413 4.19333 32.9002 4.20909 32.5916 3.90078C32.3851 3.69449 32.3841 3.68876 32.3602 2.48877L32.3361 1.28388H32.1528H31.9695L31.9712 2.39603ZM35.5887 2.78713V4.29987H35.7753H35.9619L35.9827 3.10117L36.0034 1.90246L36.682 3.09875C37.3385 4.25606 37.3686 4.2952 37.6057 4.29746L37.8507 4.29987V2.79188V1.28388H37.6641H37.4775L37.4567 2.50445L37.436 3.72495L36.746 2.5233C36.1078 1.41198 36.0383 1.31977 35.8223 1.29798L35.5887 1.2743V2.78713ZM39.1325 2.80107V4.31835L39.7975 4.28653C40.8775 4.23488 41.3373 3.86489 41.4439 2.96145C41.5249 2.27478 41.1954 1.60817 40.6653 1.38672C40.5227 1.32716 40.1486 1.28388 39.7758 1.28388H39.1325V2.80107ZM42.7517 2.79188V4.29987H43.5811C44.2681 4.29987 44.4105 4.28042 44.4105 4.18677C44.4105 4.09509 44.289 4.07367 43.7696 4.07367H43.1287V3.47047V2.86728H43.6942C44.1466 2.86728 44.2597 2.84466 44.2597 2.75418C44.2597 2.6637 44.1466 2.64108 43.6942 2.64108H43.1287V2.07558V1.51008H43.7319C44.2178 1.51008 44.3351 1.48806 44.3351 1.39698C44.3351 1.30363 44.1969 1.28388 43.5434 1.28388H42.7517V2.79188ZM45.6923 2.79188C45.6923 4.24958 45.6973 4.29987 45.8431 4.29987C45.9833 4.29987 45.9939 4.24958 45.9939 3.58357V2.86728H46.1874C46.5221 2.86728 46.642 2.99342 46.9371 3.65558C47.1826 4.20668 47.2504 4.29987 47.4058 4.29987C47.5585 4.29987 47.5791 4.27348 47.5349 4.13437C47.4278 3.79665 47.0351 2.9763 46.9195 2.84858C46.8171 2.73548 46.816 2.71648 46.9116 2.71648C47.1292 2.71648 47.3511 2.38404 47.3511 2.05801C47.3511 1.88783 47.33 1.69368 47.3043 1.62657C47.2185 1.40324 46.8554 1.28388 46.2616 1.28388H45.6923V2.79188ZM50.8195 2.79188V4.29987H51.6489C52.3358 4.29987 52.4783 4.28042 52.4783 4.18677C52.4783 4.09509 52.3568 4.07367 51.8374 4.07367H51.1965V3.47047V2.86728H51.762C52.2144 2.86728 52.3275 2.84466 52.3275 2.75418C52.3275 2.6637 52.2144 2.64108 51.762 2.64108H51.1965V2.07558V1.51008H51.7997C52.2856 1.51008 52.4029 1.48806 52.4029 1.39698C52.4029 1.30363 52.2647 1.28388 51.6112 1.28388H50.8195V2.79188ZM53.6847 2.79188V4.29987H54.4764C55.1299 4.29987 55.2681 4.28012 55.2681 4.18677C55.2681 4.09569 55.1507 4.07367 54.6649 4.07367H54.0617V2.67878V1.28388H53.8732H53.6847V2.79188ZM56.3237 2.79188V4.29987H56.5122H56.7007V2.79188V1.28388H56.5122H56.3237V2.79188ZM57.6809 1.39698C57.6809 1.48497 57.7814 1.51008 58.1333 1.51008H58.5857V2.90498V4.29987H58.7742H58.9627V2.90498V1.51008H59.3774C59.6957 1.51008 59.7921 1.48384 59.7921 1.39698C59.7921 1.30182 59.6245 1.28388 58.7365 1.28388C57.8484 1.28388 57.6809 1.30182 57.6809 1.39698ZM60.7723 2.79188V4.29987H61.6017C62.2886 4.29987 62.4311 4.28042 62.4311 4.18677C62.4311 4.09509 62.3096 4.07367 61.7902 4.07367H61.1493V3.47047V2.86728H61.7148C62.1672 2.86728 62.2803 2.84466 62.2803 2.75418C62.2803 2.6637 62.1672 2.64108 61.7148 2.64108H61.1493V2.07558V1.51008H61.7525C62.2383 1.51008 62.3557 1.48806 62.3557 1.39698C62.3557 1.30363 62.2174 1.28388 61.564 1.28388H60.7723V2.79188ZM88.1047 1.46484C87.8002 1.59913 87.4673 1.94257 87.3301 2.26408C87.1502 2.68579 87.1746 3.44363 87.382 3.87198C87.6393 4.40355 88.0196 4.63005 88.7136 4.66511C89.0146 4.68026 89.3824 4.65259 89.531 4.60358L89.8012 4.51438V3.69079V2.86728H89.2734C88.7959 2.86728 88.7456 2.8816 88.7456 3.01807C88.7456 3.14656 88.7959 3.16887 89.0849 3.16887H89.4242V3.73294C89.4242 4.2759 89.4169 4.29882 89.2303 4.34564C88.96 4.4135 88.3972 4.32528 88.1433 4.17531C87.4344 3.75654 87.4059 2.4338 88.0951 1.94212C88.2964 1.79856 88.4273 1.7742 88.9891 1.77579C89.4887 1.77714 89.6573 1.75181 89.6883 1.67076C89.7423 1.53013 89.7147 1.50902 89.3736 1.42985C88.9571 1.33319 88.3665 1.34948 88.1047 1.46484ZM77.6618 3.01355V4.60147H77.8485H78.0353L78.0559 3.32299L78.0765 2.04459L78.6043 3.32533C79.0955 4.51732 79.1448 4.60456 79.3156 4.58488C79.4779 4.56618 79.5601 4.41237 80.0319 3.2445L80.5647 1.92531L80.5853 3.26335L80.6059 4.60147H80.7926H80.9794V3.01807V1.43468L80.6967 1.43558L80.4139 1.43649L80.041 2.35923C79.8359 2.86675 79.587 3.46768 79.4879 3.69456L79.3076 4.10723L78.7611 2.78976L78.2146 1.47238L77.9382 1.449L77.6618 1.42556V3.01355ZM83.7127 1.82661C83.627 2.04647 83.3365 2.76074 83.0671 3.41392L82.5772 4.60147H82.7778C82.9503 4.60147 83.0001 4.54575 83.1313 4.20562L83.2841 3.80977L84.0461 3.78836L84.8083 3.76695L84.9812 4.18421C85.1305 4.54439 85.182 4.60147 85.3575 4.60147H85.5609L84.9443 3.03692C84.3407 1.50518 84.3229 1.47193 84.0981 1.44961C83.8843 1.4285 83.8578 1.45436 83.7127 1.82661ZM92.6099 1.82661C92.5242 2.04647 92.2337 2.76074 91.9643 3.41392L91.4744 4.60147H91.675C91.8475 4.60147 91.8972 4.54575 92.0285 4.20562L92.1813 3.80977L92.9433 3.78836L93.7055 3.76695L93.8784 4.18421C94.0276 4.54439 94.0791 4.60147 94.2547 4.60147H94.458L93.8415 3.03692C93.2378 1.50518 93.2201 1.47193 92.9953 1.44961C92.7814 1.4285 92.755 1.45436 92.6099 1.82661ZM95.8332 1.58548C95.8332 1.7267 95.8835 1.73628 96.6249 1.73628C97.0603 1.73628 97.4166 1.74993 97.4166 1.76666C97.4166 1.7834 97.0603 2.35795 96.6249 3.04341C96.1894 3.72894 95.8332 4.35989 95.8332 4.44562C95.8332 4.59574 95.872 4.60147 96.8888 4.60147C97.8941 4.60147 97.9444 4.59431 97.9444 4.45067C97.9444 4.309 97.8941 4.29987 97.115 4.29987C96.6588 4.29987 96.2856 4.28328 96.2856 4.263C96.2856 4.24272 96.6418 3.65995 97.0773 2.96793C97.5127 2.27599 97.869 1.64791 97.869 1.57221C97.869 1.44591 97.786 1.43468 96.8511 1.43468C95.8835 1.43468 95.8332 1.44214 95.8332 1.58548ZM99.6032 3.01807V4.60147H99.7917H99.9802V3.01807V1.43468H99.7917H99.6032V3.01807ZM101.865 3.01807V4.60147H102.052H102.239L102.259 3.31432L102.28 2.02717L103.022 3.31432C103.754 4.583 103.768 4.60147 104.021 4.60147H104.278V3.01807V1.43468H104.091H103.904L103.884 2.74822L103.863 4.06176L103.109 2.74912C102.377 1.47419 102.348 1.43641 102.11 1.43551L101.865 1.43468V3.01807ZM16.51 1.69722C17.0033 1.95237 17.1802 2.78562 16.8707 3.3962C16.669 3.79409 16.3646 3.98719 15.8413 4.04917L15.457 4.09471V2.7918V1.48897L15.8631 1.53089C16.0866 1.55396 16.3777 1.62883 16.51 1.69722ZM30.0888 1.64912C30.3103 1.82849 30.3186 2.21431 30.1056 2.42739C30.0125 2.52044 29.8117 2.59795 29.6029 2.62147L29.2551 2.66068V2.08538V1.51008H29.5861C29.7954 1.51008 29.9802 1.5612 30.0888 1.64912ZM40.5625 1.69722C41.0558 1.95237 41.2328 2.78562 40.9233 3.3962C40.7216 3.79409 40.4172 3.98719 39.8938 4.04917L39.5095 4.09471V2.7918V1.48897L39.9157 1.53089C40.1392 1.55396 40.4302 1.62883 40.5625 1.69722ZM46.8275 1.64912C47.049 1.82849 47.0574 2.21431 46.8443 2.42739C46.7513 2.52044 46.5505 2.59795 46.3416 2.62147L45.9939 2.66068V2.08538V1.51008H46.3248C46.5341 1.51008 46.7189 1.5612 46.8275 1.64912ZM84.4036 2.67455C84.5523 3.04552 84.674 3.3763 84.674 3.4097C84.674 3.4431 84.4026 3.47047 84.0708 3.47047C83.739 3.47047 83.4676 3.4477 83.4676 3.41988C83.4676 3.27466 84.0406 1.90585 84.0832 1.94921C84.1107 1.97726 84.2549 2.30366 84.4036 2.67455ZM93.3008 2.67455C93.4495 3.04552 93.5712 3.3763 93.5712 3.4097C93.5712 3.4431 93.2997 3.47047 92.968 3.47047C92.6362 3.47047 92.3648 3.4477 92.3648 3.41988C92.3648 3.27466 92.9377 1.90585 92.9803 1.94921C93.0079 1.97726 93.1521 2.30366 93.3008 2.67455ZM48.5575 3.13117C48.5575 3.22165 48.6706 3.24427 49.123 3.24427C49.5754 3.24427 49.6885 3.22165 49.6885 3.13117C49.6885 3.04069 49.5754 3.01807 49.123 3.01807C48.6706 3.01807 48.5575 3.04069 48.5575 3.13117ZM97.0934 6.57393C95.8714 6.69683 94.8466 7.63247 94.2073 9.20916L93.9507 9.84176L93.9495 8.39031L93.9482 6.93887H91.6108H89.2734V15.4967V24.0546H91.7577H94.2419L94.27 19.7003C94.3014 14.8295 94.2973 14.8725 94.8555 13.6696C95.3298 12.6476 96.0822 11.9992 97.0207 11.8035L97.2658 11.7525V12.425C97.2658 13.7324 97.6688 14.7869 98.5066 15.6716C98.9495 16.1395 99.1486 16.2826 99.7884 16.5931C100.971 17.1674 102.588 17.576 104.852 17.8735C106.269 18.0597 106.548 18.1251 106.973 18.3711C107.356 18.5928 107.533 18.9022 107.533 19.3516C107.533 19.7886 107.335 20.1148 106.886 20.4173C106.262 20.8371 105.832 20.9264 104.466 20.9194C103.425 20.914 103.199 20.8908 102.814 20.7493C101.864 20.401 101.296 19.9023 101.052 19.2032C100.981 19.0003 100.878 18.8168 100.823 18.7953C100.711 18.7514 96.7764 19.3095 96.6504 19.3873C96.55 19.4494 96.8092 20.2714 97.1356 20.9255C98.1063 22.8716 99.9086 24.0048 102.603 24.3634C103.59 24.4947 106.179 24.409 106.997 24.2181C109.554 23.6211 111.224 22.1657 111.831 20.0056C112.041 19.2551 112.058 17.8058 111.866 17.0123C111.466 15.3669 110.349 14.1901 108.686 13.6644C107.74 13.3653 106.809 13.181 104.994 12.9335C103.488 12.7281 102.587 12.5243 102.272 12.3176C101.856 12.0454 101.678 11.3475 101.894 10.8327C102.161 10.1922 102.936 9.87946 104.256 9.87946C105.219 9.87946 105.837 10.0325 106.413 10.4137C106.819 10.6826 107.291 11.2983 107.442 11.7559C107.501 11.9363 107.592 12.0661 107.658 12.0661C107.904 12.0661 111.29 11.131 111.29 11.0629C111.29 11.0229 111.138 10.669 110.952 10.2764C109.974 8.21079 108.574 7.14086 106.34 6.75014C105.451 6.59474 103.412 6.59489 102.506 6.75037C100.977 7.01283 99.8099 7.55074 98.868 8.42711L98.5476 8.72531V7.65004V6.57476L98.068 6.54943C97.8042 6.53555 97.3657 6.54656 97.0934 6.57393ZM50.3657 6.64571C49.7028 6.69962 49.0559 6.87485 48.5236 7.14448C47.9926 7.41358 47.1906 8.21365 46.6652 8.99849L46.2201 9.66314V8.30104V6.93887H43.845H41.4699V15.4967V24.0546H44.0335H46.5971L46.5984 18.7578C46.5998 13.0231 46.6079 12.8905 47.0131 12.0031C47.2407 11.5047 47.6416 11.0625 48.0674 10.8403C48.4445 10.6434 49.4578 10.5705 49.8801 10.7098C50.2614 10.8358 50.809 11.3492 50.986 11.7469C51.2221 12.2772 51.2694 13.4651 51.2707 18.9086L51.2719 24.0546H53.7978H56.3237L56.3232 17.8907C56.3228 11.314 56.3055 10.9446 55.9434 9.76636C55.6968 8.96418 55.3707 8.41422 54.8561 7.93286C53.8209 6.9645 52.1907 6.49717 50.3657 6.64571ZM80.0369 6.65287C78.0773 6.77887 76.4705 7.50595 75.092 8.89029C73.4599 10.5295 72.6654 12.5053 72.5567 15.1951C72.4384 18.1256 73.2486 20.4032 75.0542 22.2161C76.0686 23.2346 77.1771 23.8587 78.6189 24.2233C79.2023 24.3709 79.4797 24.3914 80.904 24.3926C82.2176 24.3937 82.6396 24.3675 83.1283 24.2544C85.3292 23.7452 87.0424 22.3671 88.0763 20.2741C88.4604 19.4968 88.7889 18.6441 88.728 18.5832C88.672 18.5271 84.7701 18.2394 84.4146 18.2651C84.1289 18.2857 84.1142 18.3 84.0278 18.6399C83.8007 19.5345 83.3197 20.1624 82.5844 20.5244C82.1471 20.7397 81.9932 20.7741 81.3538 20.7998C80.4576 20.8358 79.9797 20.7128 79.3297 20.2787C78.4106 19.665 77.9909 18.7804 77.9106 17.2875L77.8649 16.4392H83.3914H88.9177L88.8658 15.5156C88.6269 11.2671 87.2613 8.81685 84.3347 7.38569C83.043 6.75399 81.7894 6.54023 80.0369 6.65287ZM25.5605 13.0383C25.5605 16.6726 25.592 19.4532 25.6383 19.9185C25.7929 21.4717 26.1575 22.4313 26.8957 23.229C27.6846 24.0812 28.7119 24.4319 30.417 24.4311C31.6853 24.4305 32.466 24.2718 33.2805 23.849C33.9495 23.5018 34.7805 22.6925 35.1597 22.0188L35.4356 21.5287L35.4368 22.7917L35.4379 24.0546H37.813H40.1881V15.4967V6.93887H37.6276H35.0671L35.0437 12.6881C35.0167 19.298 35.0628 18.8625 34.3125 19.6102C33.673 20.2476 33.3043 20.3977 32.3787 20.3977C31.6798 20.3977 31.5946 20.3815 31.3117 20.1942C31.0997 20.0539 30.9375 19.8549 30.7894 19.5533L30.5746 19.1159L30.554 13.0274L30.5335 6.93887H28.047H25.5605V13.0383ZM18.2335 10.3685C19.3483 10.9783 19.8302 12.5635 19.8302 15.6208C19.8302 18.0569 19.4998 19.458 18.7411 20.2386C18.2442 20.7498 17.8754 20.9089 17.0948 20.9484C16.4708 20.98 16.4053 20.9683 15.9493 20.7437C15.3968 20.4718 15.1094 20.1516 14.7824 19.4437C14.3538 18.5163 14.1229 16.6106 14.2082 14.705C14.3346 11.8795 14.8026 10.7488 16.0553 10.2431C16.3243 10.1345 16.5559 10.1091 17.1158 10.1265C17.7407 10.1461 17.8833 10.1769 18.2335 10.3685ZM82.3218 10.3669C82.7766 10.6166 83.162 11.0116 83.3936 11.4656C83.5849 11.8407 83.8446 12.8227 83.8446 13.1714V13.4233H80.8751H77.9055L78.0032 12.9143C78.2366 11.6976 78.7829 10.8096 79.5468 10.4053C79.9866 10.1725 80.3538 10.1081 81.1302 10.1275C81.8425 10.1454 81.962 10.1694 82.3218 10.3669ZM65.7906 10.3601C66.5011 10.6909 66.9321 11.3997 67.1487 12.5939C67.3018 13.4373 67.2956 17.8854 67.1405 18.5434C66.9175 19.4897 66.3418 20.2779 65.6148 20.6324C65.4431 20.7161 65.1062 20.7808 64.748 20.7989C64.2314 20.825 64.1134 20.8047 63.7509 20.6274C63.0328 20.2761 62.5749 19.5816 62.2726 18.3853C62.0732 17.5965 61.9859 14.9689 62.1238 13.9087C62.3836 11.9115 63.0516 10.6543 64.0389 10.3046C64.5456 10.125 65.3398 10.1501 65.7906 10.3601Z" fill="white"/>
</svg>
