<svg xmlns="http://www.w3.org/2000/svg" width="76" height="21" fill="none" viewBox="0 0 76 21"><path fill="#fff" fill-rule="evenodd" d="M57.695 0h-17.22v4.105h6.393v14.454h4.248V4.105h6.58V0Zm13.51 0h-4.988v4.105h4.916v14.454h4.2l.002-14.765c0-3.162-2.207-3.793-4.13-3.793ZM14.402 7.355H5.58c-.964-.022-1.085-.431-1.097-1.086V4.104h13.063V0H4.545C2.696-.013.408.611.407 3.794v3.567c0 3.156 2.213 3.796 4.138 3.796h9.853v3.335H.554v4.067h13.849c1.925 0 4.141-.637 4.141-3.792V11.16c0-3.158-2.216-3.805-4.141-3.805Zm26.077 7.114-.627-.021c-.93 0-1.383-.224-1.383-.962V.001H24.838c-1.94 0-4.147.63-4.147 3.794v10.972c0 3.155 2.202 3.792 4.147 3.792h7.625v-4.067H26.31c-.929 0-1.379-.247-1.379-.982V5.016c0-.736.45-.912 1.38-.912h8.083V18.56h6.086v-4.103.012ZM58.505 16.041s-1.483-6.176 1.336-8.796a6.47 6.47 0 0 0-3.434 1.893c-.98 3.265 2.098 6.903 2.098 6.903Z" clip-rule="evenodd"/><path fill="#fff" fill-rule="evenodd" d="M58.606 16.047s4.27-7.216 5.75-8.063a6.466 6.466 0 0 0-3.146-.866c-2.804 1.82-2.604 8.929-2.604 8.929ZM58.687 16.117s7.59-2.35 8.543-4.699a6.473 6.473 0 0 0-1.754-2.62c-1.075.944-6.79 7.32-6.79 7.32Z" clip-rule="evenodd"/><path fill="#fff" fill-rule="evenodd" d="M67.55 12.736c-1.455 2.65-8.836 3.474-8.836 3.474s5.125 2.267 8.339.014a6.418 6.418 0 0 0 .496-3.488Z" clip-rule="evenodd"/><path fill="#fff" fill-rule="evenodd" d="M66.205 17.625c-3.65 1.479-7.532-1.327-7.532-1.327s2.206 3.124 4.445 3.47a6.468 6.468 0 0 0 3.087-2.143ZM58.489 16.287s-1.78 1.417-2.253 1.62c.505.549 1.12 1.069 1.812 1.431-.34-.828.44-3.051.44-3.051ZM58.433 16.2s-2.777-.121-3.695-1.385a6.43 6.43 0 0 0 .93 2.315c.703.108 2.765-.93 2.765-.93Z" clip-rule="evenodd"/><path fill="#fff" fill-rule="evenodd" d="M54.629 13.666c.78 1.642 3.809 2.44 3.809 2.44S55.25 13.4 55.443 10.45a6.453 6.453 0 0 0-.817 2.986c0 .076 0 .153.003.23ZM58.585 16.323s-.353 2.487.368 3.393c.831.294 1.733.421 2.657.35-1.871-.732-3.025-3.743-3.025-3.743Z" clip-rule="evenodd"/></svg>