<svg xmlns="http://www.w3.org/2000/svg" width="33" height="32" fill="none" viewBox="0 0 33 32"><path fill="url(#a)" d="m15.163 23.326-.152.062c-.905.302-2.261.753-3.44 1.326-.062.03-.12.12-.12.12a2.24 2.24 0 0 0-.09.182c-.126.302-.331.755-.393.965l-.058.154v.057l.026.032h.032l.145-.06c.338-.154.757-.393 1.183-.603h.028a109.25 109.25 0 0 0 2.323-1.116s.09-.06.152-.15l.421-.847v-.06c0-.062-.032-.09-.057-.062Z"/><path fill="url(#b)" d="M11.781 22c.063-.122.33-.635.394-.755v-.03a53.5 53.5 0 0 1 6.633-9.717l.064-.091c.033-.03.033-.06 0-.09-.032-.03-.064-.062-.09-.03h-.12c-1.693.242-3.411.543-5.099.965-.184.061-.274.152-.306.18-1.266 1.51-2.445 3.108-3.564 4.74a.97.97 0 0 1 .037.271s.268 2.112.663 3.682c-.967 2.866-1.872 6.668-1.872 6.668v.062c0 .03.033.03.058.03h.573c.03 0 .062-.03.094-.06l.026-.122a53.514 53.514 0 0 1 1.961-4.648c.185-.334.548-1.055.548-1.055Z"/><path fill="url(#c)" d="M19.689 12.132v-.121c0-.03-.033-.062-.058-.09-.032 0-.065 0-.095.028l-.06.09c-3.022 3.471-5.522 7.334-7.51 11.469l-.064.089v.092c.026.028.026.028.064.028h.026l.09-.028a54.456 54.456 0 0 1 5.13-1.811c.09-.03.183-.09.241-.18.757-1.448 2.503-4.286 2.503-4.286.064-.091.037-.181.037-.181s-.304-3.381-.304-5.1Z"/><path fill="url(#d)" d="M23.552 7.243c-.419-.363-1.06-.544-2.023-.573-.841-.031-1.872.18-3.049.542-.18.062-.301.152-.453.27-1.204 1.119-2.349 2.326-3.438 3.534l-.094.09c-.027.03-.027.06 0 .09.03.031.062.06.094.031l.12-.03a47.7 47.7 0 0 1 5.312-.847c.12 0 .241.03.329.09a.374.374 0 0 1 .122.302 51.463 51.463 0 0 0 .18 5.192v.12c0 .03.037.06.062.06h.032c.032 0 .058 0 .058-.03l.062-.09a45.859 45.859 0 0 1 3.198-4.072.858.858 0 0 0 .183-.365c.358-2.204-.183-3.891-.695-4.314Z"/><defs><linearGradient id="a" x1="16.059" x2="10.713" y1="23.775" y2="24.074" gradientUnits="userSpaceOnUse"><stop stop-color="#B1BFD8"/><stop offset="1" stop-color="#6782B4"/></linearGradient><linearGradient id="b" x1="20.916" x2="8.015" y1="13.896" y2="14.2" gradientUnits="userSpaceOnUse"><stop stop-color="#B1BFD8"/><stop offset="1" stop-color="#6782B4"/></linearGradient><linearGradient id="c" x1="21.574" x2="11.508" y1="13.784" y2="14.044" gradientUnits="userSpaceOnUse"><stop stop-color="#B1BFD8"/><stop offset="1" stop-color="#6782B4"/></linearGradient><linearGradient id="d" x1="26.287" x2="14.004" y1="8.159" y2="8.644" gradientUnits="userSpaceOnUse"><stop stop-color="#B1BFD8"/><stop offset="1" stop-color="#6782B4"/></linearGradient></defs></svg>