<svg width="28" height="13" viewBox="0 0 28 13" fill="none" xmlns="http://www.w3.org/2000/svg">
<g opacity="0.972399" clip-path="url(#clip0_1097_2732)">
<path fill-rule="evenodd" clip-rule="evenodd" d="M17.0382 7.55524H2.2365C1.36584 7.55524 0.660034 6.84943 0.660034 5.97877C0.660034 5.1081 1.36584 4.4023 2.2365 4.4023H17.0382V1.17642C17.0382 0.741092 17.3911 0.388184 17.8265 0.388184C17.9677 0.388184 18.1062 0.426188 18.2278 0.498067L26.3462 5.30022C26.7209 5.52186 26.845 6.00532 26.6234 6.38C26.5558 6.49424 26.4605 6.58955 26.3462 6.65712L18.2278 11.4593C17.8531 11.6809 17.3697 11.5568 17.148 11.1822C17.0761 11.0606 17.0382 10.9221 17.0382 10.7809V7.55524Z" fill="white"/>
</g>
<defs>
<clipPath id="clip0_1097_2732">
<rect width="26.8" height="12.06" fill="white" transform="translate(0.660034 0.269958)"/>
</clipPath>
</defs>
</svg>
