<svg xmlns="http://www.w3.org/2000/svg" width="33" height="32" fill="none" viewBox="0 0 33 32"><g clip-path="url(#a)" filter="url(#b)"><path fill="url(#c)" fill-rule="evenodd" d="M16.25 26.666c5.892 0 10.667-4.775 10.667-10.666S22.142 5.333 16.251 5.333 5.584 10.109 5.584 16c0 5.89 4.776 10.666 10.667 10.666Zm-5.174-15.392c0-.011.013-.024.026-.024h.884c.061 0 .125.008.125.076 0 .05-.184.655-.617 1.784-.127.332-.221.55-.284.694l-.002.006c-.059.136-.091.211-.082.226.002.002.005.003.009.003a.773.773 0 0 0 .112-.145l.001-.002c.224-.316.688-.971 1.263-.971.286 0 .45.196.45.54 0 .427-.302 1.15-.482 1.583l-.006.013c-.066.16-.114.276-.119.311-.005.04-.003.063.008.074.008.009.022.01.044.009.077-.01.35-.266.51-.437a.027.027 0 0 1 .022-.006c.006.002.011.005.013.01l.098.115.008.017-.004.009-.003.007-.04.048c-.286.341-.642.766-1.114.766-.145 0-.217-.082-.217-.244 0-.175.167-.546.344-.938v-.001c.2-.445.407-.904.407-1.149 0-.15-.053-.202-.203-.202-.474 0-1.395 1.258-1.729 2.36-.019.073-.105.103-.299.103-.175 0-.218-.02-.218-.099 0-.065.187-.551.424-1.17l.004-.008v-.002c.2-.52.426-1.111.572-1.533l.169-.48.001-.002c.189-.53.325-.912.325-1.034 0-.072-.038-.098-.183-.12l-.11-.011-.09-.009c-.01-.004-.017-.013-.017-.023v-.144Zm12.708 2.983c.158.212.338.452.338.742 0 .516-.621.976-1.111.976-.323 0-.607-.229-.607-.367 0-.086.026-.33.142-.33.08 0 .156.068.244.146l.003.002c.119.108.267.241.48.241.213 0 .433-.143.433-.381 0-.142-.108-.28-.233-.44l-.001-.002c-.157-.199-.334-.425-.334-.715 0-.532.531-1.209 1.128-1.209.26 0 .416.152.416.298 0 .122-.129.275-.273.275a.643.643 0 0 1-.278-.08h-.002a.626.626 0 0 0-.27-.078c-.207 0-.342.153-.342.391 0 .174.127.344.261.524l.004.005.002.002ZM9.836 15.28c.003-.007.002-.02-.003-.026l-.1-.105c-.001-.005-.007-.01-.015-.01-.005-.001-.012 0-.015.005.002 0-.011.01-.011.01-.179.165-.525.446-.836.468a.422.422 0 0 1-.314-.1c-.102-.09-.16-.232-.17-.413-.022-.465.374-1.17.77-1.585.212-.222.407-.344.548-.344.165 0 .269.121.369.24l.001.001c.088.103.17.2.285.2a.192.192 0 0 0 .132-.062.218.218 0 0 0 .061-.16c-.008-.181-.177-.471-.592-.478-.476-.009-1.068.28-1.51.736-.422.434-.641.949-.617 1.447.018.42.244.867.827.867.586 0 1.105-.525 1.19-.691Zm7.625-.98c.008.002.041-.064.053-.089.473-.945.826-1.297 1.304-1.297.116 0 .252.07.252.263a.394.394 0 0 1-.104.283.193.193 0 0 1-.146.056c-.076-.005-.12-.058-.161-.11h-.001c-.039-.046-.074-.089-.132-.093-.075-.004-.179.06-.325.201-.218.213-.506.759-1.028 1.826-.06.123-.158.352-.191.43l-.012.029c-.038.082-.056.116-.111.116h-.264c-.053 0-.076-.027-.076-.089 0-.043.082-.273.197-.59.203-.561.509-1.408.509-1.686 0-.11-.035-.173-.097-.173-.115 0-.336.278-.443.412l-.023.03-.029.031a.021.021 0 0 1-.018.011c-.008 0-.016-.004-.018-.009l-.094-.097a.024.024 0 0 1-.007-.017l.001-.002c0-.005.003-.01.005-.01.166-.278.641-.794.956-.794.15 0 .231.083.231.234 0 .112-.092.498-.162.79l-.004.018a4.574 4.574 0 0 0-.068.304l-.002.022h.008Zm-3.684.925c0-.86.684-2.058 1.357-2.058.223 0 .352.132.352.36 0 .356-.935 1.991-1.517 1.991-.122 0-.192-.047-.192-.293Zm2.093-2.363c-.041.012-.065.05-.089.084l-.001.002c-.028.043-.055.083-.105.083-.04 0-.082-.008-.128-.018l-.011-.002-.005-.001a1.24 1.24 0 0 0-.27-.032c-1.32 0-2.012 1.775-2.012 2.389 0 .416.23.602.456.602.282 0 .666-.095 1.15-.84 0 0 .107-.18.12-.18.007 0 .01 0 .013.003.005.005.006.016 0 .033l-.038.089c-.06.132-.174.377-.174.601 0 .106.027.187.078.237a.256.256 0 0 0 .189.065c.458-.008.854-.598 1.003-.82a.142.142 0 0 1 .006-.012l-.006-.017-.1-.118c-.014-.011-.027-.01-.036 0l-.102.124c-.135.17-.304.38-.406.38-.024 0-.039-.004-.047-.013-.013-.013-.016-.038-.014-.09.008-.14.28-.855.502-1.439l.008-.022.006-.015c.162-.427.302-.794.307-.854 0-.013-.002-.06-.043-.079h.002l-.18-.12-.008-.005c-.02-.011-.045-.024-.065-.015Zm6.504.5c0-.149-.105-.252-.255-.252-.364 0-.762.597-.894.842.73-.013 1.149-.227 1.149-.59Zm-1.427 2.613c-.459 0-.78-.343-.78-.834 0-1.072 1.204-2.22 2.05-2.22.4 0 .615.246.615.479 0 .565-.92.8-1.413.8l-.282-.01-.05-.002-.009.012-.008.012v.002c-.135.204-.319.484-.319.86 0 .31.188.503.49.503.245 0 .577-.248.756-.382l.074-.054c.009-.006.022-.006.034.003l.088.108a.021.021 0 0 1 .002.028c-.135.178-.707.695-1.248.695Zm-1.026-.8c.008-.01.004-.02.002-.025-.002-.006-.103-.133-.103-.133a.023.023 0 0 0-.018-.008.024.024 0 0 0-.018.007l-.034.039c-.257.283-.399.44-.517.447a.063.063 0 0 1-.048-.018c-.017-.017-.026-.048-.023-.086.007-.159.266-.902.789-2.274l.38-.982c.198-.512.298-.77.299-.804a.07.07 0 0 0-.016-.053c-.019-.02-.053-.03-.104-.03h-.887c-.013 0-.024.01-.026.024l-.005.142c0 .01.007.022.018.024l.198.018c.127.021.177.063.173.146-.004.124-.576 1.542-.576 1.542-.308.765-.825 2.093-.84 2.403-.007.14.025.25.094.323.062.065.15.098.262.098.36 0 .72-.45.959-.748l.04-.052ZM8.473 18.651c-.322-.167-.651-.393-.651-.808 0-.49.38-.83.924-.83.138 0 .286.022.396.061l.087.026.1.032v.005c.02.177.047.366.085.58l.001.008-.15.028-.002-.006c-.085-.27-.218-.545-.568-.545-.299 0-.433.224-.433.445 0 .225.146.383.503.546l.11.05c.28.126.653.348.653.836 0 .52-.409.882-.993.882-.15 0-.307-.026-.432-.073l-.186-.065-.07-.026v-.004a8 8 0 0 1-.13-.668l-.002-.007.143-.048.003.007c.102.26.336.698.757.698.263 0 .446-.2.446-.482 0-.249-.131-.415-.453-.573l-.138-.069Zm1.367-.115c0 .71.493 1.425 1.594 1.425.284 0 .657-.083.815-.128.077-.174.175-.536.221-.722l.002-.008-.135-.03-.002.005c-.223.451-.432.697-.9.697-.61 0-1.019-.543-1.019-1.35 0-.565.267-1.223 1.018-1.223.441 0 .682.189.805.631l.002.007.136-.019-.02-.192-.061-.506h-.006l-.076-.017h-.002a2.92 2.92 0 0 0-.7-.094c-.984 0-1.672.626-1.672 1.524Zm4.625-1.457h1.24v.135h-.007c-.347.027-.371.061-.371.52v1.508c0 .475.036.494.363.52l.006.001v.134H14.43v-.134h.007c.365-.028.39-.062.39-.52v-.725h-1.296v.724c0 .473.04.495.364.52l.007.001v.134h-1.249v-.134h.007c.345-.028.373-.066.373-.52v-1.509c0-.459-.025-.493-.39-.52h-.007v-.135h1.25v.135h-.007c-.31.026-.348.047-.348.52v.57h1.296v-.57c0-.473-.04-.494-.354-.52h-.008v-.135Zm5.553 0h-1v.135l.157.011c.086.008.13.023.153.057.014.02.02.045.02.083 0 .045-.01.107-.032.193-.01.04-.247.976-.432 1.601-.036-.088-.749-2.04-.749-2.04l-.001-.006h-.18l-.653 2.046c-.03-.092-.5-1.67-.5-1.67a.544.544 0 0 1-.026-.144c0-.027.005-.048.016-.063.022-.035.072-.048.148-.058l.14-.01v-.135h-1.181v.135l.007.001c.23.026.301.05.416.417l.712 2.3h.203l.67-2.012c.032.082.732 2.008.732 2.008l.002.005h.201l.002-.006c.397-1.332.724-2.267.728-2.277.142-.394.176-.41.448-.435h.007v-.136h-.008Zm.99-.032.292.788.547 1.49c.148.391.21.412.451.437l.007.001v.134h-1.15v-.133l.127-.02c.078-.011.116-.028.132-.054a.077.077 0 0 0 .01-.042.46.46 0 0 0-.027-.126 16.5 16.5 0 0 0-.234-.614h-.79a5.755 5.755 0 0 0-.154.43l-.015.045-.023.07a.584.584 0 0 0-.037.17.11.11 0 0 0 .015.062c.022.035.07.052.163.063l.127.015v.134h-.972v-.134h.006c.263-.035.31-.051.458-.438l.88-2.258.181-.02h.006Zm.084 1.645-.332-.934h-.002l-.331.934h.665Zm2.39-.219c.478 0 .752.234.752.643 0 .439-.295.594-.57.594-.125.004-.194-.012-.239-.056-.068-.066-.081-.203-.081-.419v-.762h.139Zm-.966-1.394h-.008v.135h.007c.3.026.338.047.338.52v1.508c0 .473-.041.495-.364.52l-.007.001v.134h1.08c.347 0 .64-.06.83-.172.264-.16.392-.375.392-.658 0-.39-.285-.66-.762-.726.212-.045.6-.228.6-.623 0-.223-.08-.386-.246-.496-.165-.105-.34-.143-.668-.143h-1.192Zm.828.387c0-.1 0-.173.032-.19a.541.541 0 0 1 .194-.018c.126 0 .537.037.537.516 0 .342-.213.53-.598.53h-.165v-.838Z" clip-rule="evenodd"/></g><defs><linearGradient id="c" x1="31.069" x2="4.565" y1="8.701" y2="9.702" gradientUnits="userSpaceOnUse"><stop stop-color="#B1BFD8"/><stop offset="1" stop-color="#6782B4"/></linearGradient><clipPath id="a"><path fill="#fff" d="M.25 0h32v32h-32z"/></clipPath><filter id="b" width="61.333" height="61.334" x="-14.416" y="5.333" color-interpolation-filters="sRGB" filterUnits="userSpaceOnUse"><feFlood flood-opacity="0" result="BackgroundImageFix"/><feColorMatrix in="SourceAlpha" result="hardAlpha" values="0 0 0 0 0 0 0 0 0 0 0 0 0 0 0 0 0 0 127 0"/><feMorphology in="SourceAlpha" radius="6" result="effect1_dropShadow_190_69"/><feOffset dy="8"/><feGaussianBlur stdDeviation="5"/><feComposite in2="hardAlpha" operator="out"/><feColorMatrix values="0 0 0 0 0 0 0 0 0 0 0 0 0 0 0 0 0 0 0.4 0"/><feBlend in2="BackgroundImageFix" result="effect1_dropShadow_190_69"/><feColorMatrix in="SourceAlpha" result="hardAlpha" values="0 0 0 0 0 0 0 0 0 0 0 0 0 0 0 0 0 0 127 0"/><feMorphology in="SourceAlpha" radius="5" result="effect2_dropShadow_190_69"/><feOffset dy="20"/><feGaussianBlur stdDeviation="12.5"/><feComposite in2="hardAlpha" operator="out"/><feColorMatrix values="0 0 0 0 0 0 0 0 0 0 0 0 0 0 0 0 0 0 0.4 0"/><feBlend in2="effect1_dropShadow_190_69" result="effect2_dropShadow_190_69"/><feBlend in="SourceGraphic" in2="effect2_dropShadow_190_69" result="shape"/></filter></defs></svg>