<svg width="27" height="13" viewBox="0 0 27 13" fill="none" xmlns="http://www.w3.org/2000/svg">
<g opacity="0.972399" clip-path="url(#clip0_1766_1508)">
<path fill-rule="evenodd" clip-rule="evenodd" d="M10.4218 4.77472L25.2236 4.77472C26.0942 4.77472 26.8 5.48053 26.8 6.35119C26.8 7.22185 26.0942 7.92766 25.2236 7.92766L10.4218 7.92766V11.1535C10.4218 11.5889 10.0689 11.9418 9.63361 11.9418C9.49242 11.9418 9.35384 11.9038 9.23232 11.8319L1.11384 7.02973C0.739158 6.8081 0.615095 6.32464 0.836731 5.94995C0.904301 5.83572 0.999612 5.74041 1.11384 5.67284L9.23232 0.870683C9.60701 0.649047 10.0904 0.77311 10.3121 1.1478C10.3839 1.26932 10.4218 1.40785 10.4218 1.54904V4.77472Z" fill="white"/>
</g>
<defs>
<clipPath id="clip0_1766_1508">
<rect width="26.8" height="12.06" fill="white" transform="matrix(-1 0 0 -1 26.8 12.06)"/>
</clipPath>
</defs>
</svg>
