<svg xmlns="http://www.w3.org/2000/svg" width="70" height="54" fill="none" viewBox="0 0 70 54"><g filter="url(#a)"><path fill="#fff" d="M29.677 32.95h-9.3l-1.9 5.9a.438.438 0 0 1-.475.35h-4.7c-.275 0-.35-.15-.275-.45l8.05-23.075c.075-.25.15-.475.25-.775.101-.536.151-1.08.15-1.625a.25.25 0 0 1 .2-.275h6.475c.175 0 .3.075.325.2l9.125 25.625c.075.275 0 .4-.25.4h-5.225a.378.378 0 0 1-.4-.275l-2.05-6Zm-7.85-4.975h6.35c-.15-.525-.35-1.15-.575-1.8-.225-.65-.45-1.4-.675-2.15-.225-.75-.475-1.525-.725-2.3a54.05 54.05 0 0 1-.675-2.225c-.2-.725-.375-1.35-.55-1.95h-.05a30.693 30.693 0 0 1-.85 3.225c-.375 1.2-.75 2.45-1.15 3.7-.325 1.275-.725 2.45-1.1 3.5Z"/></g><g filter="url(#b)"><path fill="#fff" d="M52.427 30.65h-7.925c.095.789.36 1.548.775 2.225a3.965 3.965 0 0 0 1.825 1.5 7.775 7.775 0 0 0 3.2.625 15.034 15.034 0 0 0 2.6-.275 9.39 9.39 0 0 0 2.225-.575c.125-.1.2-.05.2.2v3.825a1.252 1.252 0 0 1-.05.3.585.585 0 0 1-.175.175c-.8.351-1.639.603-2.5.75a16.89 16.89 0 0 1-3.55.3c-1.9 0-3.5-.3-4.8-.875a8.418 8.418 0 0 1-3.15-2.375 9.176 9.176 0 0 1-1.725-3.275 12.952 12.952 0 0 1 .1-7.625 10.202 10.202 0 0 1 1.875-3.425 9.058 9.058 0 0 1 3.025-2.375c1.175-.575 2.575-.775 4.175-.775a9.029 9.029 0 0 1 3.875.775 6.885 6.885 0 0 1 2.625 2 9.152 9.152 0 0 1 1.5 2.85c.318.985.479 2.015.475 3.05 0 .6-.025 1.125-.05 1.6-.025.475-.075.825-.1 1.05a.373.373 0 0 1-.35.325c-.15 0-.425.025-.825.05-.48.055-.965.08-1.45.075-.575 0-1.175-.1-1.825-.1ZM44.502 27h5.275c.65 0 1.125 0 1.425-.025.206-.017.404-.086.575-.2v-.25a2.871 2.871 0 0 0-.15-.925 3.31 3.31 0 0 0-3.25-2.3 3.52 3.52 0 0 0-3.325 1.9 5.18 5.18 0 0 0-.55 1.8Z"/></g><defs><filter id="a" width="50.553" height="52.149" x=".039" y=".621" color-interpolation-filters="sRGB" filterUnits="userSpaceOnUse"><feFlood flood-opacity="0" result="BackgroundImageFix"/><feColorMatrix in="SourceAlpha" result="hardAlpha" values="0 0 0 0 0 0 0 0 0 0 0 0 0 0 0 0 0 0 127 0"/><feOffset dy=".583"/><feGaussianBlur stdDeviation="6.481"/><feColorMatrix values="0 0 0 0 0.266667 0 0 0 0 0.898039 0 0 0 0 0.860157 0 0 0 0.1 0"/><feBlend in2="BackgroundImageFix" result="effect1_dropShadow_191_206"/><feColorMatrix in="SourceAlpha" result="hardAlpha" values="0 0 0 0 0 0 0 0 0 0 0 0 0 0 0 0 0 0 127 0"/><feOffset dy="1.165"/><feGaussianBlur stdDeviation="1.456"/><feColorMatrix values="0 0 0 0 0 0 0 0 0 0 0 0 0 0 0 0 0 0 0.71 0"/><feBlend in2="effect1_dropShadow_191_206" result="effect2_dropShadow_191_206"/><feBlend in="SourceGraphic" in2="effect2_dropShadow_191_206" result="shape"/><feColorMatrix in="SourceAlpha" result="hardAlpha" values="0 0 0 0 0 0 0 0 0 0 0 0 0 0 0 0 0 0 127 0"/><feOffset dy="-.874"/><feGaussianBlur stdDeviation="1.383"/><feComposite in2="hardAlpha" k2="-1" k3="1" operator="arithmetic"/><feColorMatrix values="0 0 0 0 0.0292958 0 0 0 0 0.210704 0 0 0 0 0.104789 0 0 0 0.33 0"/><feBlend in2="shape" result="effect3_innerShadow_191_206"/></filter><filter id="b" width="44.097" height="46.654" x="25.891" y="6.594" color-interpolation-filters="sRGB" filterUnits="userSpaceOnUse"><feFlood flood-opacity="0" result="BackgroundImageFix"/><feColorMatrix in="SourceAlpha" result="hardAlpha" values="0 0 0 0 0 0 0 0 0 0 0 0 0 0 0 0 0 0 127 0"/><feOffset dy=".583"/><feGaussianBlur stdDeviation="6.481"/><feColorMatrix values="0 0 0 0 0.266667 0 0 0 0 0.898039 0 0 0 0 0.860157 0 0 0 0.1 0"/><feBlend in2="BackgroundImageFix" result="effect1_dropShadow_191_206"/><feColorMatrix in="SourceAlpha" result="hardAlpha" values="0 0 0 0 0 0 0 0 0 0 0 0 0 0 0 0 0 0 127 0"/><feOffset dy="1.165"/><feGaussianBlur stdDeviation="1.456"/><feColorMatrix values="0 0 0 0 0 0 0 0 0 0 0 0 0 0 0 0 0 0 0.71 0"/><feBlend in2="effect1_dropShadow_191_206" result="effect2_dropShadow_191_206"/><feBlend in="SourceGraphic" in2="effect2_dropShadow_191_206" result="shape"/><feColorMatrix in="SourceAlpha" result="hardAlpha" values="0 0 0 0 0 0 0 0 0 0 0 0 0 0 0 0 0 0 127 0"/><feOffset dy="-.874"/><feGaussianBlur stdDeviation="1.383"/><feComposite in2="hardAlpha" k2="-1" k3="1" operator="arithmetic"/><feColorMatrix values="0 0 0 0 0.0292958 0 0 0 0 0.210704 0 0 0 0 0.104789 0 0 0 0.33 0"/><feBlend in2="shape" result="effect3_innerShadow_191_206"/></filter></defs></svg>