<svg xmlns="http://www.w3.org/2000/svg" width="59" height="53" fill="none" viewBox="0 0 59 53"><g filter="url(#a)"><path fill="#fff" d="M29.608 38.826H14.286c-.266 0-.386-.145-.386-.435V13.692a.3.3 0 0 1 .265-.338H19a.228.228 0 0 1 .266.193V33.92H30.43c.241 0 .314.12.265.338l-.7 4.205a.419.419 0 0 1-.146.29.409.409 0 0 1-.241.073Z"/></g><g filter="url(#b)"><path fill="#fff" d="M33.474 19.492h4.23a.543.543 0 0 1 .507.387c.1.17.166.36.194.556.048.242.096.507.12.749.025.242.049.556.049.87a8.995 8.995 0 0 1 2.586-2.078 7.214 7.214 0 0 1 3.6-.87.3.3 0 0 1 .339.265v4.81c0 .193-.121.265-.387.265a9.851 9.851 0 0 0-4.568.822c-.489.21-.932.513-1.304.894v12.325c0 .242-.097.339-.315.339h-4.712a.333.333 0 0 1-.387-.29V25.05c0-.58 0-1.184-.024-1.813-.024-.628-.024-1.256-.048-1.885a17.787 17.787 0 0 0-.145-1.595.223.223 0 0 1 .169-.266c.024-.024.048-.024.096 0Z"/></g><defs><filter id="a" width="42.735" height="51.398" x=".936" y=".972" color-interpolation-filters="sRGB" filterUnits="userSpaceOnUse"><feFlood flood-opacity="0" result="BackgroundImageFix"/><feColorMatrix in="SourceAlpha" result="hardAlpha" values="0 0 0 0 0 0 0 0 0 0 0 0 0 0 0 0 0 0 127 0"/><feOffset dy=".583"/><feGaussianBlur stdDeviation="6.481"/><feColorMatrix values="0 0 0 0 0.266667 0 0 0 0 0.898039 0 0 0 0 0.860157 0 0 0 0.1 0"/><feBlend in2="BackgroundImageFix" result="effect1_dropShadow_191_175"/><feColorMatrix in="SourceAlpha" result="hardAlpha" values="0 0 0 0 0 0 0 0 0 0 0 0 0 0 0 0 0 0 127 0"/><feOffset dy="1.165"/><feGaussianBlur stdDeviation="1.456"/><feColorMatrix values="0 0 0 0 0 0 0 0 0 0 0 0 0 0 0 0 0 0 0.71 0"/><feBlend in2="effect1_dropShadow_191_175" result="effect2_dropShadow_191_175"/><feBlend in="SourceGraphic" in2="effect2_dropShadow_191_175" result="shape"/><feColorMatrix in="SourceAlpha" result="hardAlpha" values="0 0 0 0 0 0 0 0 0 0 0 0 0 0 0 0 0 0 127 0"/><feOffset dy="-.874"/><feGaussianBlur stdDeviation="1.383"/><feComposite in2="hardAlpha" k2="-1" k3="1" operator="arithmetic"/><feColorMatrix values="0 0 0 0 0.0292958 0 0 0 0 0.210704 0 0 0 0 0.104789 0 0 0 0.33 0"/><feBlend in2="shape" result="effect3_innerShadow_191_175"/></filter><filter id="b" width="37.818" height="45.65" x="20.242" y="6.724" color-interpolation-filters="sRGB" filterUnits="userSpaceOnUse"><feFlood flood-opacity="0" result="BackgroundImageFix"/><feColorMatrix in="SourceAlpha" result="hardAlpha" values="0 0 0 0 0 0 0 0 0 0 0 0 0 0 0 0 0 0 127 0"/><feOffset dy=".583"/><feGaussianBlur stdDeviation="6.481"/><feColorMatrix values="0 0 0 0 0.266667 0 0 0 0 0.898039 0 0 0 0 0.860157 0 0 0 0.1 0"/><feBlend in2="BackgroundImageFix" result="effect1_dropShadow_191_175"/><feColorMatrix in="SourceAlpha" result="hardAlpha" values="0 0 0 0 0 0 0 0 0 0 0 0 0 0 0 0 0 0 127 0"/><feOffset dy="1.165"/><feGaussianBlur stdDeviation="1.456"/><feColorMatrix values="0 0 0 0 0 0 0 0 0 0 0 0 0 0 0 0 0 0 0.71 0"/><feBlend in2="effect1_dropShadow_191_175" result="effect2_dropShadow_191_175"/><feBlend in="SourceGraphic" in2="effect2_dropShadow_191_175" result="shape"/><feColorMatrix in="SourceAlpha" result="hardAlpha" values="0 0 0 0 0 0 0 0 0 0 0 0 0 0 0 0 0 0 127 0"/><feOffset dy="-.874"/><feGaussianBlur stdDeviation="1.383"/><feComposite in2="hardAlpha" k2="-1" k3="1" operator="arithmetic"/><feColorMatrix values="0 0 0 0 0.0292958 0 0 0 0 0.210704 0 0 0 0 0.104789 0 0 0 0.33 0"/><feBlend in2="shape" result="effect3_innerShadow_191_175"/></filter></defs></svg>