<svg xmlns="http://www.w3.org/2000/svg" width="63" height="54" fill="none" viewBox="0 0 63 54"><g filter="url(#a)"><path fill="#fff" d="M13 39.15V13.425c0-.175.075-.275.25-.275.425 0 .825 0 1.4-.025s1.225-.025 1.9-.05c.675-.025 1.4-.025 2.175-.05C19.5 13 20.25 13 21 13c2.05 0 3.75.25 5.15.775a8.928 8.928 0 0 1 3.35 2.05 7.96 7.96 0 0 1 1.825 2.85 9.569 9.569 0 0 1 .575 3.25c0 2.15-.5 3.925-1.5 5.325a8.564 8.564 0 0 1-4.025 3.05c-1.7.625-3.575.85-5.625.85-.6 0-1 0-1.25-.025s-.6-.025-1.075-.025v8.025a.31.31 0 0 1-.275.35H13.3c-.2 0-.3-.1-.3-.325Zm5.45-21.175v8.4c.35.025.675.05.975.05h1.325a9.334 9.334 0 0 0 2.875-.45 4.3 4.3 0 0 0 2.05-1.325c.525-.625.775-1.475.775-2.575a4.115 4.115 0 0 0-.575-2.225 3.625 3.625 0 0 0-1.75-1.425 7.334 7.334 0 0 0-2.95-.5c-.65 0-1.225 0-1.7.025a5.726 5.726 0 0 0-1.025.025Z"/></g><g filter="url(#b)"><path fill="#fff" d="M47.5 24.85a8.844 8.844 0 0 0-2.4-.85 13.172 13.172 0 0 0-2.8-.325 5.03 5.03 0 0 0-1.5.175 1.283 1.283 0 0 0-.775.5 1.325 1.325 0 0 0-.2.675c.012.238.1.466.25.65.237.278.526.507.85.675.575.3 1.175.575 1.775.825A18.107 18.107 0 0 1 46.55 29c.821.516 1.5 1.23 1.975 2.075.402.798.6 1.682.575 2.575a5.817 5.817 0 0 1-.975 3.325 6.265 6.265 0 0 1-2.8 2.225c-1.225.525-2.725.8-4.525.8a17.224 17.224 0 0 1-3.4-.325 10.088 10.088 0 0 1-2.55-.8.5.5 0 0 1-.275-.475v-4.35a.273.273 0 0 1 .1-.225.19.19 0 0 1 .225.025c.963.568 2.01.981 3.1 1.225.963.25 1.955.377 2.95.375.95 0 1.625-.125 2.075-.35a1.161 1.161 0 0 0 .675-1.05c0-.35-.2-.675-.6-1-.4-.325-1.225-.7-2.45-1.175a15.295 15.295 0 0 1-3.55-1.8 6.474 6.474 0 0 1-1.9-2.125 5.366 5.366 0 0 1-.575-2.55 5.88 5.88 0 0 1 .85-3.025 6.163 6.163 0 0 1 2.625-2.3c1.175-.6 2.65-.875 4.425-.875 1.038 0 2.074.076 3.1.225.738.1 1.46.293 2.15.575.11.039.2.12.25.225.029.098.046.198.05.3V24.6a.308.308 0 0 1-.125.25.665.665 0 0 1-.45 0Z"/></g><defs><filter id="a" width="44.822" height="52.397" x=".039" y=".621" color-interpolation-filters="sRGB" filterUnits="userSpaceOnUse"><feFlood flood-opacity="0" result="BackgroundImageFix"/><feColorMatrix in="SourceAlpha" result="hardAlpha" values="0 0 0 0 0 0 0 0 0 0 0 0 0 0 0 0 0 0 127 0"/><feOffset dy=".583"/><feGaussianBlur stdDeviation="6.481"/><feColorMatrix values="0 0 0 0 0.266667 0 0 0 0 0.898039 0 0 0 0 0.860157 0 0 0 0.1 0"/><feBlend in2="BackgroundImageFix" result="effect1_dropShadow_181_33"/><feColorMatrix in="SourceAlpha" result="hardAlpha" values="0 0 0 0 0 0 0 0 0 0 0 0 0 0 0 0 0 0 127 0"/><feOffset dy="1.165"/><feGaussianBlur stdDeviation="1.456"/><feColorMatrix values="0 0 0 0 0 0 0 0 0 0 0 0 0 0 0 0 0 0 0.71 0"/><feBlend in2="effect1_dropShadow_181_33" result="effect2_dropShadow_181_33"/><feBlend in="SourceGraphic" in2="effect2_dropShadow_181_33" result="shape"/><feColorMatrix in="SourceAlpha" result="hardAlpha" values="0 0 0 0 0 0 0 0 0 0 0 0 0 0 0 0 0 0 127 0"/><feOffset dy="-.874"/><feGaussianBlur stdDeviation="1.383"/><feComposite in2="hardAlpha" k2="-1" k3="1" operator="arithmetic"/><feColorMatrix values="0 0 0 0 0.0292958 0 0 0 0 0.210704 0 0 0 0 0.104789 0 0 0 0.33 0"/><feBlend in2="shape" result="effect3_innerShadow_181_33"/></filter><filter id="b" width="40.45" height="46.722" x="21.613" y="6.821" color-interpolation-filters="sRGB" filterUnits="userSpaceOnUse"><feFlood flood-opacity="0" result="BackgroundImageFix"/><feColorMatrix in="SourceAlpha" result="hardAlpha" values="0 0 0 0 0 0 0 0 0 0 0 0 0 0 0 0 0 0 127 0"/><feOffset dy=".583"/><feGaussianBlur stdDeviation="6.481"/><feColorMatrix values="0 0 0 0 0.266667 0 0 0 0 0.898039 0 0 0 0 0.860157 0 0 0 0.1 0"/><feBlend in2="BackgroundImageFix" result="effect1_dropShadow_181_33"/><feColorMatrix in="SourceAlpha" result="hardAlpha" values="0 0 0 0 0 0 0 0 0 0 0 0 0 0 0 0 0 0 127 0"/><feOffset dy="1.165"/><feGaussianBlur stdDeviation="1.456"/><feColorMatrix values="0 0 0 0 0 0 0 0 0 0 0 0 0 0 0 0 0 0 0.71 0"/><feBlend in2="effect1_dropShadow_181_33" result="effect2_dropShadow_181_33"/><feBlend in="SourceGraphic" in2="effect2_dropShadow_181_33" result="shape"/><feColorMatrix in="SourceAlpha" result="hardAlpha" values="0 0 0 0 0 0 0 0 0 0 0 0 0 0 0 0 0 0 127 0"/><feOffset dy="-.874"/><feGaussianBlur stdDeviation="1.383"/><feComposite in2="hardAlpha" k2="-1" k3="1" operator="arithmetic"/><feColorMatrix values="0 0 0 0 0.0292958 0 0 0 0 0.210704 0 0 0 0 0.104789 0 0 0 0.33 0"/><feBlend in2="shape" result="effect3_innerShadow_181_33"/></filter></defs></svg>