<svg xmlns="http://www.w3.org/2000/svg" width="61" height="54" fill="none" viewBox="0 0 61 54"><g filter="url(#a)"><path fill="#fff" d="M13 39.15V13.425c0-.175.075-.275.25-.275.425 0 .825 0 1.4-.025s1.225-.025 1.9-.05c.675-.025 1.4-.025 2.175-.05C19.5 13 20.25 13 21 13c2.05 0 3.75.25 5.15.775a8.928 8.928 0 0 1 3.35 2.05 7.96 7.96 0 0 1 1.825 2.85 9.569 9.569 0 0 1 .575 3.25c0 2.15-.5 3.925-1.5 5.325a8.564 8.564 0 0 1-4.025 3.05c-1.7.625-3.575.85-5.625.85-.6 0-1 0-1.25-.025s-.6-.025-1.075-.025v8.025a.31.31 0 0 1-.275.35H13.3c-.2 0-.3-.1-.3-.325Zm5.45-21.175v8.4c.35.025.675.05.975.05h1.325a9.334 9.334 0 0 0 2.875-.45 4.3 4.3 0 0 0 2.05-1.325c.525-.625.775-1.475.775-2.575a4.115 4.115 0 0 0-.575-2.225 3.625 3.625 0 0 0-1.75-1.425 7.334 7.334 0 0 0-2.95-.5c-.65 0-1.225 0-1.7.025a5.726 5.726 0 0 0-1.025.025Z"/></g><g filter="url(#b)"><path fill="#fff" d="M35.808 20.179h4.375a.563.563 0 0 1 .525.4c.076.201.126.411.15.625.05.25.1.525.125.775.025.25.05.575.05.9a9.307 9.307 0 0 1 2.675-2.15 7.75 7.75 0 0 1 3.8-.975.31.31 0 0 1 .35.275v4.975c0 .2-.125.275-.4.275a10.87 10.87 0 0 0-2.7.25c-.723.149-1.427.375-2.1.675a3.887 3.887 0 0 0-1.275.925v12.75c0 .25-.1.35-.325.35h-4.925a.345.345 0 0 1-.4-.3v-13.95c0-.6 0-1.225-.025-1.875-.025-.65-.025-1.3-.05-1.95 0-.575-.05-1.125-.1-1.7a.229.229 0 0 1 .092-.239.229.229 0 0 1 .083-.036c0-.025.05-.025.075 0Z"/></g><defs><filter id="a" width="44.822" height="52.397" x=".039" y=".621" color-interpolation-filters="sRGB" filterUnits="userSpaceOnUse"><feFlood flood-opacity="0" result="BackgroundImageFix"/><feColorMatrix in="SourceAlpha" result="hardAlpha" values="0 0 0 0 0 0 0 0 0 0 0 0 0 0 0 0 0 0 127 0"/><feOffset dy=".583"/><feGaussianBlur stdDeviation="6.481"/><feColorMatrix values="0 0 0 0 0.266667 0 0 0 0 0.898039 0 0 0 0 0.860157 0 0 0 0.1 0"/><feBlend in2="BackgroundImageFix" result="effect1_dropShadow_191_127"/><feColorMatrix in="SourceAlpha" result="hardAlpha" values="0 0 0 0 0 0 0 0 0 0 0 0 0 0 0 0 0 0 127 0"/><feOffset dy="1.165"/><feGaussianBlur stdDeviation="1.456"/><feColorMatrix values="0 0 0 0 0 0 0 0 0 0 0 0 0 0 0 0 0 0 0.71 0"/><feBlend in2="effect1_dropShadow_191_127" result="effect2_dropShadow_191_127"/><feBlend in="SourceGraphic" in2="effect2_dropShadow_191_127" result="shape"/><feColorMatrix in="SourceAlpha" result="hardAlpha" values="0 0 0 0 0 0 0 0 0 0 0 0 0 0 0 0 0 0 127 0"/><feOffset dy="-.874"/><feGaussianBlur stdDeviation="1.383"/><feComposite in2="hardAlpha" k2="-1" k3="1" operator="arithmetic"/><feColorMatrix values="0 0 0 0 0.0292958 0 0 0 0 0.210704 0 0 0 0 0.104789 0 0 0 0.33 0"/><feBlend in2="shape" result="effect3_innerShadow_191_127"/></filter><filter id="b" width="38.228" height="46.405" x="22.591" y="7.372" color-interpolation-filters="sRGB" filterUnits="userSpaceOnUse"><feFlood flood-opacity="0" result="BackgroundImageFix"/><feColorMatrix in="SourceAlpha" result="hardAlpha" values="0 0 0 0 0 0 0 0 0 0 0 0 0 0 0 0 0 0 127 0"/><feOffset dy=".583"/><feGaussianBlur stdDeviation="6.481"/><feColorMatrix values="0 0 0 0 0.266667 0 0 0 0 0.898039 0 0 0 0 0.860157 0 0 0 0.1 0"/><feBlend in2="BackgroundImageFix" result="effect1_dropShadow_191_127"/><feColorMatrix in="SourceAlpha" result="hardAlpha" values="0 0 0 0 0 0 0 0 0 0 0 0 0 0 0 0 0 0 127 0"/><feOffset dy="1.165"/><feGaussianBlur stdDeviation="1.456"/><feColorMatrix values="0 0 0 0 0 0 0 0 0 0 0 0 0 0 0 0 0 0 0.71 0"/><feBlend in2="effect1_dropShadow_191_127" result="effect2_dropShadow_191_127"/><feBlend in="SourceGraphic" in2="effect2_dropShadow_191_127" result="shape"/><feColorMatrix in="SourceAlpha" result="hardAlpha" values="0 0 0 0 0 0 0 0 0 0 0 0 0 0 0 0 0 0 127 0"/><feOffset dy="-.874"/><feGaussianBlur stdDeviation="1.383"/><feComposite in2="hardAlpha" k2="-1" k3="1" operator="arithmetic"/><feColorMatrix values="0 0 0 0 0.0292958 0 0 0 0 0.210704 0 0 0 0 0.104789 0 0 0 0.33 0"/><feBlend in2="shape" result="effect3_innerShadow_191_127"/></filter></defs></svg>