<svg xmlns="http://www.w3.org/2000/svg" width="59" height="56" fill="none" viewBox="0 0 59 56"><g filter="url(#a)"><path fill="#fff" d="M45.789 27.656a3.541 3.541 0 0 1-1.164 2.68 3.587 3.587 0 0 1-.83.565 6.493 6.493 0 0 1 0 1.073c0 5.466-6.425 9.906-14.35 9.906-7.927 0-14.351-4.44-14.351-9.906a6.493 6.493 0 0 1 0-1.073 3.592 3.592 0 0 1-1.233-.923 3.535 3.535 0 0 1-.248-4.304 3.577 3.577 0 0 1 1.119-1.056 3.611 3.611 0 0 1 2.998-.333c.495.163.947.431 1.327.785a17.689 17.689 0 0 1 7.06-2.78c.84-.134 1.688-.208 2.54-.22l1.821-8.467a.749.749 0 0 1 .332-.481.78.78 0 0 1 .579-.104l6.03 1.195a2.472 2.472 0 0 1 3.015-1.048 2.436 2.436 0 0 1 1.52 2.784 2.457 2.457 0 0 1-2.533 1.928 2.452 2.452 0 0 1-2.322-2.176l-5.267-1.098-1.6 7.612a17.656 17.656 0 0 1 9.477 3.001 3.621 3.621 0 0 1 3.837-.732 3.588 3.588 0 0 1 1.594 1.257 3.54 3.54 0 0 1 .649 1.915ZM21.36 31.03a2.468 2.468 0 0 0 2.274 1.506c.996 0 1.893-.595 2.275-1.506.38-.912.17-1.961-.535-2.659a2.477 2.477 0 0 0-2.682-.53 2.44 2.44 0 0 0-1.52 2.255c0 .32.064.637.188.934Zm14.098 5.856a.656.656 0 0 0-.456-1.13.809.809 0 0 0-.488.171 8.081 8.081 0 0 1-2.444 1.18 8.18 8.18 0 0 1-2.7.308 8.118 8.118 0 0 1-5.12-1.537.669.669 0 0 0-.892.044.658.658 0 0 0-.044.883 9.478 9.478 0 0 0 4.46 1.807c.537.07 1.08.094 1.62.072a9.533 9.533 0 0 0 6.08-1.879l-.016.081Zm-.452-4.155a2.486 2.486 0 0 0 1.793-.74 2.435 2.435 0 0 0 .693-1.797c0-.987-.6-1.877-1.519-2.255a2.478 2.478 0 0 0-2.682.53 2.424 2.424 0 0 0-.535 2.658 2.463 2.463 0 0 0 2.275 1.506l-.025.098Z"/></g><defs><filter id="a" width="58.711" height="54.802" x=".039" y=".621" color-interpolation-filters="sRGB" filterUnits="userSpaceOnUse"><feFlood flood-opacity="0" result="BackgroundImageFix"/><feColorMatrix in="SourceAlpha" result="hardAlpha" values="0 0 0 0 0 0 0 0 0 0 0 0 0 0 0 0 0 0 127 0"/><feOffset dy=".583"/><feGaussianBlur stdDeviation="6.481"/><feColorMatrix values="0 0 0 0 0.266667 0 0 0 0 0.898039 0 0 0 0 0.860157 0 0 0 0.1 0"/><feBlend in2="BackgroundImageFix" result="effect1_dropShadow_191_188"/><feColorMatrix in="SourceAlpha" result="hardAlpha" values="0 0 0 0 0 0 0 0 0 0 0 0 0 0 0 0 0 0 127 0"/><feOffset dy="1.165"/><feGaussianBlur stdDeviation="1.456"/><feColorMatrix values="0 0 0 0 0 0 0 0 0 0 0 0 0 0 0 0 0 0 0.71 0"/><feBlend in2="effect1_dropShadow_191_188" result="effect2_dropShadow_191_188"/><feBlend in="SourceGraphic" in2="effect2_dropShadow_191_188" result="shape"/><feColorMatrix in="SourceAlpha" result="hardAlpha" values="0 0 0 0 0 0 0 0 0 0 0 0 0 0 0 0 0 0 127 0"/><feOffset dy="-.874"/><feGaussianBlur stdDeviation="1.383"/><feComposite in2="hardAlpha" k2="-1" k3="1" operator="arithmetic"/><feColorMatrix values="0 0 0 0 0.0292958 0 0 0 0 0.210704 0 0 0 0 0.104789 0 0 0 0.33 0"/><feBlend in2="shape" result="effect3_innerShadow_191_188"/></filter></defs></svg>