<svg xmlns="http://www.w3.org/2000/svg" width="33" height="33" fill="none" viewBox="0 0 33 33"><g filter="url(#a)"><path fill="#fff" d="M6.857 20.56a3.413 3.413 0 0 1-3.414 3.418A3.413 3.413 0 0 1 .028 20.56a3.413 3.413 0 0 1 3.415-3.418h3.414v3.418Zm1.708 0a3.413 3.413 0 0 1 3.415-3.418 3.413 3.413 0 0 1 3.415 3.418v8.545a3.413 3.413 0 0 1-3.415 3.418 3.413 3.413 0 0 1-3.415-3.418V20.56Z"/></g><g filter="url(#b)"><path fill="#fff" d="M11.978 6.836a3.413 3.413 0 0 1-3.415-3.418A3.413 3.413 0 0 1 11.978 0a3.413 3.413 0 0 1 3.415 3.418v3.418h-3.415Zm0 1.735a3.413 3.413 0 0 1 3.415 3.418 3.413 3.413 0 0 1-3.415 3.418H3.415A3.413 3.413 0 0 1 0 11.989 3.413 3.413 0 0 1 3.415 8.57h8.563Z"/></g><g filter="url(#c)"><path fill="#fff" d="M25.665 11.989A3.413 3.413 0 0 1 29.08 8.57a3.413 3.413 0 0 1 3.415 3.418 3.413 3.413 0 0 1-3.415 3.418h-3.415v-3.418Zm-1.707 0a3.413 3.413 0 0 1-3.415 3.418 3.413 3.413 0 0 1-3.415-3.418V3.418A3.413 3.413 0 0 1 20.543 0a3.413 3.413 0 0 1 3.415 3.418v8.57Z"/></g><g filter="url(#d)"><path fill="#fff" d="M20.543 25.687a3.413 3.413 0 0 1 3.415 3.418 3.413 3.413 0 0 1-3.415 3.418 3.413 3.413 0 0 1-3.415-3.418v-3.418h3.415Zm0-1.71a3.413 3.413 0 0 1-3.415-3.417 3.413 3.413 0 0 1 3.415-3.418h8.563a3.413 3.413 0 0 1 3.415 3.418 3.413 3.413 0 0 1-3.415 3.418h-8.563Z"/></g><defs><filter id="a" width="41.289" height="41.303" x="-12.934" y="4.763" color-interpolation-filters="sRGB" filterUnits="userSpaceOnUse"><feFlood flood-opacity="0" result="BackgroundImageFix"/><feColorMatrix in="SourceAlpha" result="hardAlpha" values="0 0 0 0 0 0 0 0 0 0 0 0 0 0 0 0 0 0 127 0"/><feOffset dy=".583"/><feGaussianBlur stdDeviation="6.481"/><feColorMatrix values="0 0 0 0 0.266667 0 0 0 0 0.898039 0 0 0 0 0.860157 0 0 0 0.1 0"/><feBlend in2="BackgroundImageFix" result="effect1_dropShadow_388_1669"/><feColorMatrix in="SourceAlpha" result="hardAlpha" values="0 0 0 0 0 0 0 0 0 0 0 0 0 0 0 0 0 0 127 0"/><feOffset dy="1.165"/><feGaussianBlur stdDeviation="1.456"/><feColorMatrix values="0 0 0 0 0 0 0 0 0 0 0 0 0 0 0 0 0 0 0.71 0"/><feBlend in2="effect1_dropShadow_388_1669" result="effect2_dropShadow_388_1669"/><feBlend in="SourceGraphic" in2="effect2_dropShadow_388_1669" result="shape"/><feColorMatrix in="SourceAlpha" result="hardAlpha" values="0 0 0 0 0 0 0 0 0 0 0 0 0 0 0 0 0 0 127 0"/><feOffset dy="-.874"/><feGaussianBlur stdDeviation="1.383"/><feComposite in2="hardAlpha" k2="-1" k3="1" operator="arithmetic"/><feColorMatrix values="0 0 0 0 0.0292958 0 0 0 0 0.210704 0 0 0 0 0.104789 0 0 0 0.33 0"/><feBlend in2="shape" result="effect3_innerShadow_388_1669"/></filter><filter id="b" width="41.315" height="41.329" x="-12.961" y="-12.379" color-interpolation-filters="sRGB" filterUnits="userSpaceOnUse"><feFlood flood-opacity="0" result="BackgroundImageFix"/><feColorMatrix in="SourceAlpha" result="hardAlpha" values="0 0 0 0 0 0 0 0 0 0 0 0 0 0 0 0 0 0 127 0"/><feOffset dy=".583"/><feGaussianBlur stdDeviation="6.481"/><feColorMatrix values="0 0 0 0 0.266667 0 0 0 0 0.898039 0 0 0 0 0.860157 0 0 0 0.1 0"/><feBlend in2="BackgroundImageFix" result="effect1_dropShadow_388_1669"/><feColorMatrix in="SourceAlpha" result="hardAlpha" values="0 0 0 0 0 0 0 0 0 0 0 0 0 0 0 0 0 0 127 0"/><feOffset dy="1.165"/><feGaussianBlur stdDeviation="1.456"/><feColorMatrix values="0 0 0 0 0 0 0 0 0 0 0 0 0 0 0 0 0 0 0.71 0"/><feBlend in2="effect1_dropShadow_388_1669" result="effect2_dropShadow_388_1669"/><feBlend in="SourceGraphic" in2="effect2_dropShadow_388_1669" result="shape"/><feColorMatrix in="SourceAlpha" result="hardAlpha" values="0 0 0 0 0 0 0 0 0 0 0 0 0 0 0 0 0 0 127 0"/><feOffset dy="-.874"/><feGaussianBlur stdDeviation="1.383"/><feComposite in2="hardAlpha" k2="-1" k3="1" operator="arithmetic"/><feColorMatrix values="0 0 0 0 0.0292958 0 0 0 0 0.210704 0 0 0 0 0.104789 0 0 0 0.33 0"/><feBlend in2="shape" result="effect3_innerShadow_388_1669"/></filter><filter id="c" width="41.289" height="41.329" x="4.167" y="-12.379" color-interpolation-filters="sRGB" filterUnits="userSpaceOnUse"><feFlood flood-opacity="0" result="BackgroundImageFix"/><feColorMatrix in="SourceAlpha" result="hardAlpha" values="0 0 0 0 0 0 0 0 0 0 0 0 0 0 0 0 0 0 127 0"/><feOffset dy=".583"/><feGaussianBlur stdDeviation="6.481"/><feColorMatrix values="0 0 0 0 0.266667 0 0 0 0 0.898039 0 0 0 0 0.860157 0 0 0 0.1 0"/><feBlend in2="BackgroundImageFix" result="effect1_dropShadow_388_1669"/><feColorMatrix in="SourceAlpha" result="hardAlpha" values="0 0 0 0 0 0 0 0 0 0 0 0 0 0 0 0 0 0 127 0"/><feOffset dy="1.165"/><feGaussianBlur stdDeviation="1.456"/><feColorMatrix values="0 0 0 0 0 0 0 0 0 0 0 0 0 0 0 0 0 0 0.71 0"/><feBlend in2="effect1_dropShadow_388_1669" result="effect2_dropShadow_388_1669"/><feBlend in="SourceGraphic" in2="effect2_dropShadow_388_1669" result="shape"/><feColorMatrix in="SourceAlpha" result="hardAlpha" values="0 0 0 0 0 0 0 0 0 0 0 0 0 0 0 0 0 0 127 0"/><feOffset dy="-.874"/><feGaussianBlur stdDeviation="1.383"/><feComposite in2="hardAlpha" k2="-1" k3="1" operator="arithmetic"/><feColorMatrix values="0 0 0 0 0.0292958 0 0 0 0 0.210704 0 0 0 0 0.104789 0 0 0 0.33 0"/><feBlend in2="shape" result="effect3_innerShadow_388_1669"/></filter><filter id="d" width="41.315" height="41.303" x="4.167" y="4.763" color-interpolation-filters="sRGB" filterUnits="userSpaceOnUse"><feFlood flood-opacity="0" result="BackgroundImageFix"/><feColorMatrix in="SourceAlpha" result="hardAlpha" values="0 0 0 0 0 0 0 0 0 0 0 0 0 0 0 0 0 0 127 0"/><feOffset dy=".583"/><feGaussianBlur stdDeviation="6.481"/><feColorMatrix values="0 0 0 0 0.266667 0 0 0 0 0.898039 0 0 0 0 0.860157 0 0 0 0.1 0"/><feBlend in2="BackgroundImageFix" result="effect1_dropShadow_388_1669"/><feColorMatrix in="SourceAlpha" result="hardAlpha" values="0 0 0 0 0 0 0 0 0 0 0 0 0 0 0 0 0 0 127 0"/><feOffset dy="1.165"/><feGaussianBlur stdDeviation="1.456"/><feColorMatrix values="0 0 0 0 0 0 0 0 0 0 0 0 0 0 0 0 0 0 0.71 0"/><feBlend in2="effect1_dropShadow_388_1669" result="effect2_dropShadow_388_1669"/><feBlend in="SourceGraphic" in2="effect2_dropShadow_388_1669" result="shape"/><feColorMatrix in="SourceAlpha" result="hardAlpha" values="0 0 0 0 0 0 0 0 0 0 0 0 0 0 0 0 0 0 127 0"/><feOffset dy="-.874"/><feGaussianBlur stdDeviation="1.383"/><feComposite in2="hardAlpha" k2="-1" k3="1" operator="arithmetic"/><feColorMatrix values="0 0 0 0 0.0292958 0 0 0 0 0.210704 0 0 0 0 0.104789 0 0 0 0.33 0"/><feBlend in2="shape" result="effect3_innerShadow_388_1669"/></filter></defs></svg>