<svg width="57" height="57" viewBox="0 0 57 57" fill="none" xmlns="http://www.w3.org/2000/svg">
<path fill-rule="evenodd" clip-rule="evenodd" d="M12.1897 27.9328C9.14086 33.7125 10.8256 40.8557 16.1358 44.6639C17.3255 45.5172 19.027 44.8464 19.6827 43.5374C21.3949 40.1194 24.7019 37.8036 28.5005 37.8036C32.3812 37.8036 35.7488 40.2206 37.4271 43.7606C37.9384 44.8393 39.3181 45.3596 40.2881 44.6639C45.5983 40.8557 47.283 33.7125 44.2342 27.9329L33.5512 7.68148C31.2864 3.38809 25.1376 3.38807 22.8728 7.68146L12.1897 27.9328ZM31.5188 25.7305C31.5188 27.3975 30.1675 28.7488 28.5005 28.7488C26.8335 28.7488 25.4822 27.3975 25.4822 25.7305C25.4822 24.0635 26.8335 22.7122 28.5005 22.7122C30.1675 22.7122 31.5188 24.0635 31.5188 25.7305ZM28.5005 52.8951C30.7231 52.8951 32.5249 51.0933 32.5249 48.8707C32.5249 46.6481 30.7231 44.8463 28.5005 44.8463C26.2779 44.8463 24.4761 46.6481 24.4761 48.8707C24.4761 51.0933 26.2779 52.8951 28.5005 52.8951Z" fill="white"/>
</svg>
