<svg width="57" height="57" viewBox="0 0 57 57" fill="none" xmlns="http://www.w3.org/2000/svg">
<path fill-rule="evenodd" clip-rule="evenodd" d="M32.5241 7.62132C32.5241 9.28827 31.1727 10.6396 29.5058 10.6396C27.8388 10.6396 26.4875 9.28827 26.4875 7.62132C26.4875 5.95437 27.8388 4.60303 29.5058 4.60303C31.1727 4.60303 32.5241 5.95437 32.5241 7.62132ZM22.4631 13.6579C22.4631 15.3249 21.1117 16.6762 19.4448 16.6762C17.7778 16.6762 16.4265 15.3249 16.4265 13.6579C16.4265 11.9909 17.7778 10.6396 19.4448 10.6396C21.1117 10.6396 22.4631 11.9909 22.4631 13.6579ZM48.1185 34.2584C51.2923 30.9259 51.2923 25.5228 48.1185 22.1903C44.9447 18.8578 39.7988 18.8578 36.6249 22.1903C34.5602 24.3583 32.1135 26.7476 29.1198 26.7381C28.8856 26.7374 28.6504 26.737 28.4142 26.737C28.1389 26.737 27.8651 26.7375 27.5928 26.7385C24.6231 26.7495 22.1949 24.3817 20.1468 22.2313C16.9941 18.9209 11.8824 18.9209 8.72962 22.2313C5.57686 25.5416 5.57686 30.9088 8.72962 34.2191C11.8824 37.5296 16.9941 37.5296 20.1468 34.2191C22.1806 32.0837 24.5948 29.742 27.5438 29.7536C27.8322 29.7548 28.1224 29.7553 28.4142 29.7553C28.6676 29.7553 28.9197 29.7549 29.1706 29.754C32.1429 29.7438 34.5751 32.106 36.6249 34.2584C39.7988 37.5909 44.9447 37.5909 48.1185 34.2584ZM19.4448 40.8225C21.1117 40.8225 22.4631 42.1738 22.4631 43.8408C22.4631 45.5078 21.1117 46.8591 19.4448 46.8591C17.7778 46.8591 16.4265 45.5078 16.4265 43.8408C16.4265 42.1738 17.7778 40.8225 19.4448 40.8225ZM29.5058 46.8591C31.1727 46.8591 32.5241 48.2104 32.5241 49.8774C32.5241 51.5444 31.1727 52.8957 29.5058 52.8957C27.8388 52.8957 26.4875 51.5444 26.4875 49.8774C26.4875 48.2104 27.8388 46.8591 29.5058 46.8591ZM42.5851 13.6579C42.5851 15.3249 41.2337 16.6762 39.5668 16.6762C37.8998 16.6762 36.5485 15.3249 36.5485 13.6579C36.5485 11.9909 37.8998 10.6396 39.5668 10.6396C41.2337 10.6396 42.5851 11.9909 42.5851 13.6579ZM39.5668 40.8225C41.2337 40.8225 42.5851 42.1738 42.5851 43.8408C42.5851 45.5078 41.2337 46.8591 39.5668 46.8591C37.8998 46.8591 36.5485 45.5078 36.5485 43.8408C36.5485 42.1738 37.8998 40.8225 39.5668 40.8225Z" fill="white"/>
</svg>
