<svg width="57" height="57" viewBox="0 0 57 57" fill="none" xmlns="http://www.w3.org/2000/svg">
<path fill-rule="evenodd" clip-rule="evenodd" d="M48.4181 15.8595C48.4181 17.6218 48.0909 19.4679 47.7632 21.317C47.41 23.3099 47.0561 25.3063 47.1106 27.2048C47.1297 27.8708 47.1131 28.5394 47.0608 29.2076C46.8925 31.357 47.3102 33.6784 47.7255 35.9863C48.0727 37.9157 48.4181 39.8358 48.4181 41.6382C48.4181 45.521 45.2705 48.6686 41.3877 48.6686C39.5852 48.6686 37.665 48.323 35.7354 47.9758C33.4275 47.5605 31.1061 47.1428 28.9568 47.311C28.2891 47.3633 27.6209 47.3799 26.9552 47.3608C25.0567 47.3063 23.0603 47.6602 21.0674 48.0135C19.2181 48.3413 17.3718 48.6685 15.6094 48.6685C11.7266 48.6685 8.57898 45.521 8.57898 41.6381C8.57898 39.8757 8.90625 38.0296 9.23406 36.1803C9.58733 34.1874 9.94122 32.191 9.88672 30.2924C9.86761 29.6266 9.88423 28.9583 9.93652 28.2904C10.1048 26.1411 9.68706 23.8197 9.27174 21.5118C8.92451 19.5822 8.57898 17.662 8.57898 15.8595C8.57898 11.9768 11.7266 8.8291 15.6094 8.8291C17.4118 8.8291 19.3321 9.17464 21.2617 9.52186C23.5697 9.93718 25.891 10.3549 28.0404 10.1866C28.7081 10.1344 29.3764 10.1177 30.0421 10.1368C31.9406 10.1913 33.937 9.83744 35.9299 9.48417C37.7791 9.15638 39.6253 8.8291 41.3877 8.8291C45.2705 8.8291 48.4181 11.9768 48.4181 15.8595ZM22.3045 26.1115C23.4831 27.2903 23.4831 29.2014 22.3045 30.3801C21.1258 31.5587 19.2147 31.5587 18.0359 30.3801C16.8572 29.2014 16.8572 27.2903 18.0359 26.1115C19.2147 24.9329 21.1258 24.9329 22.3045 26.1115ZM30.13 38.2056C31.3088 37.027 31.3088 35.1159 30.13 33.9372C28.9514 32.7584 27.0403 32.7584 25.8616 33.9372C24.6828 35.1159 24.6828 37.027 25.8616 38.2056C27.0403 39.3844 28.9514 39.3844 30.13 38.2056ZM30.13 18.286C31.3088 19.4647 31.3088 21.3757 30.13 22.5545C28.9514 23.7332 27.0403 23.7332 25.8616 22.5545C24.6828 21.3757 24.6828 19.4647 25.8616 18.286C27.0403 17.1073 28.9514 17.1073 30.13 18.286ZM37.9556 30.3801C39.1344 29.2014 39.1344 27.2903 37.9556 26.1115C36.7769 24.9329 34.8658 24.9329 33.6872 26.1115C32.5084 27.2903 32.5084 29.2014 33.6872 30.3801C34.8658 31.5587 36.7769 31.5587 37.9556 30.3801Z" fill="white"/>
</svg>
