<svg width="57" height="57" viewBox="0 0 57 57" fill="none" xmlns="http://www.w3.org/2000/svg">
<path fill-rule="evenodd" clip-rule="evenodd" d="M38.1788 11.2076C40.1421 14.3926 42.8554 17.1059 46.0404 19.0692C50.1347 21.593 52.6455 25 52.6455 28.7489C52.6455 32.4978 50.1347 35.9047 46.0404 38.4285C42.8554 40.3918 40.1421 43.1052 38.1788 46.2902C35.655 50.3844 32.248 52.8952 28.4991 52.8952C24.7502 52.8952 21.3433 50.3844 18.8195 46.2902C16.8562 43.1052 14.1428 40.3918 10.9578 38.4285C6.86358 35.9047 4.35278 32.4978 4.35278 28.7489C4.35278 25 6.86358 21.593 10.9578 19.0692C14.1428 17.1059 16.8562 14.3926 18.8195 11.2076C21.3433 7.11334 24.7502 4.60254 28.4991 4.60254C32.248 4.60254 35.655 7.11334 38.1788 11.2076ZM28.4991 33.1086C29.6105 33.1086 30.5113 31.0066 30.5113 28.4135C30.5113 25.8204 29.6105 23.7184 28.4991 23.7184C27.3878 23.7184 26.4869 25.8204 26.4869 28.4135C26.4869 31.0066 27.3878 33.1086 28.4991 33.1086Z" fill="white"/>
</svg>
