<svg width="57" height="57" viewBox="0 0 57 57" fill="none" xmlns="http://www.w3.org/2000/svg">
<path fill-rule="evenodd" clip-rule="evenodd" d="M21.6441 8.80393C21.6441 7.03936 20.2136 5.60889 18.449 5.60889C16.6844 5.60889 15.2539 7.03935 15.2539 8.80392V15.8327L15.2537 22.2229L15.2539 32.257C15.2539 34.4797 13.4522 36.2814 11.2296 36.2814H8.22472C6.46015 36.2814 5.02968 37.7118 5.02968 39.4764C5.02968 41.241 6.46014 42.6715 8.22471 42.6715H31.6777C33.9004 42.6715 35.7021 44.4732 35.7021 46.6959V49.7003C35.7021 51.4649 37.1325 52.8954 38.8971 52.8954C40.6617 52.8954 42.0922 51.4649 42.0922 49.7003V26.2474C42.0922 24.0248 43.8939 22.223 46.1166 22.223H49.1212C50.8857 22.223 52.3162 20.7925 52.3162 19.0279C52.3162 17.2633 50.8858 15.8328 49.1212 15.8328H42.0922H35.7021H25.6685C23.4458 15.8328 21.6441 14.0311 21.6441 11.8085V8.80393ZM24.4326 22.5626C23.0803 22.5626 21.984 23.6589 21.984 25.0112V33.9648C21.984 35.3171 23.0803 36.4134 24.4326 36.4134H26.182C26.3709 34.928 27.6393 33.7796 29.176 33.7796C30.7127 33.7796 31.9811 34.928 32.1701 36.4134H33.3862C34.7385 36.4134 35.8348 35.3171 35.8348 33.9648V25.0112C35.8348 23.6589 34.7385 22.5626 33.3862 22.5626H32.1907C32.1931 22.6122 32.1943 22.6622 32.1943 22.7125C32.1943 24.3795 30.843 25.7308 29.176 25.7308C27.509 25.7308 26.1577 24.3795 26.1577 22.7125C26.1577 22.6622 26.1589 22.6122 26.1613 22.5626H24.4326Z" fill="white"/>
</svg>
