<svg width="57" height="57" viewBox="0 0 57 57" fill="none" xmlns="http://www.w3.org/2000/svg">
<path fill-rule="evenodd" clip-rule="evenodd" d="M31.5175 7.62083C31.5175 9.28778 30.1662 10.6391 28.4992 10.6391C26.8322 10.6391 25.4809 9.28778 25.4809 7.62083C25.4809 5.95388 26.8322 4.60254 28.4992 4.60254C30.1662 4.60254 31.5175 5.95388 31.5175 7.62083ZM18.4382 16.6757C20.1052 16.6757 21.4565 15.3244 21.4565 13.6574C21.4565 11.9904 20.1052 10.6391 18.4382 10.6391C16.7712 10.6391 15.42 11.9904 15.42 13.6574C15.42 15.3244 16.7712 16.6757 18.4382 16.6757ZM28.4992 52.8952C18.4975 52.8952 10.3895 47.2647 10.3895 40.319C10.3895 36.0526 13.4486 32.2825 18.1268 30.0086C20.3239 28.9407 21.4565 25.1552 21.4565 22.7123C21.4565 18.8227 24.6096 15.6696 28.4992 15.6696C32.3888 15.6696 35.5419 18.8227 35.5419 22.7123C35.5419 25.1552 36.6746 28.9407 38.8717 30.0086C43.5498 32.2825 46.609 36.0526 46.609 40.319C46.609 47.2647 38.5009 52.8952 28.4992 52.8952ZM38.5602 16.6757C40.2272 16.6757 41.5785 15.3244 41.5785 13.6574C41.5785 11.9904 40.2272 10.6391 38.5602 10.6391C36.8932 10.6391 35.5419 11.9904 35.5419 13.6574C35.5419 15.3244 36.8932 16.6757 38.5602 16.6757Z" fill="white"/>
</svg>
