<svg width="57" height="57" viewBox="0 0 57 57" fill="none" xmlns="http://www.w3.org/2000/svg">
<path fill-rule="evenodd" clip-rule="evenodd" d="M31.8063 7.62132C31.8063 5.95437 30.455 4.60303 28.788 4.60303C27.1211 4.60303 25.7697 5.95437 25.7697 7.62132C25.7697 9.28827 27.1211 10.6396 28.788 10.6396C30.455 10.6396 31.8063 9.28827 31.8063 7.62132ZM23.9717 44.5581C25.8207 44.5581 26.4928 42.3563 25.3443 40.9073C22.1783 36.9126 20.4504 32.5973 20.4504 28.0953C20.4504 23.6626 22.1254 19.411 25.1988 15.4684C26.1658 14.2279 25.5445 12.363 23.9717 12.363C14.2478 12.363 6.36499 19.57 6.36499 28.4605C6.36499 37.3509 14.2478 44.5581 23.9717 44.5581ZM33.456 44.5581C31.607 44.5581 30.9349 42.3563 32.0834 40.9073C35.2492 36.9126 36.9773 32.5973 36.9773 28.0953C36.9773 23.6626 35.3022 19.4111 32.2288 15.4684C31.2619 14.2279 31.8831 12.363 33.456 12.363C43.1798 12.363 51.0627 19.57 51.0627 28.4605C51.0627 37.3509 43.1798 44.5581 33.456 44.5581ZM28.788 46.8591C30.455 46.8591 31.8063 48.2104 31.8063 49.8774C31.8063 51.5444 30.455 52.8957 28.788 52.8957C27.1211 52.8957 25.7697 51.5444 25.7697 49.8774C25.7697 48.2104 27.1211 46.8591 28.788 46.8591Z" fill="white"/>
</svg>
