<svg width="57" height="57" viewBox="0 0 57 57" fill="none" xmlns="http://www.w3.org/2000/svg">
<path fill-rule="evenodd" clip-rule="evenodd" d="M31.6091 5.95588C32.2443 6.62286 32.8792 7.49706 33.5389 8.40558C34.9485 10.3468 36.4719 12.4446 38.3562 13.0127C43.9046 14.6856 47.6151 17.7279 47.6151 21.2036C47.6151 24.6794 43.9045 27.7218 38.356 29.3946C36.4717 29.9627 34.9483 32.0604 33.5388 34.0015C32.8791 34.9099 32.2443 35.784 31.6091 36.4509C29.8905 38.2553 27.1043 38.2553 25.3856 36.4509C24.7503 35.7838 24.1154 34.9095 23.4556 34.0007C22.0461 32.0596 20.5229 29.9619 18.6388 29.3935C13.0922 27.7205 9.38336 24.6787 9.38336 21.2036C9.38336 17.7287 13.0921 14.6869 18.6386 13.0139C20.5227 12.4455 22.0459 10.3476 23.4554 8.40632C24.1153 7.49751 24.7503 6.62302 25.3856 5.95588C27.1043 4.15143 29.8905 4.15143 31.6091 5.95588ZM30.5114 25.3955C30.5114 27.9885 29.6105 30.0906 28.4992 30.0906C27.3879 30.0906 26.487 27.9885 26.487 25.3955C26.487 22.8024 27.3879 20.7003 28.4992 20.7003C29.6105 20.7003 30.5114 22.8024 30.5114 25.3955ZM15.4199 47.3619C15.4199 44.6748 19.9468 42.4352 25.95 41.9334C25.5028 43.0254 25.7224 44.3264 26.6091 45.2131C27.7878 46.3917 29.6989 46.3917 30.8776 45.2131C31.7516 44.3391 31.9775 43.0625 31.5554 41.9802C37.3047 42.5625 41.5785 44.751 41.5785 47.3619C41.5785 50.4179 35.7227 52.8955 28.4992 52.8955C21.2757 52.8955 15.4199 50.4179 15.4199 47.3619Z" fill="white"/>
</svg>
