<svg width="57" height="57" viewBox="0 0 57 57" fill="none" xmlns="http://www.w3.org/2000/svg">
<path d="M43.2795 30.2177C42.9097 29.818 42.7044 29.2934 42.7044 28.7488C42.7044 28.2042 42.9097 27.6796 43.2795 27.2799C44.2538 26.5144 45.0546 25.5512 45.6293 24.4536C46.204 23.3559 46.5393 22.149 46.6133 20.9122C46.6872 19.6755 46.4982 18.4371 46.0584 17.2789C45.6186 16.1206 44.9383 15.0687 44.0623 14.1927C43.1862 13.3166 42.1343 12.6362 40.976 12.1965C39.8178 11.7567 38.5794 11.5677 37.3427 11.6416C36.1059 11.7156 34.899 12.0509 33.8013 12.6256C32.7037 13.2003 31.7404 14.0011 30.975 14.9753C30.5753 15.3452 30.0507 15.5505 29.5061 15.5505C28.9615 15.5505 28.437 15.3452 28.0372 14.9753C27.2717 14.0011 26.3085 13.2003 25.2108 12.6256C24.1133 12.0509 22.9063 11.7156 21.6696 11.6416C20.4328 11.5677 19.1945 11.7567 18.0362 12.1965C16.8778 12.6362 15.826 13.3166 14.95 14.1927C14.0738 15.0687 13.3935 16.1206 12.9538 17.2789C12.5141 18.4371 12.3249 19.6755 12.3989 20.9122C12.4728 22.149 12.8083 23.3559 13.3829 24.4536C13.9575 25.5512 14.7584 26.5144 15.7326 27.2799C16.1024 27.6796 16.3079 28.2042 16.3079 28.7488C16.3079 29.2934 16.1024 29.818 15.7326 30.2177C14.7584 30.9831 13.9575 31.9464 13.3829 33.044C12.8083 34.1416 12.4728 35.3486 12.3989 36.5854C12.3249 37.8221 12.5141 39.0605 12.9538 40.2187C13.3935 41.377 14.0738 42.4289 14.95 43.3049C15.826 44.181 16.8778 44.8613 18.0362 45.3011C19.1945 45.7408 20.4328 45.9299 21.6696 45.856C22.9063 45.782 24.1133 45.4467 25.2108 44.872C26.3085 44.2973 27.2717 43.4965 28.0372 42.5223C28.437 42.1524 28.9615 41.9471 29.5061 41.9471C30.0507 41.9471 30.5753 42.1524 30.975 42.5223C31.7404 43.4965 32.7037 44.2973 33.8013 44.872C34.899 45.4467 36.1059 45.782 37.3427 45.856C38.5794 45.9299 39.8178 45.7408 40.976 45.3011C42.1343 44.8613 43.1862 44.181 44.0623 43.3049C44.9383 42.4289 45.6186 41.377 46.0584 40.2187C46.4982 39.0605 46.6872 37.8221 46.6133 36.5854C46.5393 35.3486 46.204 34.1416 45.6293 33.044C45.0546 31.9464 44.2538 30.9831 43.2795 30.2177ZM35.5427 31.7671C35.5427 32.5676 35.2246 33.3353 34.6586 33.9013C34.0926 34.4673 33.3249 34.7854 32.5244 34.7854C32.5244 33.9849 32.2063 33.2172 31.6403 32.6511C31.0743 32.0851 30.3066 31.7671 29.5061 31.7671C28.7056 31.7671 27.9379 32.0851 27.3718 32.6511C26.8058 33.2172 26.4878 33.9849 26.4878 34.7854C25.6873 34.7854 24.9196 34.4673 24.3535 33.9013C23.7875 33.3353 23.4695 32.5676 23.4695 31.7671V25.7305C23.4695 24.93 23.7875 24.1623 24.3535 23.5963C24.9196 23.0302 25.6873 22.7122 26.4878 22.7122H32.5244C33.3249 22.7122 34.0926 23.0302 34.6586 23.5963C35.2246 24.1623 35.5427 24.93 35.5427 25.7305V31.7671Z" fill="white"/>
<path d="M29.5053 10.6391C31.1723 10.6391 32.5236 9.28778 32.5236 7.62083C32.5236 5.95388 31.1723 4.60254 29.5053 4.60254C27.8383 4.60254 26.487 5.95388 26.487 7.62083C26.487 9.28778 27.8383 10.6391 29.5053 10.6391Z" fill="white"/>
<path d="M29.5053 52.895C31.1723 52.895 32.5236 51.5437 32.5236 49.8767C32.5236 48.2097 31.1723 46.8584 29.5053 46.8584C27.8383 46.8584 26.487 48.2097 26.487 49.8767C26.487 51.5437 27.8383 52.895 29.5053 52.895Z" fill="white"/>
</svg>
