<svg width="57" height="58" viewBox="0 0 57 58" fill="none" xmlns="http://www.w3.org/2000/svg">
<path fill-rule="evenodd" clip-rule="evenodd" d="M46.0825 10.9704C46.0825 9.78743 44.5767 9.47581 43.8527 10.4113C40.7254 14.452 36.5023 17.2677 31.7464 18.1869C31.8124 17.9387 31.8476 17.6779 31.8476 17.409C31.8476 15.742 30.4963 14.3907 28.8293 14.3907C27.1623 14.3907 25.811 15.742 25.811 17.409C25.811 17.7388 25.8639 18.0562 25.9616 18.3532C20.798 17.6605 16.1983 14.7448 12.8509 10.4271C12.1583 9.5338 10.7195 9.84008 10.7195 10.9704C10.7195 20.7357 18.6358 28.6519 28.401 28.6519C38.1662 28.6519 46.0825 20.7357 46.0825 10.9704ZM43.8527 25.0145C44.5767 24.0789 46.0825 24.3905 46.0825 25.5736C46.0825 33.2481 41.193 39.7806 34.3594 42.226C32.4792 42.8988 30.9908 44.5467 30.9908 46.5436V50.6102C30.9908 51.9994 29.8647 53.1255 28.4756 53.1255C27.0864 53.1255 25.9603 51.9994 25.9603 50.6102V46.5949C25.9603 44.585 24.4533 42.9304 22.5563 42.2663C15.6632 39.8528 10.7195 33.2906 10.7195 25.5736C10.7195 24.4433 12.1583 24.137 12.8509 25.0303C16.7056 30.0023 22.2209 33.1153 28.3457 33.1153C34.4769 33.1153 39.9974 29.9957 43.8527 25.0145Z" fill="white"/>
</svg>
