<svg width="57" height="57" viewBox="0 0 57 57" fill="none" xmlns="http://www.w3.org/2000/svg">
<path fill-rule="evenodd" clip-rule="evenodd" d="M19.7497 27.236C20.7437 27.6961 20.7437 29.801 19.7497 30.2611C15.6014 32.1816 12.9047 35.2951 12.9047 38.8095C12.9047 44.6439 20.337 49.3735 29.5053 49.3735C38.6735 49.3735 46.1059 44.6439 46.1059 38.8095C46.1059 35.2951 43.4091 32.1816 39.2608 30.2611C38.2669 29.801 38.2669 27.6961 39.2608 27.236C43.4091 25.3154 46.1059 22.202 46.1059 18.6876C46.1059 12.8532 38.6735 8.12354 29.5053 8.12354C20.337 8.12354 12.9047 12.8532 12.9047 18.6876C12.9047 22.202 15.6014 25.3154 19.7497 27.236Z" fill="white"/>
<path d="M11.8985 28.2459C11.8985 26.5789 10.5472 25.2276 8.88023 25.2276C7.21327 25.2276 5.86194 26.5789 5.86194 28.2459C5.86194 29.9128 7.21327 31.2642 8.88023 31.2642C10.5472 31.2642 11.8985 29.9128 11.8985 28.2459Z" fill="white"/>
<path d="M52.1424 28.2459C52.1424 26.5789 50.7911 25.2276 49.1241 25.2276C47.4572 25.2276 46.1058 26.5789 46.1058 28.2459C46.1058 29.9128 47.4572 31.2642 49.1241 31.2642C50.7911 31.2642 52.1424 29.9128 52.1424 28.2459Z" fill="white"/>
</svg>
