<svg width="55" height="56" viewBox="0 0 55 56" fill="none" xmlns="http://www.w3.org/2000/svg">
<path d="M48.3112 27.7459C46.8232 26.7665 45.1887 26.0304 43.4692 25.5655C41.5165 24.9877 39.5239 24.5544 37.5076 24.2691C36.7113 24.6706 35.8875 25.0152 35.0424 25.3003C34.2799 25.6051 33.6049 26.0944 33.0781 26.7244C36.3196 26.9392 39.5293 27.4956 42.654 28.3842C44.0654 28.7538 45.4084 29.3473 46.6317 30.1423C46.7559 30.2291 46.874 30.3243 46.9853 30.4271C46.874 30.5299 46.7559 30.6251 46.6317 30.7119C45.4084 31.5069 44.0654 32.1004 42.654 32.47C38.9941 33.4979 35.2266 34.0945 31.4281 34.2476C30.8282 33.8054 30.3388 33.2304 29.998 32.5677C29.6573 31.9049 29.4745 31.1723 29.4639 30.4271C29.5384 28.9113 30.045 27.4485 30.9238 26.2112C31.8026 24.9739 33.0169 24.0137 34.4237 23.4441C39.0692 21.8726 42.2317 18.7691 42.2317 15.2039C42.2317 10.0476 35.6317 5.87354 27.4996 5.87354C19.3674 5.87354 12.7674 10.0476 12.7674 15.2039C12.7674 18.7691 15.9299 21.8726 20.6246 23.4441C22.0221 24.0211 23.2262 24.9844 24.0959 26.2211C24.9656 27.4579 25.465 28.9168 25.5353 30.4271C25.5247 31.1723 25.3418 31.9049 25.0011 32.5677C24.6603 33.2304 24.1709 33.8054 23.571 34.2476C19.7956 34.0892 16.0515 33.4927 12.4139 32.47C11.0195 32.0955 9.69353 31.5022 8.48528 30.7119C8.36114 30.6251 8.243 30.5299 8.13171 30.4271C8.243 30.3243 8.36114 30.2291 8.48528 30.1423C9.69353 29.3521 11.0195 28.7587 12.4139 28.3842C15.5385 27.4956 18.7483 26.9392 21.9897 26.7244C21.463 26.0944 20.788 25.6051 20.0255 25.3003C19.1836 25.0152 18.3631 24.6706 17.5701 24.2691C15.5505 24.5544 13.5547 24.9877 11.5987 25.5655C9.87914 26.0304 8.24461 26.7665 6.75671 27.7459C6.25455 28.0095 5.82407 28.3913 5.50239 28.8584C5.18072 29.3256 4.97751 29.8639 4.91028 30.4271C4.9694 30.9827 5.16192 31.5157 5.47145 31.9809C5.78097 32.446 6.19832 32.8294 6.68796 33.0985C8.16979 34.1027 9.80515 34.8589 11.5299 35.3378C13.546 35.9107 15.6007 36.3373 17.6781 36.6146C18.6603 36.7619 19.8192 36.8798 20.9585 36.978C21.5871 37.0369 22.2255 37.086 22.9228 37.1253H23.8165L25.1326 37.1842C25.9281 37.1842 26.7433 37.1842 27.5585 37.1842C28.3737 37.1842 29.179 37.1842 29.9844 37.1842L31.3005 37.1253H32.1942C32.8522 37.1253 33.4906 37.0369 34.1585 36.978C35.2978 36.8798 36.4076 36.7619 37.4389 36.6146H37.3897C39.444 36.3341 41.4757 35.9075 43.4692 35.3378C45.1887 34.8729 46.8232 34.1369 48.3112 33.1575C48.8069 32.8809 49.2277 32.4877 49.5375 32.012C49.8472 31.5363 50.0364 30.9923 50.0889 30.4271C50.0288 29.8705 49.8361 29.3364 49.5267 28.8699C49.2174 28.4033 48.8005 28.0178 48.3112 27.7459Z" fill="white"/>
<path d="M39.6985 38.2842C35.6688 38.966 31.5872 39.2946 27.5003 39.2663C23.4134 39.2946 19.3318 38.966 15.3021 38.2842C14.5538 38.8745 13.9405 39.6181 13.5034 40.4651C13.0664 41.3122 12.8157 42.2429 12.7682 43.1949C12.7682 48.1056 19.3682 52.0342 27.5003 52.0342C35.6325 52.0342 42.2325 48.1056 42.2325 43.1949C42.1849 42.2429 41.9343 41.3122 41.4972 40.4651C41.0602 39.6181 40.4468 38.8745 39.6985 38.2842Z" fill="white"/>
</svg>
