<svg width="57" height="57" viewBox="0 0 57 57" fill="none" xmlns="http://www.w3.org/2000/svg">
<path d="M28.4992 18.688C29.2894 18.6878 30.0481 18.9975 30.6124 19.5506C31.1767 20.1036 31.5017 20.8559 31.5175 21.6459C40.6428 21.3038 47.615 19.4325 47.615 17.1788C47.615 14.6837 39.0531 12.6514 28.4992 12.6514C17.9452 12.6514 9.38333 14.6636 9.38333 17.1788C9.38333 19.4325 16.3656 21.3038 25.4809 21.6459C25.4967 20.8559 25.8217 20.1036 26.386 19.5506C26.9503 18.9975 27.709 18.6878 28.4992 18.688Z" fill="white"/>
<path d="M28.4992 9.63303C34.0557 9.63303 38.5602 8.50691 38.5602 7.11778C38.5602 5.72865 34.0557 4.60254 28.4992 4.60254C22.9427 4.60254 18.4382 5.72865 18.4382 7.11778C18.4382 8.50691 22.9427 9.63303 28.4992 9.63303Z" fill="white"/>
<path d="M28.4992 24.7241C15.1684 24.7241 4.35284 29.2314 4.35284 34.7851C4.35284 37.5619 7.04919 40.0671 11.3955 41.8881C15.7419 43.7092 19.1525 47.8644 22.855 50.8827C24.4426 52.1963 26.4386 52.915 28.4992 52.915C30.5598 52.915 32.5558 52.1963 34.1434 50.8827C37.8458 47.8644 41.1861 43.7494 45.5928 41.9083C49.9995 40.0671 52.6355 37.582 52.6355 34.8052C52.6455 29.2314 41.83 24.7241 28.4992 24.7241ZM28.4992 40.8217C27.9023 40.8217 27.3186 40.6447 26.8223 40.313C26.3259 39.9814 25.9391 39.5099 25.7107 38.9585C25.4822 38.4069 25.4224 37.8001 25.5388 37.2145C25.6553 36.6291 25.9428 36.0912 26.365 35.6692C26.787 35.247 27.3249 34.9596 27.9103 34.843C28.4959 34.7266 29.1027 34.7864 29.6543 35.0149C30.2057 35.2433 30.6772 35.6301 31.0088 36.1265C31.3405 36.6228 31.5175 37.2065 31.5175 37.8034C31.5175 38.6038 31.1995 39.3716 30.6334 39.9376C30.0674 40.5037 29.2996 40.8217 28.4992 40.8217Z" fill="white"/>
</svg>
