<svg width="72" height="49" viewBox="0 0 72 49" fill="none" xmlns="http://www.w3.org/2000/svg">
<path fill-rule="evenodd" clipRule="evenodd" d="M37.4081 2.97874C34.3172 4.75535 32.1587 6.02863 32.1627 6.07312C32.1664 6.11464 35.461 11.8723 39.4839 18.868L46.7984 31.5874L53.8811 31.5883L60.9639 31.5891L60.6933 31.128C60.5445 30.8744 56.4419 23.776 51.5764 15.3538C46.7109 6.93155 42.7144 0.0224589 42.6952 0.000271548C42.676 -0.0219158 40.2968 1.31838 37.4081 2.97874ZM25.2923 14.1104C21.4074 16.3539 20.0558 17.1604 20.0739 17.224C20.0873 17.2712 21.9625 20.5279 24.2409 24.461L28.3835 31.6122V33.1096V34.607H29.8924H31.4014V33.0981V31.5891H36.9063C39.934 31.5891 42.4112 31.5796 42.4112 31.568C42.4112 31.5152 30.6131 11.105 30.5765 11.0944C30.5538 11.0879 28.1759 12.4451 25.2923 14.1104ZM12.9374 24.9398C10.0825 26.5945 7.72379 27.9713 7.69584 27.9992C7.66527 28.0298 8.0509 28.7568 8.66147 29.8196L9.67789 31.5891H16.7339H23.7899L21.0124 26.7726C19.4848 24.1236 18.2109 21.9506 18.1815 21.9437C18.1522 21.9369 15.7923 23.2851 12.9374 24.9398ZM23.8566 34.1375V36.6858L23.675 36.5642C23.3431 36.3419 22.6047 36.0134 22.1234 35.8739C19.0074 34.971 15.6788 36.5232 14.4419 39.456C14.0753 40.3251 13.993 40.7761 13.996 41.9003C13.9983 42.8082 14.013 42.9596 14.1464 43.4527C14.3163 44.0811 14.6816 44.8856 15.0296 45.3981C15.5608 46.1803 16.4708 46.9966 17.3253 47.4573C19.1922 48.464 21.6331 48.4235 23.454 47.3555L23.8287 47.1358L23.8451 47.522L23.8615 47.9082H25.368H26.8745V39.7487V31.5891H25.3656H23.8566V34.1375ZM42.523 34.1331V36.6771L42.2296 36.5053C40.7409 35.6335 38.9769 35.3954 37.2647 35.8354C35.5502 36.276 33.9951 37.5546 33.2193 39.1619C32.7977 40.035 32.6182 40.8302 32.6136 41.8445C32.609 42.8492 32.7736 43.636 33.1673 44.4926C34.0523 46.4173 35.927 47.8326 37.9911 48.1344C38.6281 48.2276 39.8433 48.1734 40.438 48.0254C41.0025 47.8849 41.7152 47.599 42.1597 47.3346L42.4951 47.1352L42.5115 47.5217L42.5279 47.9082H44.0065H45.4851V39.7487V31.5891H44.004H42.523V34.1331ZM5.46303 35.6727C3.33472 35.9855 1.59299 37.2306 0.64318 39.1181C-0.165847 40.7258 -0.214525 42.6995 0.513465 44.3795C1.1408 45.8271 2.48618 47.1428 3.93311 47.7238C4.87045 48.1001 5.1623 48.1522 6.33588 48.1526C7.3148 48.153 7.44139 48.1412 7.95661 48.0021C8.29663 47.9104 8.79454 47.712 9.22805 47.4954L9.94062 47.1396V47.5239V47.9082H11.4216H12.9027V41.8165V35.7248H11.4216H9.94062V36.1982V36.6716L9.36777 36.3707C8.69466 36.0172 8.05006 35.8047 7.31413 35.6938C6.74184 35.6075 5.96713 35.5987 5.46303 35.6727ZM51.8003 35.6944C50.8334 35.854 49.8262 36.2759 49.0653 36.84C48.1946 37.4854 47.3877 38.5042 46.9894 39.4609C46.6452 40.2879 46.5335 40.856 46.5264 41.8165C46.5225 42.3396 46.5486 42.8156 46.5922 43.0181C47.1316 45.5213 48.865 47.3536 51.334 48.0303C51.7028 48.1314 51.9321 48.1511 52.7784 48.1551C53.6517 48.1591 53.8503 48.1429 54.2846 48.0324C54.8854 47.8794 55.5629 47.6071 56.0198 47.335L56.3552 47.1352L56.3716 47.5217L56.388 47.9082H57.8945H59.401V41.8165V35.7248H57.8943H56.3875L56.3713 36.1934L56.3552 36.6621L55.9407 36.4189C55.4517 36.1321 54.7828 35.8803 54.1694 35.7522C53.5598 35.625 52.3932 35.5965 51.8003 35.6944ZM64.906 35.6713C62.4371 35.9961 60.8517 37.4929 60.855 39.4961C60.8565 40.4698 61.1624 41.2422 61.7984 41.8782C62.5237 42.6035 63.3531 42.8956 65.9035 43.3239C67.66 43.6189 68.0429 43.7885 68.2296 44.3544C68.3753 44.7957 68.0348 45.3609 67.4403 45.6645C66.4672 46.1614 64.9133 45.9447 64.2328 45.2172C63.9499 44.9148 63.8212 44.6545 63.767 44.2756L63.731 44.0241L62.1528 44.0092L60.5747 43.9944V44.1527C60.5747 44.4374 60.693 44.9671 60.8392 45.3374C61.3863 46.7224 62.6007 47.6465 64.403 48.0494C64.9496 48.1716 66.5019 48.2186 67.2227 48.1348C69.173 47.9081 70.5138 47.1307 71.1322 45.8684C71.4161 45.2887 71.4978 44.8869 71.496 44.08C71.4945 43.4284 71.479 43.3145 71.3461 42.9756C71.0871 42.3155 70.6738 41.8251 70.0098 41.3902C69.2954 40.9222 68.5117 40.6837 66.6385 40.3643C65.1264 40.1065 64.594 39.9443 64.2408 39.6342C63.8527 39.2935 63.8593 38.7982 64.2572 38.4003C64.5791 38.0784 64.9532 37.9882 65.9678 37.9882C66.7245 37.9882 66.8333 38.0007 67.0856 38.1168C67.6135 38.3598 67.8754 38.7124 67.9451 39.2736L67.9798 39.5531L69.5027 39.5679L71.0256 39.5828L71.0248 39.4282C71.0219 38.8801 70.6032 37.8805 70.138 37.3108C69.4286 36.4422 68.2157 35.8502 66.7796 35.6718C66.246 35.6056 65.4076 35.6053 64.906 35.6713ZM28.3835 41.8156V47.9082H29.8927H31.4019L31.3877 41.8305L31.3735 35.7527L29.8785 35.7379L28.3835 35.7229V41.8156ZM7.23231 38.4917C8.41674 38.7915 9.44596 39.7966 9.80716 41.0061C9.96057 41.5198 9.93928 42.3395 9.75804 42.8942C9.26813 44.3942 7.76492 45.4153 6.18817 45.319C4.45286 45.2131 3.0265 43.8067 2.91473 42.0913C2.81027 40.4884 3.8998 38.979 5.49757 38.5131C5.92511 38.3884 6.78259 38.3779 7.23231 38.4917ZM21.1984 38.4926C22.126 38.7343 23.0135 39.4407 23.4519 40.2865C23.7675 40.8954 23.8732 41.3685 23.8437 42.0401C23.7918 43.2228 23.192 44.1956 22.1115 44.8502C20.7701 45.6628 19.0251 45.4266 17.8755 44.2768C17.1722 43.5733 16.8498 42.8026 16.858 41.8445C16.8713 40.3001 17.9145 38.9697 19.4694 38.5137C19.899 38.3877 20.7555 38.3773 21.1984 38.4926ZM39.8147 38.4917C40.6114 38.6933 41.4767 39.3124 41.9437 40.0146C42.4196 40.7302 42.6186 41.726 42.447 42.5324C42.3033 43.2072 42.0183 43.7225 41.4957 44.2522C40.9706 44.7844 40.4057 45.0986 39.6856 45.2587C38.0515 45.6223 36.2941 44.6155 35.7235 42.9889C35.5314 42.4415 35.4872 41.6733 35.6161 41.1248C35.9094 39.8769 36.9261 38.8303 38.1699 38.4957C38.5686 38.3885 39.3991 38.3865 39.8147 38.4917ZM54.0279 38.5757C55.6287 39.1409 56.6484 40.9168 56.3059 42.543C55.9008 44.4659 53.9703 45.702 52.1138 45.2272C50.8714 44.9094 49.855 43.9173 49.5357 42.7107C49.4298 42.3105 49.4307 41.4814 49.5374 41.0598C49.8446 39.8464 50.8433 38.8402 52.0859 38.4925C52.5343 38.367 53.5614 38.411 54.0279 38.5757Z" fill="white"/>
</svg>
