<svg width="63" height="64" viewBox="0 0 63 64" fill="none" xmlns="http://www.w3.org/2000/svg">
<path fill-rule="evenodd" clipRule="evenodd" d="M30.3767 0.00663539C28.3166 0.111532 27.0238 0.26389 25.3135 0.603357C18.0552 2.04402 11.5343 6.01928 6.87461 11.8442C3.03087 16.649 0.692702 22.4345 0.122389 28.5515C0.024295 29.6037 -0.000574804 30.2073 1.00056e-05 31.5217C0.000717934 33.1413 0.0593529 34.1076 0.244676 35.5539C0.679252 38.9453 1.66112 42.2257 3.16509 45.311C6.58796 52.3326 12.5601 57.8816 19.8168 60.783C25.5008 63.0556 31.8211 63.6142 37.8562 62.3776C44.0961 61.0989 49.7626 57.9699 54.2165 53.3436C59.1675 48.2008 62.2236 41.538 62.8775 34.4612C62.9775 33.3787 63 32.836 63 31.5064C63 30.1767 62.9775 29.634 62.8775 28.5515C62.5696 25.2192 61.7032 21.8819 60.3406 18.779C60.0476 18.112 59.3647 16.7485 58.9993 16.1012C54.8912 8.82302 48.145 3.48265 40.18 1.20368C38.0063 0.58175 35.8737 0.215413 33.4547 0.0484031C32.9895 0.0163001 30.7769 -0.0137099 30.3767 0.00663539ZM33.1469 2.08142C37.243 2.31965 41.0523 3.3319 44.6779 5.14567C47.6972 6.65611 50.3674 8.62357 52.7381 11.0846C57.2455 15.7639 60.076 21.789 60.7846 28.2129C60.9253 29.489 60.9408 29.8143 60.9408 31.5064C60.9408 33.1985 60.9253 33.5237 60.7846 34.7998C60.0797 41.1901 57.2524 47.231 52.7964 51.8676C50.3838 54.3778 47.7249 56.3428 44.6779 57.867C41.2555 59.5791 37.7903 60.5449 33.8394 60.8876C33.0768 60.9538 30.7706 60.9815 29.9304 60.9346C25.8838 60.7088 22.1428 59.7367 18.5574 57.9795C15.3959 56.4299 12.674 54.4387 10.2022 51.867C5.878 47.3681 3.0686 41.5036 2.27674 35.323C2.10249 33.9631 2.04451 33.01 2.04451 31.5064C2.04451 30.3396 2.06765 29.7649 2.15294 28.8132C2.81236 21.4552 6.26348 14.5791 11.8013 9.58955C16.0958 5.72017 21.5433 3.16138 27.2218 2.34612C28.1146 2.21796 29.2116 2.10934 29.992 2.07185C30.4987 2.04753 32.6777 2.05412 33.1469 2.08142ZM28.8839 3.91532C28.8416 3.92025 28.5854 3.9401 28.3145 3.95946C27.8128 3.99529 26.9705 4.07621 26.958 4.08975C26.9468 4.10191 26.6678 11.7254 26.6782 11.7358C26.6834 11.741 26.9152 11.7115 27.1933 11.6702C27.4714 11.6289 27.8775 11.5747 28.0958 11.5498C28.314 11.5249 28.5015 11.4901 28.5123 11.4726C28.5309 11.4425 28.7016 6.76329 28.7022 6.26718L28.7025 6.03634L28.7754 6.23274C28.8155 6.34074 29.2269 7.2721 29.6895 8.30238L30.5306 10.1757L31.3309 10.175L32.1312 10.1744L32.993 8.25064C33.467 7.19257 33.8777 6.26152 33.9056 6.18161L33.9563 6.03634L33.9576 6.34413C33.9589 6.66953 34.1217 11.4785 34.1319 11.4924C34.1351 11.4969 34.3234 11.5218 34.5503 11.5479C34.7773 11.5739 35.1904 11.629 35.4685 11.6702C35.7466 11.7115 35.9774 11.7419 35.9814 11.7379C35.9897 11.7295 35.7118 4.10117 35.7028 4.08975C35.6732 4.05226 33.5706 3.88965 33.29 3.90313L33.0945 3.91255L32.2503 5.99017C31.786 7.13285 31.3883 8.14396 31.3664 8.23707L31.3267 8.40635L31.2911 8.24676C31.2633 8.12251 30.2509 5.58052 29.6475 4.12031L29.5553 3.89716L29.2581 3.90178C29.0947 3.9043 28.9263 3.91043 28.8839 3.91532ZM45.1123 11.7726C44.0093 13.4971 43.1027 14.921 43.0977 14.937C43.0927 14.9529 43.2625 15.1057 43.4749 15.2766C43.6874 15.4474 44.045 15.7487 44.2697 15.9461C44.4943 16.1435 44.6948 16.3007 44.7152 16.2954C44.7985 16.274 48.514 14.3457 48.6133 14.2723L48.7208 14.1929L48.6611 14.2852C48.5131 14.514 46.6128 18.1438 46.6131 18.197C46.6132 18.2124 46.7187 18.3427 46.8475 18.4866C47.1029 18.7718 47.5518 19.3049 47.8129 19.633L47.978 19.8406L48.0727 19.7841C48.3057 19.645 54.2953 15.8628 54.3191 15.8397C54.3696 15.7908 53.1915 14.3469 53.1227 14.3734C53.0562 14.3989 49.1295 16.979 49.0445 17.053C48.868 17.2067 48.8475 17.2097 48.9445 17.0677C48.9976 16.9898 49.4432 16.1306 49.9346 15.1583L50.8281 13.3905L50.2045 12.7674L49.5809 12.1444L47.7968 13.0263C46.8156 13.5114 45.9504 13.9508 45.8742 14.0028L45.7357 14.0974L45.8212 13.9912C45.8682 13.9329 46.5166 12.9731 47.2621 11.8585C48.3857 10.1787 48.6101 9.82584 48.5737 9.79629C48.1894 9.48416 47.1311 8.6372 47.1255 8.6372C47.1213 8.6372 46.2153 10.0481 45.1123 11.7726ZM14.1443 10.0857C13.5502 10.1918 13.0351 10.521 12.2207 11.315C11.2997 12.2127 10.0823 13.5741 9.02095 14.8931L8.63091 15.3778L9.68517 16.3726C13.0602 19.5575 14.0568 20.4895 14.0783 20.4812C14.0916 20.4761 14.3562 20.1949 14.6664 19.8563C15.3492 19.1111 15.9267 18.4981 17.2615 17.1016C17.8198 16.5175 18.3745 15.9081 18.4942 15.7473C18.7517 15.4014 18.94 15.0501 19.0388 14.7315C19.1382 14.4109 19.14 13.9446 19.0432 13.6389C18.8378 12.9906 18.2835 12.4587 17.6613 12.3129C17.365 12.2434 16.7818 12.2665 16.5288 12.3576C16.2986 12.4405 16.2903 12.4399 16.3274 12.3422C16.4255 12.0842 16.3789 11.5155 16.2314 11.1716C16.0328 10.7082 15.6125 10.3284 15.1123 10.1605C14.8462 10.0712 14.4128 10.0377 14.1443 10.0857ZM14.6879 11.7014C15.079 11.8648 15.2186 12.3144 15.0089 12.7354C14.9554 12.843 14.8405 13.014 14.7535 13.1156C14.5991 13.296 13.188 14.7961 12.3938 15.6241L11.9952 16.0396L11.829 15.8939C11.7376 15.8138 11.4971 15.5905 11.2945 15.3977L10.9262 15.0472L11.156 14.7751C12.2577 13.4708 13.6381 12.0321 14.0174 11.7928C14.2454 11.649 14.4844 11.6164 14.6879 11.7014ZM30.7153 12.8447C24.6818 13.1086 19.1965 16.222 15.8837 21.2629C13.3401 25.1335 12.3404 29.7585 13.051 34.3688C13.5339 37.5021 14.795 40.4294 16.7464 42.9466C17.7704 44.2675 19.0669 45.5317 20.434 46.5423C24.8926 49.8383 30.6484 50.9722 36.057 49.62C41.3446 48.2981 45.8343 44.6747 48.2427 39.7856C49.309 37.6211 49.9269 35.369 50.1257 32.9222C50.1746 32.3197 50.174 30.7781 50.1246 30.1521C49.7928 25.9506 48.1768 22.1478 45.4092 19.0561C42.298 15.5804 38.0398 13.4097 33.3931 12.9306C32.5574 12.8444 31.4986 12.8104 30.7153 12.8447ZM17.1531 13.6635C17.2226 13.7095 17.3177 13.8049 17.3644 13.8754C17.436 13.9836 17.4492 14.0355 17.4482 14.206C17.4468 14.4319 17.379 14.5937 17.1678 14.8748C17.0319 15.0556 14.2002 18.0711 14.1663 18.0711C14.154 18.0711 13.9003 17.8436 13.6025 17.5656L13.0611 17.06L13.1796 16.9346C13.7844 16.2947 15.3269 14.6822 15.6949 14.3051C16.3297 13.6548 16.4841 13.5557 16.8379 13.5714C16.9825 13.5778 17.0562 13.5993 17.1531 13.6635ZM33.0699 13.9187C39.9643 14.502 45.9593 19.2167 48.226 25.8378C48.7807 27.4582 49.0758 29.0991 49.1553 31.0062L49.1762 31.5064H40.3382H31.5002V40.3401V49.1738L31.3232 49.1733C30.3526 49.1709 28.8978 49.0058 27.8016 48.7738C23.8086 47.9285 20.1692 45.6491 17.6039 42.3869C15.4608 39.6614 14.1632 36.343 13.8969 32.9068C13.8799 32.6867 13.8565 32.2816 13.8451 32.0065L13.8242 31.5064H22.6622H31.5002V22.6685V13.8307L32.0157 13.852C32.2993 13.8636 32.7737 13.8937 33.0699 13.9187Z" fill="white"/>
</svg>
