<svg width="110" height="14" viewBox="0 0 110 14" fill="none" xmlns="http://www.w3.org/2000/svg">
<path fill-rule="evenodd" clipRule="evenodd" d="M4.78193 0.0904114C4.31713 0.251304 3.87815 0.640631 3.69367 1.05555C3.65227 1.14865 3.21572 2.64293 2.7235 4.3762C2.23128 6.10948 1.81824 7.56126 1.80567 7.60235C1.79179 7.64766 1.8098 7.68748 1.8515 7.70345C1.90077 7.72236 2.13376 7.52033 2.67427 6.98991C5.13646 4.5738 7.85515 2.28754 10.3614 0.525391C10.7048 0.283925 10.8598 0.149905 10.8506 0.102208C10.8383 0.0384131 10.5851 0.0315567 7.92052 0.0229542C5.20511 0.0141813 4.9886 0.0188659 4.78193 0.0904114ZM10.1175 5.19046C9.30275 8.04521 8.60156 10.4609 8.55923 10.5588C8.44633 10.8198 8.16092 11.1061 7.86737 11.2528C7.61181 11.3805 7.60286 11.3817 6.91351 11.3817C6.53079 11.3817 6.21765 11.3662 6.21765 11.3473C6.21765 11.3283 6.61051 9.94483 7.09067 8.27288C7.57084 6.60093 7.9637 5.18871 7.9637 5.13463C7.9637 5.06883 7.93904 5.03676 7.88917 5.0377C7.73416 5.04055 5.22449 7.38614 3.89446 8.77118C1.9471 10.7992 0 13.0235 0 13.2203C0 13.2951 0.163235 13.2981 4.27544 13.2981C6.861 13.2981 8.72519 13.2809 8.99191 13.2547C10.2023 13.1357 11.0886 12.8633 11.8124 12.3879C12.5645 11.8941 13.0718 11.2194 13.4078 10.2665C13.7675 9.24645 13.7523 8.31879 13.3639 7.57812C13.1858 7.23841 12.7058 6.7553 12.3501 6.5577C12.1979 6.47312 11.9113 6.3506 11.7133 6.2854C11.3826 6.17655 11.3635 6.16433 11.4791 6.1352C11.5483 6.11778 11.7673 6.06336 11.9659 6.01425C13.3981 5.66015 14.2896 4.78985 14.6688 3.37542C14.7789 2.96467 14.8018 2.27123 14.7171 1.91056C14.5616 1.24847 14.0945 0.676489 13.4517 0.361262C12.9718 0.125929 12.676 0.0526371 12.0916 0.0240614L11.5989 0L10.1175 5.19046ZM65.396 1.56642C63.7181 1.83783 62.6322 2.63113 62.094 3.97853C61.8691 4.54161 61.8163 4.80096 61.8177 5.3344C61.8198 6.10377 61.9915 6.6157 62.3958 7.05805C62.7911 7.4906 63.2829 7.76465 64.5041 8.23285C66.0997 8.8446 66.4349 9.13091 66.3829 9.83781C66.3712 9.99598 66.3119 10.2676 66.2511 10.4413C65.9921 11.1816 65.5752 11.5179 64.8397 11.5799C64.2378 11.6307 63.8108 11.4469 63.621 11.0555C63.5387 10.8858 63.5218 10.7854 63.5249 10.4874C63.5282 10.1819 63.5948 9.77133 63.6926 9.4541C63.7144 9.38324 63.6326 9.37966 62.2353 9.39022L60.7549 9.40142L60.6647 9.63565C60.5217 10.0067 60.4349 10.3549 60.3971 10.7084C60.2544 12.0419 60.9155 12.8879 62.4107 13.2851C62.8191 13.3936 62.8912 13.399 64.1672 13.4157C65.2681 13.4302 65.5768 13.4208 65.9558 13.3615C67.5573 13.1107 68.5343 12.3715 69.1009 10.9819C69.664 9.60056 69.5645 8.39152 68.8255 7.63625C68.3856 7.18671 67.7529 6.83745 66.5416 6.3756C65.3565 5.92376 64.9894 5.69724 64.8381 5.32444C64.6771 4.92787 64.7965 4.21612 65.0886 3.83101C65.393 3.42984 65.8195 3.26669 66.4811 3.29829C67.1797 3.33172 67.4738 3.60134 67.4657 4.20083C67.4635 4.36756 67.4321 4.59978 67.396 4.7169C67.3599 4.83401 67.3302 4.94448 67.3299 4.96236C67.3297 4.98025 67.9571 4.98983 68.7242 4.98366L70.1189 4.97241L70.1922 4.67891C70.5336 3.31166 70.0519 2.307 68.8269 1.83135C68.1972 1.58682 67.8701 1.53725 66.7758 1.52047C66.0445 1.50923 65.673 1.52158 65.396 1.56642ZM47.1221 1.61454C44.4011 1.82973 43.3247 2.84393 42.33 6.12966C42.0453 7.07002 41.6245 8.78941 41.498 9.52918C41.3624 10.3219 41.3332 11.2433 41.4311 11.6372C41.6795 12.636 42.3242 13.0967 43.7992 13.3295C44.4504 13.4322 46.8643 13.4297 47.8163 13.3251C48.3911 13.2621 49.6983 13.0609 49.7211 13.032C49.7257 13.0261 50.0508 11.814 50.4435 10.3383C50.8362 8.8627 51.1666 7.63144 51.1778 7.60214C51.1939 7.56015 50.8657 7.54891 49.6231 7.54891H48.0481L47.9348 7.96413C47.8725 8.19252 47.6433 9.03582 47.4255 9.83815C47.2077 10.6405 47.0152 11.3112 46.9978 11.3287C46.9804 11.3461 46.6341 11.3668 46.2282 11.3745C45.1395 11.3953 44.77 11.2755 44.6071 10.8489C44.4563 10.4541 44.5913 9.65418 45.1859 7.42115C46.0779 4.07064 46.5565 3.3675 47.9051 3.42648C48.5407 3.45424 48.7953 3.62446 48.891 4.08568C48.9382 4.31279 48.9051 4.63432 48.7791 5.1747L48.7518 5.29181H50.3083C51.7539 5.29181 51.8663 5.28649 51.8868 5.21729C51.968 4.9426 52.0408 4.36509 52.0404 3.99888C52.0395 3.28854 51.8864 2.87596 51.4669 2.45422C51.0306 2.01558 50.3662 1.74908 49.4218 1.63379C49.0802 1.5921 47.5663 1.57945 47.1221 1.61454ZM83.7253 1.61612C81.8299 1.75921 80.771 2.38255 79.8978 3.86925C79.4592 4.61601 78.956 5.98602 78.5776 7.46373C78.1954 8.95639 78.0887 9.63139 78.0897 10.5513C78.0903 11.1129 78.1064 11.2911 78.1813 11.5654C78.3094 12.0345 78.4992 12.3655 78.8034 12.65C79.1186 12.9448 79.4967 13.1376 80.0513 13.2864C80.4475 13.3927 80.5297 13.3989 81.7663 13.4163C83.1892 13.4364 83.6938 13.3998 84.3592 13.2281C85.763 12.8661 86.6745 11.9661 87.4062 10.2197C87.8315 9.20459 88.4093 7.18155 88.6252 5.95191C88.7506 5.23735 88.7816 4.23043 88.6928 3.7587C88.4578 2.51023 87.5536 1.81679 85.9185 1.63103C85.5672 1.59112 84.1815 1.58171 83.7253 1.61612ZM92.1068 1.74644C91.2745 1.75755 91.181 1.76607 91.1609 1.83246C91.0357 2.24517 88.2821 12.9813 88.2821 13.0564C88.2821 13.1118 88.3171 13.1889 88.36 13.2276C88.4292 13.2903 88.5982 13.2981 89.8856 13.2981H91.3333L92.5833 8.45387C93.2707 5.78952 93.837 3.60411 93.8416 3.59738C93.8462 3.59061 94.1064 3.57404 94.4198 3.5605C95.3914 3.51855 95.9026 3.64405 96.0946 3.97163C96.1673 4.09568 96.1806 4.18495 96.1739 4.50396C96.1675 4.81625 96.1193 5.06866 95.9138 5.86673C95.7751 6.40545 95.3005 8.2423 94.8592 9.94862C94.1031 12.8721 94.0605 13.0575 94.1202 13.1639L94.1836 13.2768L95.6618 13.288C96.4749 13.2942 97.1401 13.29 97.1401 13.2787C97.1401 13.2674 97.5534 11.6621 98.0585 9.7115C98.5636 7.76082 99.0552 5.85822 99.1509 5.48345C99.316 4.83673 99.3251 4.76851 99.3287 4.14198C99.332 3.55045 99.3225 3.4571 99.2363 3.24318C98.8685 2.33 98.0501 1.90269 96.3948 1.75959C95.9265 1.71909 94.4827 1.71467 92.1068 1.74644ZM15.5948 7.39168C14.794 10.4907 14.1388 13.0491 14.1388 13.077C14.1388 13.1049 14.1771 13.1661 14.2239 13.2129C14.3057 13.2947 14.3659 13.2981 15.7554 13.2981H17.2017L17.2509 13.1171C17.278 13.0176 17.8415 10.8418 18.5032 8.28208C19.1649 5.72237 19.7162 3.6182 19.7282 3.60615C19.7402 3.59414 20.0733 3.58068 20.4685 3.57625C21.0536 3.56974 21.2328 3.58239 21.435 3.64431C21.7362 3.73664 22.0302 4.00693 22.099 4.25479C22.2733 4.88247 21.9601 5.79038 21.3865 6.32058C20.9556 6.71876 20.4387 6.91011 19.7938 6.91011C19.4641 6.91011 19.4195 6.91909 19.4195 6.98548C19.4195 7.18969 20.5829 12.6587 20.6607 12.8202C20.7632 13.033 20.9478 13.1849 21.1868 13.2534C21.3034 13.2867 21.7884 13.2981 22.7213 13.2895L24.0855 13.2768L23.5492 10.9771C22.9526 8.41899 22.9584 8.44037 22.7622 8.07672L22.6218 7.81669L22.981 7.67696C24.1467 7.22354 24.9122 6.32245 25.2173 5.04426C25.3328 4.56052 25.3129 3.90362 25.1717 3.53571C24.8229 2.62751 24.0026 2.06366 22.7051 1.8403C22.2617 1.76402 22.0079 1.75712 19.6363 1.75712H17.0508L15.5948 7.39168ZM27.7874 1.81036C27.7029 2.04616 24.9132 12.9415 24.9132 13.0353C24.9132 13.298 24.914 13.2981 26.5869 13.2981H28.1048L28.1677 13.0745C28.4208 12.1742 31.0031 2.09122 31.0031 2.00289C31.0031 1.75597 31.011 1.75712 29.3378 1.75712C28.1512 1.75712 27.8021 1.76909 27.7874 1.81036ZM33.0675 1.81036C32.9877 2.0258 30.1939 12.9385 30.1939 13.0344C30.1939 13.3075 30.1034 13.2981 32.7312 13.298C34.041 13.2979 35.3714 13.2785 35.6876 13.2548C37.2576 13.1373 38.1767 12.811 38.8627 12.1279C39.5367 11.4568 39.9439 10.6399 40.4569 8.93003C41.1231 6.70948 41.4162 5.06219 41.3116 4.12477C41.2008 3.1308 40.8411 2.58156 40.0538 2.20437C39.6177 1.9954 39.2913 1.90686 38.6357 1.8196C38.0101 1.7363 33.0979 1.72817 33.0675 1.81036ZM55.5807 1.82173C54.6564 1.98909 54.1307 2.58424 53.6629 3.99292C53.3961 4.79649 51.8731 10.7036 51.7964 11.2325C51.6265 12.4042 52.0128 13.0782 52.9537 13.2516C53.1172 13.2817 54.0506 13.2981 55.6002 13.2981C57.8774 13.2981 58.0072 13.2939 58.2647 13.2127C58.8342 13.0331 59.1091 12.7136 59.4476 11.8376L59.6566 11.2965L57.4564 11.2959C55.7948 11.2954 55.2311 11.2824 55.1539 11.2427C54.9354 11.1303 54.9357 11.127 55.2954 9.7092C55.4809 8.97777 55.6495 8.31704 55.67 8.24094L55.7073 8.10253H57.7817H59.856L60.0811 7.21886C60.2049 6.73282 60.3054 6.32079 60.3044 6.30325C60.3035 6.2857 59.3749 6.27131 58.2409 6.27131H56.1791L56.4281 5.29578C56.565 4.75923 56.716 4.24384 56.7636 4.15049C56.8732 3.93573 57.1444 3.7018 57.3581 3.63779C57.4719 3.60368 58.074 3.58835 59.2972 3.58835H61.0714L61.1095 3.48789C61.1305 3.43265 61.2419 3.02063 61.357 2.57227L61.5664 1.75712L58.7307 1.76096C56.5637 1.7639 55.8209 1.77825 55.5807 1.82173ZM71.29 1.77829C71.29 1.79848 70.882 3.40097 70.8373 3.55641C70.8171 3.62642 70.9104 3.63094 72.3785 3.63094H73.9412L73.6424 3.94548C73.1339 4.48079 73.1626 4.39447 71.9926 8.91168C71.4193 11.1251 70.95 12.9859 70.9498 13.0466C70.9495 13.1074 70.9846 13.1891 71.0278 13.2282C71.0986 13.2922 71.2592 13.2981 72.6562 13.288L74.2061 13.2768L75.3859 8.72004C76.0347 6.21381 76.5972 4.04496 76.6359 3.90038L76.7062 3.63749L77.7351 3.62357L78.764 3.60964L79.029 3.48725C79.3046 3.35996 79.6523 3.038 79.7792 2.79253C79.8412 2.67265 79.9833 2.31663 80.1287 1.91682L80.1868 1.75712H75.7385C73.2918 1.75712 71.29 1.76666 71.29 1.77829ZM103.074 1.82024C102.082 2.00012 101.586 2.57475 101.088 4.12068C100.9 4.7042 99.3794 10.5409 99.2858 11.0382C99.1921 11.536 99.2209 12.1737 99.3504 12.4719C99.4652 12.7363 99.7355 13.0096 99.9934 13.1222C100.384 13.2926 100.593 13.3037 103.166 13.29L105.636 13.2768L105.901 13.1544C106.176 13.0273 106.524 12.7053 106.651 12.4609C106.721 12.3248 107.031 11.5568 107.082 11.3923L107.111 11.2965H104.935C102.487 11.2965 102.465 11.2941 102.462 11.0325C102.461 10.9552 102.62 10.2644 102.813 9.4975L103.166 8.10304L105.239 8.10279C107.177 8.10253 107.314 8.09763 107.335 8.028C107.368 7.92098 107.787 6.30559 107.787 6.28694C107.787 6.27833 106.856 6.27131 105.718 6.27131H103.649L103.679 6.1329C103.696 6.0568 103.813 5.60163 103.939 5.12147C104.199 4.12967 104.294 3.93513 104.612 3.73851L104.82 3.60964L106.693 3.58835L108.566 3.56706L108.793 2.69403C108.918 2.21387 109.02 1.80665 109.021 1.78906C109.021 1.77148 107.752 1.75887 106.2 1.76096C104.083 1.76385 103.303 1.77863 103.074 1.82024ZM85.152 3.51335C85.7143 3.80784 85.7603 4.5135 85.3402 6.39907C84.9136 8.3141 84.3746 9.84773 83.8647 10.5978C83.6338 10.9373 83.3053 11.2359 83.0106 11.374C82.7938 11.4757 82.7181 11.488 82.32 11.4863C81.6181 11.4835 81.3498 11.3163 81.2523 10.8209C81.1612 10.3581 81.3054 9.39631 81.7048 7.80251C82.4151 4.96841 83.0381 3.79481 84.0021 3.4749C84.2342 3.3979 84.9791 3.42282 85.152 3.51335ZM37.5188 3.63728C37.6242 3.65947 37.7838 3.7259 37.8735 3.78489C38.3435 4.09394 38.3208 4.80735 37.771 7.00171C36.979 10.163 36.5149 11.0069 35.444 11.2339C35.1011 11.3065 33.7712 11.3219 33.7712 11.2532C33.7712 11.2293 34.212 9.50572 34.7507 7.42298C35.2894 5.34024 35.7302 3.62617 35.7302 3.61394C35.7302 3.54461 37.1683 3.56339 37.5188 3.63728Z" fill="white"/>
</svg>
