<svg width="100" height="47" viewBox="0 0 100 47" fill="none" xmlns="http://www.w3.org/2000/svg">
<path fill-rule="evenodd" clipRule="evenodd" d="M47.5167 0.0554649C44.7147 0.399283 42.1619 1.41635 39.9868 3.05529C38.9156 3.86256 38.5509 4.45463 38.7186 5.11503C38.7813 5.36208 38.775 5.48086 38.694 5.57848C38.6341 5.65067 38.556 5.96854 38.5204 6.28487C38.485 6.60128 38.4169 7.00813 38.3693 7.18916C38.2409 7.67684 38.3767 7.97964 38.8117 8.17591C39.0074 8.2642 39.2772 8.45345 39.4113 8.59646L39.6553 8.85661L39.312 9.44414C38.8255 10.2772 38.3893 11.3741 38.1182 12.4456C37.9036 13.2938 37.8849 13.5029 37.8849 15.0381C37.8849 16.5732 37.9036 16.7823 38.1182 17.6305C38.6712 19.8166 39.6843 21.5897 41.2493 23.1105C41.8995 23.7422 41.9245 23.7804 41.7495 23.8705C41.6481 23.9226 41.4825 24.0405 41.3815 24.1323C41.2618 24.2412 41.178 24.2673 41.1409 24.2073C41.1097 24.1567 40.9304 24.1152 40.7427 24.1152C40.4945 24.1152 40.344 24.1725 40.1912 24.3253L39.9812 24.5353L39.8581 24.2974C39.6903 23.9729 39.0939 23.4472 38.8137 23.3769C38.4885 23.2953 38.3329 23.4277 38.1885 23.9094C38.0865 24.2496 37.9115 24.4809 37.2663 25.1286C36.8283 25.5682 36.47 25.9853 36.47 26.0554C36.47 26.1255 36.6244 26.3216 36.8132 26.491C37.0019 26.6605 37.3834 27.1298 37.6609 27.5338C38.1387 28.2295 38.5157 28.5681 38.8124 28.5681C38.8851 28.5681 39.0535 28.4517 39.1866 28.3093L39.4285 28.0504L39.7214 28.2665C40.1422 28.5769 40.4619 28.5493 40.8516 28.1688L41.1729 27.8551L42.1825 28.3761C46.5561 30.6325 51.6457 30.6325 56.0193 28.3761L57.0289 27.8551L57.3502 28.1688C57.7392 28.5487 58.0596 28.577 58.4782 28.2682L58.7687 28.0537L59.034 28.311C59.18 28.4524 59.3494 28.5681 59.4106 28.5681C59.686 28.5681 60.075 28.2122 60.5408 27.5338C60.8184 27.1298 61.1999 26.6605 61.3886 26.491C61.5773 26.3216 61.7318 26.1255 61.7318 26.0554C61.7318 25.9853 61.3734 25.5682 60.9355 25.1286C60.2903 24.4809 60.1153 24.2496 60.0132 23.9094C59.8689 23.4277 59.7133 23.2953 59.388 23.3769C59.1078 23.4472 58.5115 23.9729 58.3436 24.2974L58.2206 24.5353L58.0105 24.3253C57.8578 24.1725 57.7073 24.1152 57.4591 24.1152C57.2713 24.1152 57.0921 24.1567 57.0609 24.2073C57.0238 24.2673 56.9399 24.2412 56.8203 24.1323C56.7193 24.0405 56.5536 23.9226 56.4523 23.8705C56.2772 23.7804 56.3024 23.7421 56.9529 23.1105C59.0641 21.0601 60.2205 18.4762 60.3354 15.5519C60.426 13.2499 59.9961 11.3894 58.9421 9.52147L58.5594 8.84308L58.7969 8.59183C58.9275 8.45371 59.2064 8.25795 59.4166 8.15699C59.9069 7.92141 60.025 7.59523 59.8171 7.05103C59.7398 6.84868 59.6766 6.49938 59.6766 6.27494C59.6766 6.05041 59.6174 5.7524 59.5452 5.61265C59.437 5.40353 59.4314 5.29931 59.5137 5.02495C59.718 4.34313 59.1689 3.67485 57.4593 2.5247C55.7892 1.40102 53.6947 0.557963 51.7196 0.214402C50.5823 0.0165033 48.4812 -0.0628805 47.5167 0.0554649ZM51.5843 0.481834C53.3421 0.782664 54.9396 1.35024 56.4495 2.21043C57.9475 3.06385 59.2484 4.19242 59.2484 4.63865C59.2484 4.98444 59.153 5.10261 58.5686 5.48069C58.2528 5.68501 57.7863 6.08851 57.532 6.37752C57.2776 6.66645 57.027 6.90289 56.9751 6.90289C56.9231 6.90289 56.7872 6.8009 56.6729 6.6763C55.9826 5.92281 53.9099 4.71564 52.6012 4.30494C51.2702 3.88722 50.5642 3.78155 49.1009 3.7812C47.1387 3.78078 45.7304 4.11158 44.0057 4.97819C43.1963 5.38486 41.966 6.23109 41.5299 6.68101L41.2457 6.97422L40.5491 6.2638C40.166 5.87314 39.697 5.47521 39.5071 5.37964C39.0915 5.17035 38.9082 4.86943 38.9913 4.53315C39.1373 3.94262 40.9499 2.58097 42.7222 1.73045C45.5283 0.383783 48.5355 -0.0398448 51.5843 0.481834ZM47.9086 1.22967C48.0101 1.45403 48.0592 3.05486 47.9674 3.14666C47.8393 3.27477 47.6324 3.14615 47.3987 2.79291C47.2788 2.61179 47.1008 2.43822 47.0031 2.40722C46.8299 2.35224 46.8309 2.34667 47.0427 2.18012C47.2977 1.97956 47.3237 1.67796 47.1031 1.47844C46.8791 1.27574 46.5503 1.29039 45.3897 1.55499C45.2396 1.58925 45.212 1.62787 45.2796 1.70931C45.3292 1.76899 45.452 2.19228 45.5527 2.6499C45.7074 3.35338 45.7179 3.50341 45.6202 3.62107C45.5153 3.74755 45.5429 3.75449 45.9222 3.69763C46.5339 3.60591 46.6316 3.55967 46.4675 3.43961C46.3567 3.35869 46.1486 2.81329 46.147 2.59981C46.1468 2.56444 46.2169 2.53558 46.3029 2.53558C46.4857 2.53558 46.7551 2.80927 46.9478 3.19076C47.0773 3.44706 47.1002 3.45674 47.4074 3.38541C47.5853 3.34413 47.9693 3.30945 48.2609 3.30834C48.7436 3.30645 49.0367 3.19924 48.7867 3.11592C48.6595 3.07353 48.5366 1.44093 48.6448 1.22967C48.7131 1.09643 48.6727 1.07981 48.2812 1.07981C47.8931 1.07981 47.8489 1.09762 47.9086 1.22967ZM49.4396 1.29004C49.0241 1.70545 49.2441 2.22464 49.9283 2.44352C50.3033 2.5635 50.3934 2.74495 50.2141 3.01864C49.9778 3.37924 49.5601 3.23187 49.3931 2.72894L49.2862 2.40713L49.1673 2.69674C49.0073 3.08646 49.0593 3.17475 49.5255 3.30525C50.3087 3.52456 50.9536 3.08774 50.8103 2.43513C50.7639 2.2237 50.6676 2.13807 50.2884 1.97031C50.0326 1.85719 49.8009 1.70639 49.7736 1.63523C49.7036 1.45257 49.8974 1.25108 50.1433 1.25108C50.3013 1.25108 50.3824 1.32541 50.4804 1.56005C50.6249 1.90592 50.6578 1.90189 50.7658 1.52536C50.8356 1.28199 50.8217 1.2557 50.5791 1.17118C50.1184 1.01053 49.6725 1.05703 49.4396 1.29004ZM50.9341 1.45574C50.751 1.75666 50.8427 1.84418 51.1301 1.64285C51.4031 1.45163 51.6271 1.47004 51.6271 1.68379C51.6271 2.10005 51.3462 3.10076 51.1919 3.23435C51.1015 3.31253 51.0276 3.39491 51.0276 3.41735C51.0276 3.43978 51.206 3.48483 51.424 3.51754C51.6419 3.55025 51.8751 3.59803 51.9421 3.62372C52.0364 3.65995 52.051 3.61902 52.0068 3.44252C51.9258 3.1202 52.2163 1.67925 52.3622 1.67925C52.484 1.67925 52.8259 2.00688 52.8259 2.1236C52.8259 2.16179 52.8645 2.19305 52.9116 2.19305C52.9587 2.19305 52.9972 2.05895 52.9972 1.89496C52.9972 1.65596 52.959 1.58822 52.8045 1.55302C52.6986 1.52887 52.2709 1.43725 51.854 1.3493L51.0962 1.18934L50.9341 1.45574ZM46.5713 1.71795C46.7229 1.90069 46.6477 2.12668 46.3863 2.27346C46.1069 2.43025 46.084 2.41081 46.0111 1.9543C45.954 1.59772 45.9563 1.59361 46.2108 1.59361C46.3523 1.59361 46.5145 1.64953 46.5713 1.71795ZM53.2541 1.8768C53.2541 2.18757 52.8163 3.40151 52.6411 3.5768C52.4797 3.73813 52.4815 3.74233 52.7586 3.8557C53.3745 4.10764 53.4371 4.11064 53.3805 3.88516C53.3244 3.66158 53.7987 2.1707 53.9416 2.12171C54.1215 2.05997 54.0073 1.94625 53.6395 1.82097C53.2602 1.69175 53.2541 1.69261 53.2541 1.8768ZM43.9201 2.0646C43.7081 2.17806 43.5821 2.27269 43.64 2.27483C43.7369 2.27834 44.1381 2.94979 44.0759 3.00434C44.0608 3.01753 43.8897 3.10838 43.6958 3.20618L43.3431 3.38395L43.1924 3.04998C43.1096 2.8663 43.0648 2.65615 43.0929 2.58302C43.1572 2.41578 43.1647 2.41492 42.6824 2.62824C42.315 2.79077 42.2907 2.81928 42.408 2.94936C42.6847 3.25636 43.158 4.37319 43.1127 4.61219C43.0881 4.74167 43.0853 4.84768 43.1064 4.84768C43.1461 4.84768 43.9303 4.48854 44.005 4.43622C44.0281 4.41995 43.9797 4.36899 43.8974 4.32284C43.815 4.27677 43.6705 4.08794 43.5762 3.90323L43.4049 3.56738L43.7447 3.39397C43.9316 3.29866 44.1043 3.22065 44.1285 3.22065C44.2251 3.22065 44.4339 3.7413 44.4339 3.98227V4.23866L44.8406 4.06105C45.3578 3.83532 45.3455 3.85134 45.1395 3.67236C44.9071 3.47053 44.3325 2.16256 44.3994 1.98796C44.4698 1.80453 44.3785 1.81909 43.9201 2.0646ZM54.5875 2.33794C54.6385 2.56118 53.9353 3.8426 53.698 3.95864C53.5122 4.0495 53.5518 4.08349 54.3209 4.49445C54.7726 4.73585 55.1895 4.93332 55.2472 4.93332C55.3049 4.93332 55.4653 4.79159 55.6034 4.61836C55.8027 4.36856 55.8205 4.31736 55.689 4.37096C55.1575 4.58753 54.453 4.48905 54.453 4.19815C54.453 3.98947 54.7042 3.56318 54.8273 3.56318C54.9804 3.56318 55.2237 3.8432 55.2237 4.01952C55.2237 4.25673 55.3526 4.18197 55.5505 3.82985C55.6533 3.64676 55.7375 3.47815 55.7375 3.45503C55.7375 3.43191 55.5648 3.43242 55.3537 3.45623C55.0591 3.48945 54.958 3.46881 54.9193 3.36777C54.8546 3.19932 55.1063 2.70685 55.257 2.70685C55.4212 2.70685 55.8176 3.12611 55.877 3.36254C55.9296 3.57252 56.0792 3.64102 56.0812 3.45614C56.0818 3.39731 56.1049 3.26475 56.1326 3.16173C56.1766 2.99749 56.0945 2.92872 55.4677 2.60563C54.5988 2.15751 54.5423 2.14038 54.5875 2.33794ZM56.3002 3.18391C56.145 3.33917 56.1296 3.44518 56.2513 3.52037C56.407 3.61662 56.3406 3.73239 56.0586 3.8557L55.7803 3.97739L56.0461 3.98433C56.5251 3.99692 56.9429 3.43276 56.6623 3.15214C56.5269 3.01676 56.4617 3.02241 56.3002 3.18391ZM41.0594 3.58596C40.4159 3.95401 40.179 4.56021 40.4531 5.13781C40.8943 6.06762 42.1606 6.03431 42.6749 5.07941L42.8397 4.77335L42.6306 4.59926C42.3564 4.37105 42.2664 4.37516 42.3471 4.61219C42.4568 4.93443 42.4044 5.21925 42.2059 5.37998C41.9605 5.57865 41.8639 5.57274 41.5156 5.33802C40.6993 4.78791 40.5799 3.73445 41.3338 3.73445C41.4248 3.73445 41.6008 3.81434 41.7248 3.91197C41.9812 4.11355 42.0288 3.99991 41.8511 3.61002C41.7276 3.33899 41.5033 3.33214 41.0594 3.58596ZM56.802 4.01755C56.5054 4.27274 56.5061 4.58359 56.8046 5.01424C57.0543 5.37459 57.0637 5.58961 56.836 5.73305C56.7337 5.79744 56.6267 5.79308 56.4614 5.71781C56.2457 5.6195 56.2329 5.58362 56.2709 5.18722C56.2934 4.95335 56.2968 4.76205 56.2785 4.76205C56.1633 4.76205 55.8231 5.05954 55.8231 5.16024C55.8231 5.5235 56.466 6.04655 56.9125 6.04655C57.2367 6.04655 57.6214 5.70179 57.6214 5.41132C57.6214 5.29298 57.5061 5.01441 57.3653 4.79228C57.1257 4.41455 57.1183 4.37841 57.2501 4.23275C57.4284 4.03571 57.4961 4.03734 57.7024 4.24363C57.8315 4.37268 57.8581 4.48366 57.8205 4.73602L57.772 5.06177L58.01 4.8321C58.2424 4.60791 58.2447 4.59695 58.1014 4.37841C57.9219 4.10447 57.4736 3.82085 57.2195 3.82042C57.1161 3.82025 56.9282 3.90897 56.802 4.01755ZM51.0326 4.20817C54.8922 4.84023 58.2762 7.75794 59.5414 11.5446C59.9468 12.7577 60.0606 13.5252 60.0595 15.0381C60.0587 16.0887 60.0179 16.6377 59.9004 17.1789C58.7694 22.3858 54.3671 25.9951 49.1437 25.9979C47.3599 25.999 45.8781 25.6781 44.391 24.969C41.2436 23.4679 39.0551 20.6624 38.2986 17.159C38.0846 16.1679 38.0841 13.9068 38.2976 12.8972C38.8703 10.1902 40.3166 7.88527 42.4488 6.28162C44.9712 4.38458 47.8553 3.68787 51.0326 4.20817ZM48.042 4.59447C46.8776 4.71187 45.693 5.05868 44.5522 5.61607C41.5469 7.08451 39.5302 9.67467 38.8162 12.9829C38.6067 13.9537 38.6051 16.1623 38.8132 17.0933C39.7789 21.4124 43.0678 24.616 47.2927 25.3528C48.2662 25.5225 49.9356 25.5225 50.909 25.3528C54.1231 24.7923 56.9471 22.7015 58.4391 19.7779C61.2562 14.2577 58.6848 7.5507 52.8688 5.24871C51.4768 4.69774 49.5743 4.4399 48.042 4.59447ZM50.8237 4.97836C53.8027 5.49011 56.3838 7.28053 57.9195 9.90006C59.2831 12.2263 59.6543 15.0392 58.9466 17.6837C58.6881 18.65 58.1133 19.9192 57.9343 19.9192C57.7705 19.9192 57.38 19.454 57.3101 19.1756C57.2506 18.9384 57.4722 18.3778 57.6254 18.3778C57.7384 18.3778 58.253 17.268 58.1757 17.1911C58.1137 17.1293 57.7613 17.1045 56.9226 17.1029C56.609 17.1023 56.327 17.0608 56.296 17.0107C56.265 16.9605 56.0931 16.8448 55.9141 16.7535C55.6381 16.6127 55.5949 16.5537 55.6305 16.3672C55.6642 16.1912 55.5873 16.0568 55.2477 15.6976C54.8349 15.2612 54.8209 15.2296 54.7638 14.5988C54.7315 14.2416 54.6652 13.8186 54.6165 13.6588C54.568 13.499 54.495 12.7324 54.4546 11.9553C54.3946 10.8032 54.3402 10.4177 54.1601 9.86769C54.0386 9.49672 53.9392 9.10692 53.9392 9.0015C53.9392 8.89609 53.8022 8.53609 53.6348 8.20152C53.2789 7.49016 52.7968 7.03039 51.8173 6.46864L51.1561 6.08937L49.7003 6.09142C48.8996 6.09254 48.1033 6.12259 47.9305 6.15822C47.5461 6.23743 46.38 6.98535 46.1909 7.27394C46.1151 7.38954 46.0303 7.63283 46.0025 7.81437C45.9747 7.996 45.6813 8.70333 45.3504 9.38626C44.8592 10.4002 44.7393 10.7302 44.6969 11.1855C44.6582 11.6017 44.5878 11.8188 44.4195 12.0418C44.1658 12.3777 43.7488 13.3233 43.7488 13.5626C43.7488 13.7816 43.9155 13.9246 44.1727 13.9261C44.2927 13.9269 44.4334 13.9557 44.4852 13.9903C44.8005 14.2008 44.8786 15.0689 44.6515 15.8362C44.5098 16.3144 44.5103 16.3417 44.6616 16.5122C44.7482 16.61 44.983 16.7632 45.1832 16.8528C45.3833 16.9424 45.5471 17.029 45.5471 17.0452C45.5471 17.0615 45.2802 17.1402 44.954 17.2202C44.3046 17.3793 44.1204 17.5216 44.0771 17.8979C44.0519 18.1167 43.9984 18.1585 43.6215 18.2537C43.364 18.3188 43.1431 18.4366 43.0649 18.5506C42.9936 18.6546 42.8214 18.8503 42.6821 18.9856C42.4514 19.2097 42.437 19.2563 42.5197 19.5111C42.6312 19.8548 42.6022 20.4808 42.4675 20.6433C42.4126 20.7094 42.3797 20.9106 42.3945 21.0905C42.4179 21.374 42.4668 21.4408 42.7622 21.5936C43.2083 21.8244 43.3442 22.2155 43.0945 22.55C42.7423 23.0216 42.6924 23.011 41.9883 22.3158C41.0567 21.3961 40.5559 20.7029 39.9784 19.5338C38.6679 16.8801 38.548 13.9424 39.639 11.2104C40.9227 7.99574 43.8757 5.59706 47.3026 4.98538C48.2235 4.82097 49.8885 4.81763 50.8237 4.97836ZM39.905 6.32897C40.3235 6.56712 40.8373 7.09017 40.8373 7.27796C40.8373 7.33962 40.7673 7.45342 40.6818 7.53084C40.5358 7.66288 40.5083 7.65278 40.2323 7.36505C40.0705 7.19652 39.7172 6.9463 39.4473 6.80903C38.9067 6.53415 38.7701 6.28607 38.9463 5.89944L39.0466 5.67927L39.2782 5.89173C39.4056 6.00853 39.6877 6.20532 39.905 6.32897ZM59.3164 6.26064C59.2951 6.47789 59.2121 6.55958 58.7779 6.79011C58.4956 6.94005 58.1359 7.20312 57.9785 7.37481C57.7042 7.67419 57.6858 7.68087 57.5285 7.53854C57.4383 7.45693 57.3645 7.33174 57.3645 7.26032C57.3645 7.06867 58.0301 6.4647 58.5891 6.14931C58.8575 5.99774 59.0784 5.82596 59.0799 5.76747C59.0814 5.70907 59.1409 5.73827 59.2121 5.83247C59.2834 5.92667 59.3303 6.11934 59.3164 6.26064ZM51.2155 6.45691C51.3056 6.54716 51.3047 6.58056 51.2105 6.63888C51.0359 6.74669 51.2476 6.84508 51.5116 6.7788C51.7554 6.71766 51.9699 6.85108 51.9689 7.06319C51.9682 7.23455 51.619 7.40667 51.1347 7.47457C50.7917 7.5227 50.6163 7.67359 50.9033 7.67359C50.9763 7.67359 51.1954 7.75066 51.3904 7.84485C51.5854 7.93905 51.8739 8.01612 52.0315 8.01612C52.6186 8.01612 52.9865 8.43915 52.814 8.91596C52.7554 9.07806 52.7332 9.2364 52.7646 9.26783C52.8452 9.34849 53.0865 9.13072 53.1752 8.89737C53.2163 8.78948 53.2876 8.70119 53.3336 8.70119C53.469 8.70119 53.7679 9.46598 53.7679 9.8122C53.7679 10.0005 53.8334 10.2063 53.9281 10.3155C54.1404 10.5602 54.2004 11.1627 54.1895 12.94C54.1838 13.8612 54.2171 14.4901 54.2799 14.6525C54.3959 14.9523 54.3142 15.9246 54.18 15.8416C54.1325 15.8123 54.1191 15.661 54.1497 15.4981C54.1893 15.2868 54.1708 15.1943 54.0821 15.1602C54.0115 15.1331 53.9363 14.9361 53.9042 14.6938C53.8438 14.238 53.6988 14.0574 53.6237 14.3443C53.5592 14.5911 53.4254 14.5714 53.4254 14.3152C53.4254 14.2002 53.3868 14.0824 53.3397 14.0533C53.1912 13.9615 53.2437 13.7669 53.4057 13.8092C53.5443 13.8454 53.553 13.7905 53.507 13.1653C53.4601 12.5262 53.3432 12.2122 53.1522 12.2122C53.1077 12.2122 53.0925 12.2796 53.1185 12.362C53.157 12.4845 53.1072 12.5153 52.8459 12.5305C52.6701 12.5409 52.3913 12.4849 52.2265 12.4063C51.9381 12.2687 51.381 12.2155 51.1133 12.3C50.8946 12.3691 50.9703 12.0984 51.2068 11.9657C51.4031 11.8555 51.4792 11.8576 51.8651 11.9838C52.4415 12.1723 52.5642 12.1643 52.8688 11.9178C53.118 11.7162 53.1207 11.7063 52.9593 11.5862C52.8028 11.4698 52.8015 11.4536 52.9379 11.3174C53.0614 11.1937 53.1522 10.5851 53.047 10.5851C53.0273 10.5851 52.9498 10.5616 52.8747 10.5327C52.7764 10.495 52.712 10.555 52.6453 10.7467C52.5356 11.0614 52.372 11.0174 52.4529 10.695C52.4923 10.5379 52.4664 10.4419 52.3644 10.3674C52.285 10.3093 52.2311 10.2142 52.2447 10.1558C52.2583 10.0976 52.2212 10.0323 52.1623 10.0107C52.1035 9.98911 52.0552 10.0132 52.0552 10.0642C52.0552 10.2189 51.8852 10.1699 51.4853 9.90006C51.0514 9.60728 51.0276 9.6 51.0276 9.76005C51.0276 9.99511 51.3766 10.3282 51.6228 10.3282C51.7549 10.3282 51.9117 10.3869 51.9712 10.4586C52.0608 10.5665 52.0571 10.5805 51.9499 10.5393C51.8759 10.511 51.7985 10.5468 51.7692 10.6231C51.7411 10.6964 51.6591 10.7564 51.5869 10.7564C51.4066 10.7564 51.4226 10.8305 51.6412 11.0076C51.8251 11.1564 51.8252 11.1595 51.6626 11.3782C51.533 11.5524 51.3971 11.6107 51.0145 11.656C50.7175 11.6911 50.4632 11.6773 50.3564 11.6202C50.1007 11.4833 49.8864 11.5017 49.9454 11.6555C49.9807 11.7476 49.9368 11.784 49.7904 11.784C49.6781 11.784 49.5713 11.8286 49.5531 11.8832C49.5005 12.041 49.0951 11.8969 48.7571 11.6001C48.3085 11.2063 48.3132 11.3491 48.7668 11.9002C49.0978 12.3022 49.2097 12.383 49.4325 12.3807C49.5798 12.3792 49.7752 12.3214 49.8665 12.2522C49.958 12.1831 50.1025 12.1265 50.1877 12.1265C50.2729 12.1265 50.3426 12.088 50.3426 12.0409C50.3426 11.9938 50.4004 11.9553 50.471 11.9553C50.5417 11.9553 50.5995 12.0131 50.5995 12.0837C50.5995 12.1544 50.5358 12.2122 50.4578 12.2122C50.38 12.2122 50.1028 12.3131 49.842 12.4365C49.5425 12.5782 49.2018 12.6659 48.9178 12.6745C48.4342 12.6891 48.3269 12.7391 48.3956 12.9183C48.4253 12.9957 48.5676 13.0248 48.8382 13.009C49.2248 12.9864 49.2334 12.991 49.1142 13.1611C49.0467 13.2576 49.0098 13.4067 49.0322 13.4925C49.0546 13.5784 49.0311 13.6745 48.9799 13.7061C48.9287 13.7378 48.8868 13.853 48.8868 13.9623C48.8868 14.0714 48.8267 14.2106 48.7533 14.2716C48.6542 14.3538 48.6341 14.4669 48.6752 14.7102C48.7274 15.0191 48.7179 15.0381 48.512 15.0381C48.3847 15.0381 48.257 15.1061 48.2062 15.201C48.1582 15.2906 47.9546 15.4406 47.7536 15.5344C47.3412 15.7267 46.3543 15.8515 46.274 15.7214C46.1809 15.5709 46.0832 15.6328 46.0349 15.873C45.9779 16.1563 45.5392 16.4444 45.2869 16.3644C45.0455 16.2877 44.8361 15.9399 44.9035 15.7273C44.9621 15.543 45.1574 15.4919 45.2474 15.6375C45.2765 15.6846 45.3578 15.7231 45.4282 15.7231C45.5285 15.7231 45.5504 15.6271 45.5301 15.2771C45.5074 14.8842 45.4787 14.8239 45.2902 14.7717L45.0761 14.7126L45.2953 14.7041C45.4157 14.6994 45.5891 14.7521 45.6806 14.8212C46.1601 15.184 46.2109 14.6162 45.7589 13.9451C45.4631 13.5057 45.3206 13.418 45.1575 13.5748C45.1127 13.6178 44.8449 13.6275 44.5623 13.5963C44.131 13.5486 44.0445 13.5111 44.0233 13.3629C43.9605 12.9239 44.8276 11.5271 45.1629 11.5271C45.2905 11.5271 45.3963 11.6395 45.532 11.9189C45.7221 12.3102 45.9246 12.388 45.9412 12.0762C45.946 11.9861 45.9557 11.8643 45.9626 11.8054C45.9706 11.7371 46.118 11.6984 46.3699 11.6984C46.7567 11.6984 46.7634 11.6936 46.7094 11.4629C46.679 11.3334 46.5356 11.118 46.3908 10.9844C46.151 10.7634 46.0799 10.7441 45.6017 10.7703C45.0872 10.7986 45.0765 10.7947 45.0912 10.5851C45.1069 10.3622 45.7394 9.17474 46.0605 8.76541C46.162 8.63594 46.3097 8.52992 46.3885 8.52984C46.4674 8.52984 46.7671 8.41851 47.0546 8.28253C48.0307 7.8207 48.4155 7.85265 48.6661 8.4162C48.8174 8.75634 49.0969 9.33436 49.2179 9.55752C49.2562 9.62817 49.4349 9.75671 49.6149 9.84311C49.9105 9.98492 49.9497 9.98706 50.0183 9.86452C50.06 9.78985 50.1478 9.72879 50.2134 9.72879C50.3773 9.72879 50.4665 9.56155 50.3594 9.45451C50.2992 9.39422 50.1881 9.40809 50.0069 9.49844C49.7626 9.62038 49.7361 9.61875 49.6608 9.47805C49.5971 9.35902 49.636 9.27125 49.8383 9.07763C50.0744 8.85165 50.1049 8.843 50.1814 8.9795C50.2747 9.14597 50.4738 9.17782 50.559 9.03995C50.6449 8.90106 50.4303 8.70119 50.1954 8.70119C50.079 8.70119 49.868 8.76867 49.7266 8.85105L49.4696 9.00091L49.1711 8.65837C48.8394 8.2779 48.6017 7.785 48.6673 7.6139C48.6909 7.5525 48.6728 7.50232 48.6272 7.50232C48.5816 7.50232 48.5443 7.54086 48.5443 7.58795C48.5443 7.63505 48.4472 7.67359 48.3286 7.67359C48.1384 7.67359 48.1195 7.64696 48.1694 7.44837C48.2496 7.12862 48.0261 7.21571 47.8592 7.56911C47.761 7.77712 47.675 7.8416 47.4941 7.84297C47.3639 7.844 47.1826 7.89152 47.0912 7.94864C46.8694 8.0872 46.8144 8.01304 46.766 7.50926C46.7268 7.10121 46.7366 7.07732 47.0138 6.90828C47.3917 6.67793 47.6008 6.67579 47.5415 6.90289C47.5108 7.02012 47.5388 7.07415 47.6303 7.07415C47.8004 7.07415 48.0318 6.74909 47.9722 6.59392C47.888 6.37419 48.3193 6.30833 49.7177 6.32734C50.7161 6.34096 51.1361 6.37727 51.2155 6.45691ZM39.2995 7.22221C39.5605 7.37421 39.8822 7.61142 40.0144 7.74946L40.2547 8.00037L40.0463 8.3071L39.8378 8.61384L39.6311 8.39214C39.5174 8.2702 39.2412 8.07726 39.0175 7.96337C38.6812 7.79219 38.611 7.7158 38.612 7.52227C38.6134 7.2235 38.7023 6.88841 38.7715 6.92087C38.8009 6.93457 39.0384 7.07021 39.2995 7.22221ZM59.539 7.03836C59.5676 7.11286 59.591 7.30185 59.591 7.4583C59.591 7.71341 59.5429 7.77001 59.1272 8.00465C58.8721 8.1486 58.6065 8.34769 58.5368 8.44711C58.4114 8.62617 58.408 8.62489 58.1743 8.31858L57.9384 8.00927L58.1867 7.74783C58.3232 7.60405 58.6153 7.39434 58.8356 7.2819C59.056 7.16946 59.2606 7.0381 59.2902 6.99015C59.3693 6.86221 59.4797 6.88362 59.539 7.03836ZM49.2978 8.29015C49.3777 8.37004 49.4235 8.37004 49.5034 8.29015C49.5833 8.21025 49.5605 8.18739 49.4006 8.18739C49.2407 8.18739 49.2179 8.21025 49.2978 8.29015ZM51.0055 9.26569C50.8916 9.37958 51.0411 9.47189 51.3395 9.47189C51.5426 9.47189 51.6298 9.43686 51.6062 9.36485C51.5678 9.24796 51.1003 9.1708 51.0055 9.26569ZM50.3356 10.0294C50.2026 10.1624 49.7516 10.2252 49.6006 10.1319C49.5483 10.0996 49.4603 10.1278 49.4049 10.1945C49.1987 10.4431 49.7408 11.114 50.2357 11.2227C50.4593 11.2718 50.5138 11.2568 50.5138 11.1465C50.5138 11.0708 50.4175 10.9724 50.2998 10.9277C50.0485 10.8322 50.015 10.6708 50.2465 10.6708C50.471 10.6708 50.6246 10.4733 50.4983 10.347C50.4259 10.2745 50.4275 10.2182 50.5045 10.1254C50.6419 9.95983 50.491 9.87402 50.3356 10.0294ZM48.9217 10.4266C48.8882 10.481 48.9317 10.5774 49.0185 10.641C49.2227 10.7902 49.315 10.7871 49.315 10.6309C49.315 10.4576 49.0028 10.2954 48.9217 10.4266ZM48.2874 10.7506C48.2874 10.8472 48.747 11.1846 48.8786 11.1846C49.0486 11.1846 48.9765 11.0278 48.7238 10.8478C48.4581 10.6587 48.2874 10.6207 48.2874 10.7506ZM53.6519 10.7363C53.573 10.8639 53.7486 11.2922 53.8534 11.2275C53.9721 11.1542 53.9606 10.9897 53.8238 10.8026C53.7506 10.7024 53.6878 10.6782 53.6519 10.7363ZM53.395 11.5927C53.3726 11.6287 53.4465 11.966 53.5591 12.342L53.7639 13.0257L53.7391 12.3797C53.7253 12.0244 53.6854 11.6871 53.6503 11.6304C53.578 11.5132 53.4553 11.4951 53.395 11.5927ZM52.6292 12.9491C52.6638 13.053 52.1672 13.2398 51.8565 13.2398C51.6863 13.2398 51.6271 13.1968 51.6271 13.0732C51.6271 12.9359 51.6987 12.9011 52.0338 12.8754C52.5365 12.8367 52.594 12.8439 52.6292 12.9491ZM46.4166 13.1158C46.433 13.1997 46.4981 13.2857 46.5615 13.3067C46.6352 13.3313 46.666 13.2901 46.6471 13.1925C46.6308 13.1086 46.5657 13.0226 46.5023 13.0015C46.4286 12.977 46.3978 13.0181 46.4166 13.1158ZM49.7003 13.2458C49.7003 13.3118 49.6328 13.3788 49.5505 13.3948C49.4028 13.4232 49.3419 13.2415 49.4595 13.1238C49.5493 13.0341 49.7003 13.1105 49.7003 13.2458ZM52.2133 13.9349C52.4323 14.096 52.6637 14.3764 52.7964 14.6414C52.9174 14.8832 53.1084 15.2035 53.2209 15.3534C53.3333 15.5034 53.4254 15.6915 53.4254 15.7715C53.4254 15.8516 53.5096 16.0532 53.6124 16.2195L53.7993 16.5221L53.5165 16.7583C53.3609 16.8882 53.0066 17.0793 52.7292 17.1831C52.3306 17.3321 52.1334 17.4772 51.789 17.8748C51.1198 18.6473 50.9256 18.5477 50.6079 17.2697C50.4547 16.6534 50.3509 15.1126 50.4849 15.4448C50.5674 15.6493 50.7692 15.5501 50.8981 15.2417C50.9693 15.0711 51.0276 14.917 51.0276 14.8992C51.0276 14.8337 50.6692 14.8693 50.519 14.9497C50.4023 15.0121 50.3268 14.9913 50.2131 14.8657C50.0071 14.6382 50.1162 14.523 50.9084 14.1316C51.2585 13.9586 51.5658 13.7834 51.5911 13.7424C51.6731 13.6099 51.8427 13.6624 52.2133 13.9349ZM45.3758 14.0961C45.3758 14.2102 45.3187 14.2674 45.2046 14.2674C45.0396 14.2674 44.9725 14.0998 45.0904 13.9819C45.2082 13.864 45.3758 13.9311 45.3758 14.0961ZM49.5719 15.8088C49.5719 16.1323 49.5404 16.2369 49.4434 16.2369C49.2878 16.2369 49.2729 15.9091 49.4144 15.5987C49.469 15.4787 49.5268 15.3806 49.5428 15.3806C49.5588 15.3806 49.5719 15.5733 49.5719 15.8088ZM48.8037 16.6604C48.701 16.8523 48.4082 16.899 48.3526 16.7324C48.3161 16.623 48.8245 16.3209 48.871 16.4244C48.8858 16.4574 48.8555 16.5635 48.8037 16.6604ZM54.9887 17.1056C54.8435 17.2508 54.6242 17.0451 54.6242 16.7636V16.5405L54.8567 16.7729C55.0342 16.9505 55.0653 17.029 54.9887 17.1056ZM54.259 17.1016C54.3655 17.2281 54.5586 17.3573 54.6882 17.3889C54.8179 17.4204 55.0682 17.5406 55.2445 17.6559C55.4207 17.7712 55.7675 17.9553 56.0152 18.065C56.5192 18.2883 56.6296 18.3967 56.7146 18.752C56.747 18.8871 56.8824 19.1376 57.0155 19.3086C57.1485 19.4795 57.3657 19.8171 57.4981 20.0587L57.7386 20.4978L57.2969 21.0937C56.1811 22.5989 54.3254 23.9967 52.6656 24.5823L52.3247 24.7027L52.2328 24.439C52.1228 24.1235 52.1105 23.2878 52.2148 23.2233C52.2554 23.1982 52.3371 22.9936 52.3964 22.7687C52.6465 21.8189 52.8557 21.3585 53.14 21.1317C53.2969 21.0065 53.4254 20.8605 53.4254 20.8074C53.4254 20.6568 53.6916 20.473 53.8667 20.5026C54.0445 20.5327 54.0735 20.4303 53.9283 20.2851C53.8567 20.2135 53.8807 20.1095 54.021 19.8826C54.1249 19.7143 54.2409 19.5766 54.2787 19.5766C54.3165 19.5766 54.3661 19.4899 54.3892 19.384C54.4121 19.278 54.4593 19.1238 54.4939 19.0414C54.6356 18.7044 54.3518 18.9318 53.7729 19.6195C53.2499 20.2405 53.1215 20.3473 52.8981 20.3473C52.7007 20.3473 52.6484 20.3788 52.6857 20.4758C52.7162 20.5554 52.6852 20.6042 52.6041 20.6042C52.521 20.6042 52.4976 20.6433 52.5399 20.7113C52.7239 21.0069 52.2515 21.7362 51.8224 21.8189C51.5997 21.8618 51.631 22.1041 51.8583 22.0965C51.9619 22.093 52.0271 22.1219 52.0031 22.1607C51.9791 22.1995 51.9027 22.2313 51.8334 22.2313C51.7641 22.2313 51.6866 22.2853 51.6612 22.3512C51.636 22.4173 51.5408 22.4907 51.4499 22.5145C51.145 22.5943 51.2626 22.757 51.5819 22.697L51.8793 22.6413L51.8294 23.1856C51.802 23.4849 51.8225 23.959 51.8748 24.2391C51.9272 24.5193 51.941 24.7764 51.9056 24.8106C51.7712 24.9399 50.4339 25.1622 49.5291 25.2053C48.4912 25.2549 47.111 25.1113 46.9317 24.9351C46.7442 24.7508 46.8892 24.036 47.1329 23.9433C47.2399 23.9027 47.3411 23.8283 47.3579 23.778C47.3747 23.7277 47.6773 23.6578 48.0306 23.6226L48.6727 23.5586L48.7155 23.2589C48.7579 22.9619 48.7626 22.9589 49.2293 22.9329C49.4884 22.9184 49.737 22.8702 49.7817 22.8258C49.9123 22.6961 49.9862 22.7315 50.0154 22.9377C50.0355 23.0784 50.1096 23.138 50.2902 23.1587C50.4864 23.181 50.5267 23.1589 50.4855 23.0516C50.4527 22.9662 50.4799 22.9163 50.5593 22.9163C50.6408 22.9163 50.6851 22.8295 50.6851 22.6699C50.6851 22.5344 50.7429 22.3756 50.8136 22.3169C50.8842 22.2582 50.942 22.1017 50.942 21.969C50.942 21.8362 50.9805 21.7038 51.0276 21.6747C51.1556 21.5956 51.131 21.3249 50.9848 21.2037C50.8396 21.0831 50.8103 20.7755 50.9441 20.7755C50.9924 20.7755 51.0685 20.6792 51.1133 20.5614C51.1581 20.4437 51.2337 20.3473 51.2814 20.3473C51.4202 20.3473 51.8008 19.6827 51.7451 19.5375C51.6663 19.3322 51.2845 19.3668 51.2845 19.5793C51.2845 19.7887 51.0574 19.8942 50.8661 19.7736C50.6135 19.6143 50.6979 19.3669 51.0209 19.3197C51.4317 19.2597 51.473 19.0628 51.0748 19.0628C50.6729 19.0628 50.1713 19.2743 50.1713 19.4438C50.1713 19.6658 49.8521 19.5929 49.6633 19.328C49.4706 19.0572 49.4365 18.8916 49.5736 18.8916C49.6217 18.8916 49.642 18.7876 49.6188 18.6596C49.5957 18.5321 49.6181 18.4021 49.6688 18.3708C49.7332 18.331 49.7288 18.254 49.6541 18.1144C49.5726 17.9624 49.5714 17.907 49.6488 17.8812C49.7261 17.8554 49.7265 17.8188 49.6506 17.7272C49.5958 17.6611 49.5796 17.6071 49.6147 17.6071C49.6498 17.6071 49.6256 17.543 49.5609 17.4647C49.4693 17.3537 49.467 17.3144 49.5505 17.2863C49.6094 17.2665 49.6575 17.1764 49.6575 17.0862C49.6575 16.9958 49.7106 16.922 49.7755 16.922C49.9714 16.922 50.1072 17.1607 50.1166 17.522C50.1223 17.7389 50.1658 17.864 50.2357 17.864C50.3103 17.864 50.3285 17.9328 50.2923 18.0773C50.2517 18.239 50.2771 18.3024 50.3977 18.3396C50.7551 18.45 51.1133 18.6687 51.1133 18.7766C51.1133 18.9329 51.5342 18.9246 51.5946 18.7671C51.6209 18.6986 51.7775 18.5628 51.9428 18.4653C52.1494 18.3434 52.2271 18.246 52.1917 18.1536C52.1334 18.0018 52.531 17.5898 52.9397 17.3784C53.0801 17.3058 53.3479 17.1357 53.5349 17.0002C53.8986 16.7367 53.9591 16.7452 54.259 17.1016ZM48.0305 16.922C48.1161 16.9773 48.1232 17.0054 48.0519 17.0063C47.993 17.007 47.8648 17.0877 47.767 17.1855C47.5626 17.3899 47.3454 17.3474 47.3454 17.1031C47.3454 16.8557 47.7588 16.7465 48.0305 16.922ZM48.9402 17.5C48.9307 18.2567 49.1036 19.5205 49.222 19.5599C49.2731 19.577 49.315 19.6429 49.315 19.7065C49.315 19.77 49.3878 19.8451 49.477 19.8734C49.6576 19.9307 49.7729 20.2333 49.6443 20.3127C49.5985 20.341 49.6307 20.4169 49.7166 20.4829C49.8641 20.5963 49.8616 20.61 49.6654 20.7636L49.4592 20.9251L49.6868 21.0742C50.0279 21.2977 49.9898 21.5895 49.5933 21.7911C49.4167 21.8809 49.1215 22.0349 48.9374 22.1334C48.6231 22.3014 48.5961 22.3034 48.4949 22.1649C48.3722 21.9973 48.2676 22.0637 48.2261 22.3353C48.191 22.5654 48.1576 22.5993 47.9519 22.6145C47.8617 22.6212 47.7365 22.668 47.6736 22.7185C47.6109 22.769 47.1549 23.0126 46.6603 23.2596C46.1658 23.5066 45.5591 23.845 45.312 24.0115C44.7937 24.361 44.8137 24.3647 43.7793 23.7231C43.1702 23.3454 43.1679 23.3424 43.2343 23.0478C43.271 22.885 43.4367 22.5673 43.6023 22.3417C43.9946 21.8076 45.7165 20.1297 45.9476 20.0564C46.0461 20.0252 46.4347 19.625 46.8112 19.1673C47.6028 18.2048 48.7858 16.922 48.8817 16.922C48.9178 16.922 48.9442 17.1822 48.9402 17.5ZM47.0707 17.5486C47.2258 17.6394 47.3382 17.7573 47.3205 17.8104C47.2639 17.9803 47.0097 17.9674 46.7749 17.7827L46.5469 17.6034L46.3467 17.7914C46.0886 18.0339 46.0938 18.1209 46.3663 18.1209C46.6207 18.1209 46.9172 18.2608 46.9172 18.3808C46.9172 18.4262 46.8069 18.4634 46.6719 18.4634C46.5369 18.4634 46.3286 18.5405 46.2088 18.6347C46.0891 18.7289 45.8728 18.8059 45.7282 18.8059C45.5424 18.8059 45.4243 18.8686 45.3251 19.02C45.248 19.1378 45.1315 19.2341 45.0663 19.2341C45.001 19.2341 44.9477 19.2895 44.9477 19.3573C44.9477 19.4377 45.0817 19.5006 45.333 19.5383C45.8406 19.6144 45.827 19.748 45.3116 19.7477C44.9459 19.7476 44.8573 19.7052 44.4339 19.3279C44.1748 19.0971 43.8473 18.8094 43.706 18.6885L43.4491 18.4688L43.7759 18.4661C44.2704 18.462 44.4393 18.3407 44.3779 18.0335C44.3288 17.7883 44.3389 17.7783 44.6332 17.7783C44.8017 17.7783 45.0388 17.8235 45.16 17.8788C45.3286 17.9556 45.4041 17.9556 45.4809 17.8788C45.5361 17.8235 45.6507 17.7783 45.7355 17.7783C45.9328 17.7783 45.9357 17.6197 45.7398 17.543C45.6371 17.5029 45.7381 17.4546 46.0609 17.3899C46.5709 17.2876 46.6459 17.2994 47.0707 17.5486ZM55.8017 17.3716C55.7821 17.4305 55.7146 17.4786 55.6518 17.4786C55.5891 17.4786 55.5216 17.4305 55.502 17.3716C55.4807 17.3079 55.5415 17.2645 55.6518 17.2645C55.7622 17.2645 55.8229 17.3079 55.8017 17.3716ZM57.5688 17.6341C57.8143 17.9629 57.6634 18.1006 57.2075 17.964C57.0239 17.909 56.7166 17.864 56.5247 17.864C55.8456 17.864 56.0634 17.517 56.7981 17.4284C57.3608 17.3605 57.3655 17.3617 57.5688 17.6341ZM45.226 17.4925C45.1671 17.5163 45.0708 17.5163 45.0119 17.4925C44.9531 17.4688 45.0012 17.4493 45.1189 17.4493C45.2367 17.4493 45.2849 17.4688 45.226 17.4925ZM44.5413 18.4848C44.2283 18.7037 44.223 18.8389 44.5261 18.8701C44.7487 18.893 45.0868 18.5336 44.99 18.377C44.914 18.254 44.8488 18.2697 44.5413 18.4848ZM44.391 19.8949C44.4852 19.9433 44.7454 20.0094 44.9691 20.0419C45.1927 20.0743 45.3758 20.133 45.3758 20.1721C45.3758 20.3741 44.5943 20.4122 44.4333 20.2181C44.3743 20.147 44.1763 20.065 43.9934 20.0357C43.752 19.9971 43.6835 19.955 43.744 19.8821C43.8003 19.8144 43.7695 19.6865 43.6496 19.4894L43.4719 19.1971L43.8458 19.502C44.0515 19.6697 44.2968 19.8465 44.391 19.8949ZM43.0028 19.5124C43.0274 19.6183 43.1317 19.9284 43.2346 20.2013C43.463 20.8073 43.4236 20.9468 43.0236 20.9468C42.8502 20.9468 42.7212 20.9894 42.7212 21.0467C42.7212 21.1016 42.695 21.1204 42.663 21.0884C42.6311 21.0565 42.6847 20.9224 42.7822 20.7906C42.9188 20.6058 42.9547 20.4439 42.9389 20.0851C42.9277 19.829 42.8892 19.552 42.8534 19.4696C42.8163 19.384 42.8249 19.3197 42.8733 19.3197C42.9199 19.3197 42.9783 19.4065 43.0028 19.5124ZM44.1127 20.4715C44.3736 20.5273 44.4145 20.7076 44.2488 21.0712C44.1273 21.338 44.0539 21.3443 43.8845 21.1025C43.782 20.956 43.7758 20.8891 43.8558 20.7926C43.9382 20.6932 43.909 20.6297 43.7035 20.4616C43.4671 20.2684 43.4643 20.2595 43.6632 20.3373C43.7809 20.3834 43.9832 20.4438 44.1127 20.4715ZM51.496 21.0367C51.4146 21.1684 51.526 21.2533 51.636 21.1434C51.6975 21.0819 51.6989 21.034 51.6404 20.9979C51.5925 20.9683 51.5275 20.9857 51.496 21.0367ZM53.6138 21.0495C53.5573 21.106 53.511 21.209 53.511 21.2783C53.511 21.3475 53.448 21.4739 53.3709 21.5591C53.2402 21.7035 53.2445 21.7253 53.4351 21.8841C53.7104 22.1134 53.7665 22.1032 53.8797 21.8031C53.9331 21.6618 54.0261 21.5462 54.0864 21.5462C54.2518 21.5462 54.2181 21.3113 54.0248 21.118C53.8265 20.9197 53.7554 20.9079 53.6138 21.0495ZM45.1361 21.2208C44.9575 21.3993 45.0199 21.4422 45.5471 21.5034C45.8297 21.5362 46.0609 21.5936 46.0609 21.6311C46.0609 21.7367 46.2822 21.7964 46.4808 21.7444C46.7238 21.6809 46.7072 21.5612 46.4463 21.4958C46.3285 21.4662 46.2322 21.4137 46.2322 21.3792C46.2322 21.3046 45.6409 21.118 45.4044 21.118C45.3133 21.118 45.1926 21.1643 45.1361 21.2208ZM43.6632 21.8932C43.6632 21.9378 43.6293 21.9744 43.588 21.9744C43.4816 21.9744 43.3524 21.7963 43.2773 21.5462L43.2131 21.3321L43.4381 21.5721C43.5619 21.7039 43.6632 21.8485 43.6632 21.8932ZM51.1598 23.3386C51.1326 23.3824 51.1497 23.4425 51.1975 23.4721C51.2997 23.5352 51.4558 23.4551 51.4558 23.3395C51.4558 23.2352 51.224 23.2346 51.1598 23.3386ZM49.7943 23.5788C49.6912 23.6818 49.7475 23.7727 49.9144 23.7727C50.0086 23.7727 50.0857 23.7382 50.0857 23.6962C50.0857 23.6 49.8629 23.5101 49.7943 23.5788ZM38.9532 23.7298C39.2971 23.9076 39.6386 24.382 39.6372 24.6799C39.6357 25.0022 39.0303 26.1106 38.6022 26.5749C38.1735 27.0402 38.1503 27.3954 38.5252 27.7546C38.8234 28.0404 38.8472 28.14 38.6173 28.14C38.4428 28.14 38.3804 28.0692 37.5903 26.9755C37.3148 26.5941 37.0271 26.2581 36.951 26.2289C36.7051 26.1346 36.8018 25.9397 37.3149 25.4952C37.8856 25.0008 38.3987 24.2908 38.4822 23.8797C38.546 23.5658 38.6017 23.5481 38.9532 23.7298ZM59.7196 23.8797C59.8046 24.298 60.3117 24.9924 60.9262 25.5318L61.4744 26.0132L61.1079 26.3797C60.9062 26.5814 60.5897 26.9731 60.4045 27.2504C59.9414 27.9437 59.7587 28.14 59.5761 28.14C59.3545 28.14 59.3813 28.0376 59.6766 27.7546C60.0515 27.3954 60.0283 27.0402 59.5995 26.5749C59.1744 26.1137 58.5661 25.0031 58.5646 24.685C58.5631 24.3856 58.8404 23.9814 59.1961 23.7645C59.5654 23.5393 59.6544 23.5588 59.7196 23.8797ZM43.3429 24.7154C46.9119 26.8256 51.2898 26.8256 54.8589 24.7154C55.3376 24.4324 55.8188 24.2008 55.9284 24.2008C56.2283 24.2008 56.4832 24.421 56.5977 24.7791C56.7599 25.2868 57.2648 26.2088 57.586 26.5839L57.88 26.9276L57.217 27.3711C55.8107 28.3117 53.8374 29.1207 51.9696 29.5226C51.1852 29.6914 50.8192 29.7163 49.1009 29.7179C47.3668 29.7193 47.0238 29.6962 46.2322 29.5243C44.3548 29.1168 42.3885 28.3099 40.9848 27.3711L40.3217 26.9276L40.6158 26.5839C40.9369 26.2088 41.4418 25.2868 41.6041 24.7791C41.7186 24.421 41.9734 24.2008 42.2734 24.2008C42.3829 24.2008 42.8642 24.4324 43.3429 24.7154ZM40.9082 24.5729C40.9507 24.7938 40.2617 26.4264 40.0151 26.6889C39.7051 27.0189 39.747 27.3052 40.1522 27.6262C40.5342 27.9287 40.5962 28.1407 40.3021 28.1385C40.1798 28.1377 39.8821 27.9146 39.4872 27.528C38.7902 26.8455 38.7918 26.9627 39.469 26.2047C39.6835 25.9645 39.9883 25.5021 40.1463 25.1771C40.3044 24.8521 40.4727 24.5364 40.5205 24.4755C40.6394 24.3241 40.8715 24.3824 40.9082 24.5729ZM58.0139 25.1C58.2062 25.4757 58.5338 25.9731 58.7418 26.2051C59.4064 26.9462 59.4085 26.8485 58.712 27.5304C58.319 27.9153 58.0219 28.1377 57.8997 28.1385C57.6056 28.1407 57.6676 27.9287 58.0496 27.6262C58.4546 27.3054 58.4966 27.0192 58.1872 26.6889C57.9754 26.4628 57.2789 24.8838 57.2789 24.6298C57.2789 24.5508 57.3059 24.4593 57.3389 24.4262C57.4929 24.2723 57.6921 24.4712 58.0139 25.1ZM41.572 25.8561C41.0616 26.3664 41.4705 26.9657 42.4839 27.1928C42.7887 27.2611 43.0055 27.2431 43.5845 27.1014C44.4471 26.8902 45.1302 26.8585 45.3254 27.0204C45.4025 27.0845 45.4873 27.1151 45.5138 27.0886C45.5989 27.0035 45.1662 26.7758 44.9028 26.767C44.7626 26.7624 44.1449 26.7859 43.5301 26.8193C42.374 26.8819 41.9228 26.8156 41.65 26.5427C41.3797 26.2726 41.5953 25.8279 41.9964 25.8279C42.1092 25.8279 42.3799 25.8884 42.5979 25.9625C42.8159 26.0365 43.0135 26.0779 43.037 26.0545C43.1149 25.9765 42.5586 25.7402 42.1729 25.6873C41.8411 25.6418 41.7648 25.6633 41.572 25.8561ZM55.6197 25.7824C55.2262 25.9227 54.9666 26.1445 55.3093 26.0475C55.4271 26.0142 55.6669 25.9467 55.8423 25.8976C56.2416 25.7857 56.566 25.8621 56.6367 26.0849C56.7319 26.385 56.5998 26.5821 56.2014 26.7343C55.8742 26.8592 55.6487 26.8719 54.6855 26.8199C54.0631 26.7861 53.4392 26.7624 53.299 26.767C53.0356 26.7758 52.6029 27.0035 52.688 27.0886C52.7144 27.1151 52.7992 27.0845 52.8764 27.0204C53.0715 26.8585 53.7547 26.8902 54.6173 27.1014C55.1963 27.2431 55.4131 27.2611 55.7179 27.1928C56.7216 26.9678 57.1402 26.3664 56.6405 25.8668C56.4022 25.6285 56.1175 25.605 55.6197 25.7824ZM46.3325 26.676C46.4115 26.8025 46.4102 26.9513 46.3265 27.3396C46.1137 28.3273 46.0578 28.4825 45.9149 28.4825C45.6631 28.4825 45.8955 28.609 46.3249 28.7057C46.7462 28.8006 46.8295 28.7716 46.6506 28.5926C46.5804 28.5225 46.6031 28.279 46.7362 27.674C46.9898 26.521 46.9886 26.5129 46.574 26.5129C46.2579 26.5129 46.2388 26.5259 46.3325 26.676ZM50.9529 26.6924C50.2061 27.3883 50.7908 28.9848 51.7179 28.7811C52.0169 28.7154 52.3121 28.3677 52.3121 28.0813C52.3121 27.812 52.0991 27.4044 51.9229 27.3368C51.6938 27.2489 51.3258 27.2767 51.2103 27.3907C51.1229 27.4769 51.1071 27.4327 51.1289 27.1638C51.1461 26.9535 51.214 26.7951 51.3125 26.7357C51.4434 26.6568 51.5098 26.6899 51.7193 26.9379L51.9696 27.2343V26.8736V26.5129H51.5576C51.2577 26.5129 51.0931 26.5618 50.9529 26.6924ZM47.4855 26.8825C47.456 27.0001 47.4065 27.1623 47.3756 27.2428C47.3268 27.3699 47.344 27.376 47.5062 27.2892C47.609 27.2342 47.8942 27.2008 48.1401 27.215L48.5871 27.2408L48.1712 27.6877C47.7858 28.1017 47.4792 28.6951 47.5726 28.8462C47.5945 28.8817 47.7403 28.9107 47.8965 28.9107C48.179 28.9107 48.1808 28.9081 48.2195 28.4398C48.2499 28.0748 48.3195 27.8931 48.5289 27.6325C48.8086 27.2844 49.0266 26.8793 48.9649 26.8219C48.9455 26.8038 48.6168 26.7619 48.2344 26.7287C47.5431 26.6687 47.5389 26.6696 47.4855 26.8825ZM49.1793 26.974C48.8712 27.2821 48.868 27.2927 48.9013 27.8813C48.9305 28.3979 48.9678 28.5112 49.1838 28.7365C49.6822 29.2567 50.4672 28.9442 50.4672 28.2256C50.4672 27.9373 50.4193 27.8237 50.2288 27.6599C49.9844 27.4497 49.6232 27.388 49.5291 27.5405C49.4532 27.6633 49.3141 27.6464 49.3533 27.5191C49.3715 27.4603 49.4085 27.3104 49.4355 27.186C49.5294 26.7549 49.9141 26.8089 50.1069 27.2801L50.1959 27.4977L50.2826 27.2157C50.3907 26.8646 50.3102 26.7722 49.8415 26.7093C49.5238 26.6667 49.4618 26.6915 49.1793 26.974ZM44.5837 27.0336C44.4256 27.1257 44.3731 27.5405 44.5195 27.5405C44.5666 27.5405 44.6051 27.4642 44.6051 27.3709C44.6051 27.2598 44.6817 27.1821 44.8273 27.1455C44.9915 27.1043 45.0195 27.0707 44.9344 27.0167C44.7902 26.9254 44.7677 26.9265 44.5837 27.0336ZM53.2674 27.0167C53.1823 27.0707 53.2103 27.1043 53.3744 27.1455C53.5201 27.1821 53.5966 27.2598 53.5966 27.3709C53.5966 27.5712 53.7281 27.5966 53.7996 27.4101C53.8272 27.3384 53.7736 27.2037 53.6803 27.1104C53.4926 26.9227 53.436 26.9099 53.2674 27.0167ZM51.6242 27.58C51.7787 27.7661 51.839 28.3731 51.7176 28.5194C51.5581 28.7116 51.3813 28.5849 51.2791 28.2053C51.1231 27.6263 51.3387 27.2359 51.6242 27.58ZM49.8084 27.7332C50.0602 28.0458 49.9831 28.825 49.7003 28.825C49.4502 28.825 49.3082 28.1301 49.4892 27.7918C49.592 27.5999 49.687 27.5825 49.8084 27.7332ZM87.8719 31.8775C87.2893 32.1647 87.0664 33.0026 87.4204 33.5753C87.6435 33.9362 88.1664 34.1718 88.6117 34.1121C88.9494 34.0668 88.9515 34.0684 89.0069 34.3963C89.0872 34.872 88.908 35.6081 88.6124 36.0161C88.36 36.3646 87.8326 36.7546 87.3351 36.9607C87.0774 37.0674 87.002 37.2449 87.1702 37.3488C87.2909 37.4234 88.0165 37.1056 88.6749 36.6898C89.7335 36.0212 90.2455 35.2011 90.2469 34.1713C90.2481 33.3021 90.0574 32.7405 89.6085 32.2917C89.0756 31.7588 88.4267 31.6039 87.8719 31.8775ZM50.4375 32.0861C49.3478 32.3001 48.232 33.1471 47.7508 34.1253C47.4908 34.6539 47.4741 34.7433 47.4774 35.5887C47.484 37.2597 47.9619 37.9548 49.9014 39.1146C52.7613 40.8249 53.9678 41.7619 54.2452 42.4883C54.5372 43.253 54.253 44.5247 53.6683 45.0698C53.4086 45.3119 52.7884 45.5858 52.3364 45.6581C52.1417 45.6892 51.724 45.6697 51.4081 45.6146C49.9081 45.3534 48.7087 44.2155 48.1717 42.5441C48.0254 42.0887 47.9518 41.9698 47.8161 41.9698C47.6502 41.9698 47.6444 42.0355 47.6222 44.177C47.596 46.7068 47.6077 46.7458 48.212 46.1559C48.5139 45.8612 48.5987 45.8241 48.9553 45.8305C49.2047 45.835 49.5857 45.938 49.9572 46.1014C50.6782 46.4186 51.3482 46.5512 52.2305 46.5512C53.5376 46.5512 54.4486 46.2211 55.3435 45.4235C56.322 44.5514 56.7327 43.108 56.3871 41.7557C56.0654 40.4965 55.3675 39.7633 53.3202 38.5335C50.4023 36.7807 49.7351 36.2924 49.4747 35.7193C49.0219 34.7228 49.6576 33.4064 50.7374 33.1041C51.7646 32.8165 53.185 33.2386 53.9584 34.0612C54.3973 34.5281 54.9274 35.4994 55.018 36.0028C55.0932 36.4202 55.2087 36.5655 55.3635 36.437C55.4566 36.3597 55.4806 35.915 55.4806 34.2628C55.4806 31.8792 55.4645 31.8208 54.9244 32.25C54.5311 32.5626 54.0395 32.5915 53.3208 32.3442C52.4061 32.0295 51.2517 31.9262 50.4375 32.0861ZM93.8402 32.1044C92.4301 32.4254 91.2344 33.6014 90.9488 34.9483C90.8195 35.5582 90.9575 36.5219 91.2696 37.1889C91.6024 37.9 92.1051 38.3711 93.2229 39.0194C94.8405 39.9576 96.6114 41.1703 97.1468 41.7065C97.7556 42.3162 97.9226 42.7544 97.8424 43.5315C97.6512 45.3843 95.7935 46.2043 93.855 45.2917C92.9169 44.85 91.9801 43.6569 91.6207 42.4462C91.512 42.0803 91.4407 41.9698 91.313 41.9698C91.1535 41.9698 91.146 42.0573 91.124 44.177C91.0983 46.6666 91.1124 46.7199 91.6549 46.1774C91.8259 46.0064 92.0819 45.851 92.2426 45.8209C92.5218 45.7686 92.6562 45.8067 94.0156 46.3238C94.4137 46.4753 94.6796 46.5034 95.7348 46.5057L96.983 46.5083L97.709 46.1486C98.5778 45.718 99.1003 45.2753 99.4712 44.6554C100.483 42.9632 100.006 40.776 98.3524 39.5322C98.1102 39.35 97.2569 38.8066 96.4562 38.3249C93.8444 36.7533 93.2864 36.337 92.9706 35.724C92.5032 34.8166 93.0711 33.4992 94.0776 33.1563C94.9021 32.8753 96.1196 33.075 96.9549 33.6283C97.4927 33.9845 98.096 34.8471 98.379 35.6644C98.6731 36.5139 98.707 36.5684 98.8615 36.4401C98.9595 36.3588 98.9824 35.9463 98.9824 34.2628C98.9824 31.9097 98.9573 31.8095 98.4715 32.2183C98.0739 32.5528 97.5763 32.5741 96.6274 32.2971C95.7053 32.0277 94.5327 31.9466 93.8402 32.1044ZM12.7584 32.243C12.5528 32.3733 12.7193 32.5927 13.0251 32.5948C13.4209 32.5975 13.9923 32.8777 14.1772 33.16C14.325 33.3856 14.3337 33.73 14.3337 39.3542C14.3337 44.9582 14.3245 45.3229 14.1788 45.5376C13.989 45.8173 13.5765 46.0212 13.0562 46.0925C12.7498 46.1345 12.6639 46.1812 12.6639 46.3059C12.6639 46.4584 12.7897 46.4655 15.4898 46.4655C18.1899 46.4655 18.3157 46.4584 18.3157 46.3059C18.3157 46.1812 18.2298 46.1345 17.9233 46.0925C17.3674 46.0163 16.9615 45.8004 16.7919 45.4906C16.6642 45.2575 16.6426 44.8697 16.62 42.4194L16.5943 39.6149H19.7714H22.9485L22.9228 42.4194C22.9003 44.8697 22.8786 45.2575 22.751 45.4906C22.5813 45.8004 22.1755 46.0163 21.6196 46.0925C21.3131 46.1345 21.2272 46.1812 21.2272 46.3059C21.2272 46.4584 21.353 46.4655 24.0531 46.4655C26.7532 46.4655 26.879 46.4584 26.879 46.3059C26.879 46.1812 26.7931 46.1345 26.4866 46.0925C25.9307 46.0163 25.5249 45.8004 25.3552 45.4906C25.2216 45.2465 25.2092 44.7228 25.2092 39.3114C25.2092 33.7286 25.2179 33.3855 25.3657 33.16C25.5507 32.8777 26.122 32.5975 26.5177 32.5948C26.8236 32.5927 26.9901 32.3733 26.7845 32.243C26.6284 32.1443 21.4779 32.1443 21.3217 32.243C21.1161 32.3733 21.2826 32.5927 21.5885 32.5948C21.9841 32.5975 22.5555 32.8777 22.7405 33.1598C22.8835 33.3779 22.8971 33.6247 22.8971 36.0143V38.6301H19.7714H16.6458V36.0143C16.6458 33.6247 16.6593 33.3779 16.8024 33.1598C16.9873 32.8777 17.5588 32.5975 17.9544 32.5948C18.2603 32.5927 18.4267 32.3733 18.2211 32.243C18.1554 32.2014 16.9263 32.1674 15.4898 32.1674C14.0533 32.1674 12.8242 32.2014 12.7584 32.243ZM27.8299 32.243C27.6243 32.3733 27.7907 32.5927 28.0966 32.5948C28.2511 32.5958 28.5363 32.6687 28.7301 32.7568C29.4075 33.0643 29.3624 32.5978 29.3624 39.2956C29.3624 44.3629 29.3434 45.312 29.2377 45.5163C29.0905 45.8009 28.6729 46.0177 28.1277 46.0925C27.8212 46.1345 27.7353 46.1812 27.7353 46.3059C27.7353 46.4584 27.8611 46.4655 30.5612 46.4655C33.2652 46.4655 33.3871 46.4586 33.3871 46.3053C33.3871 46.177 33.299 46.1334 32.9456 46.0865C32.3966 46.0136 32.0897 45.859 31.8798 45.5493C31.73 45.3281 31.7153 45.0942 31.6915 42.5478L31.6657 39.7861L32.2481 39.7895L32.8305 39.7929L35.2283 42.9725C36.99 45.3088 37.7055 46.194 37.9257 46.3097C38.2062 46.457 38.4843 46.4656 42.2502 46.4449C45.7104 46.4258 46.275 46.4052 46.275 46.2978C46.275 46.2143 46.113 46.1404 45.7871 46.0751C45.5188 46.0213 45.1976 45.9108 45.0735 45.8294C44.5931 45.5147 44.5996 45.6118 44.6248 39.1787L44.6479 33.2648L44.9608 32.9782C45.1896 32.7685 45.3849 32.6766 45.6887 32.6358C45.917 32.6052 46.1519 32.5649 46.2108 32.5464C46.3879 32.4906 46.3313 32.274 46.1251 32.2187C45.7735 32.1245 40.9235 32.1584 40.7405 32.2564C40.5011 32.3845 40.6853 32.5923 41.0404 32.5948C41.1878 32.5958 41.4695 32.6699 41.6665 32.7593C42.3262 33.0588 42.293 32.7072 42.293 39.4051V45.3694L42.0096 45.6529C41.849 45.8134 41.5636 45.9802 41.3515 46.0373C40.3752 46.3002 40.0357 45.9946 37.4092 42.4885C36.2333 40.9186 35.2711 39.6157 35.2711 39.5932C35.2711 39.5707 35.496 39.4702 35.7708 39.3699C36.8904 38.9617 37.7485 38.2092 38.2136 37.2277C38.4591 36.7096 38.4823 36.5864 38.4823 35.8042C38.4823 35.0325 38.4577 34.8977 38.2336 34.4406C37.6963 33.345 36.4349 32.4292 35.2212 32.2537C34.4898 32.1481 27.9948 32.1386 27.8299 32.243ZM56.2927 32.2718C56.2714 32.3307 56.2437 33.0522 56.2312 33.8752C56.211 35.2007 56.2244 35.3746 56.348 35.3995C56.4553 35.421 56.5013 35.3327 56.5477 35.0163C56.6355 34.4172 56.8752 33.9327 57.2104 33.6771C57.7457 33.2688 58.1231 33.1924 59.6018 33.1924H60.9611V39.2338C60.9611 44.3552 60.9421 45.3119 60.8364 45.5163C60.6892 45.8009 60.2716 46.0177 59.7265 46.0925C59.42 46.1345 59.3341 46.1812 59.3341 46.3059C59.3341 46.4584 59.4599 46.4655 62.16 46.4655C64.8601 46.4655 64.9859 46.4584 64.9859 46.3059C64.9859 46.1812 64.9 46.1345 64.5935 46.0925C64.0733 46.0212 63.6608 45.8173 63.4709 45.5376C63.3257 45.3237 63.3145 44.9313 63.2919 39.2455L63.2677 33.1815L64.7933 33.2084C66.2341 33.2337 66.3424 33.2473 66.7434 33.454C67.2939 33.7376 67.6149 34.1979 67.7431 34.887C67.8196 35.2981 67.8749 35.4192 67.9774 35.3993C68.0928 35.3769 68.1115 35.171 68.1115 33.9189C68.1115 33.119 68.0838 32.397 68.0499 32.3146C67.9922 32.174 67.6303 32.1647 62.16 32.1647C57.575 32.1647 56.3233 32.1876 56.2927 32.2718ZM68.6418 32.2247C68.5542 32.2474 68.4989 32.3263 68.5143 32.4064C68.5338 32.5072 68.6773 32.5672 69.0116 32.6144C69.562 32.6922 69.8523 32.8777 70.0595 33.2841C70.1977 33.555 70.2093 34.0233 70.2094 39.3393C70.2095 45.591 70.2148 45.5191 69.7412 45.8294C69.617 45.9108 69.2958 46.0213 69.0275 46.0751C68.7017 46.1404 68.5397 46.2143 68.5397 46.2978C68.5397 46.4043 68.9537 46.4261 71.3442 46.4453C74.1054 46.4675 74.1487 46.4652 74.1487 46.2955C74.1487 46.1739 74.0919 46.1228 73.956 46.1225C73.5584 46.1215 73.077 45.9248 72.804 45.6518L72.5216 45.3694V39.4051C72.5216 32.7072 72.4885 33.0588 73.1481 32.7593C73.3452 32.6699 73.6329 32.5958 73.7874 32.5948C74.0933 32.5927 74.2597 32.3733 74.0541 32.243C73.9338 32.1669 68.9304 32.1499 68.6418 32.2247ZM75.4974 32.2234C75.3253 32.2688 75.2951 32.4961 75.4546 32.5464C75.5135 32.5649 75.7484 32.6052 75.9767 32.6358C76.2804 32.6766 76.4758 32.7685 76.7046 32.9782L77.0174 33.2648L77.0405 39.1787C77.0657 45.6118 77.0722 45.5147 76.5919 45.8294C76.4677 45.9108 76.1465 46.0213 75.8782 46.0751C75.5524 46.1404 75.3904 46.2143 75.3904 46.2978C75.3904 46.4058 76.1289 46.4255 80.8281 46.4434L86.2658 46.4642L86.8131 44.7207C87.3124 43.1305 87.3762 42.7833 87.1694 42.7833C87.1303 42.7833 86.9655 43.0629 86.8032 43.4047C86.4632 44.1207 85.939 44.6865 85.287 45.0412C84.4843 45.4778 84.156 45.5214 81.663 45.5225L79.3723 45.5236V42.3123V39.1011H81.6386H83.9049L84.1929 39.3539C84.4786 39.6048 84.6816 40.078 84.6816 40.4934C84.6816 40.6991 84.8636 40.86 84.9729 40.7507C85.0011 40.7226 85.0241 39.7398 85.0241 38.5667C85.0241 36.6197 85.0116 36.4363 84.881 36.4616C84.7825 36.4806 84.7079 36.639 84.6421 36.9692C84.5346 37.5076 84.3466 37.8429 84.0607 38.0062C83.921 38.086 83.2504 38.1239 81.6202 38.144L79.3723 38.1717V35.6773V33.1828L81.8771 33.209C84.2535 33.2338 84.3994 33.2447 84.7244 33.42C85.3709 33.7688 85.6667 34.2076 85.7826 34.9896C85.8226 35.2601 85.8841 35.3826 85.9903 35.4031C86.1308 35.4301 86.1396 35.3203 86.1178 33.8199L86.0945 32.2076L80.8709 32.1957C77.9979 32.1892 75.5798 32.2017 75.4974 32.2234ZM5.3279 32.4139C1.8964 33.2574 -0.445163 36.7729 0.071378 40.3057C0.650859 44.2684 3.65282 46.8662 7.34234 46.5977C9.30694 46.4548 10.9038 45.7151 12.1058 44.3911C12.6614 43.7793 12.8566 43.4528 12.7825 43.2597C12.689 43.0161 12.5131 43.1196 12.0767 43.6749C11.1023 44.9148 9.29162 45.7805 7.67254 45.7805C6.99775 45.7805 5.94763 45.52 5.35719 45.206C5.11347 45.0765 4.62074 44.6807 4.26219 44.3264C3.72596 43.7966 3.54133 43.5382 3.2208 42.8689C2.57761 41.5259 2.32551 40.0488 2.47528 38.5016C2.73954 35.7726 4.01951 33.869 6.05381 33.1802C6.86785 32.9044 8.11381 32.903 8.9108 33.1768C10.117 33.5913 11.1219 34.5324 11.83 35.9108C12.0297 36.2991 12.2411 36.6171 12.2999 36.6173C12.3736 36.6176 12.407 36.4591 12.407 36.109C12.407 35.532 12.1674 32.5208 12.1084 32.3574C12.0386 32.1637 11.7814 32.2454 11.5023 32.5501C11.1747 32.9078 10.909 32.9319 10.1377 32.6736C8.85668 32.2446 6.52797 32.1189 5.3279 32.4139ZM34.2931 33.2896C34.8653 33.5014 35.3459 33.9234 35.6592 34.4889C35.8978 34.9197 35.9133 35.0056 35.9133 35.8898C35.9132 37.0197 35.7337 37.5195 35.1265 38.0791C34.491 38.665 34.1143 38.7867 32.8091 38.8281L31.6745 38.864V36.1117V33.3593L31.91 33.2676C32.599 32.9993 33.5319 33.0079 34.2931 33.2896Z" fill="white"/>
</svg>
