<svg width="79" height="20" viewBox="0 0 79 20" fill="none" xmlns="http://www.w3.org/2000/svg">
<path fill-rule="evenodd" clipRule="evenodd" d="M28.3374 0.0345732C23.2232 0.193733 20.485 0.889426 17.7648 2.72079C16.5638 3.5294 15.2139 4.67031 13.6438 6.20375C12.5919 7.23123 3.41416 16.3373 1.63596 18.1179L0 19.7561H5.56276H11.1255L11.7984 19.1001C16.3539 14.6588 20.5021 10.6745 21.261 10.0114C23.2804 8.24703 24.7658 7.68555 27.9824 7.47083C29.1499 7.39289 31.591 7.37903 44.2967 7.37838L57.6321 7.37767L61.3209 3.68883L65.0096 0L47.0748 0.00481555C37.2107 0.00743941 28.7789 0.0208365 28.3374 0.0345732ZM57.2307 9.87805L47.3527 19.7561H53.2972H59.2416L69.1208 9.87805L79 0H73.0544H67.1087L57.2307 9.87805ZM29.6957 8.63329C27.2998 8.69491 25.6646 8.93689 24.4788 9.40529C23.6159 9.74615 22.6552 10.3814 21.7778 11.1913C21.6335 11.3245 19.6332 13.3059 17.3327 15.5944L13.1499 19.7553L18.336 19.7557L23.5222 19.7561L24.8802 18.3955C25.6272 17.6473 26.3795 16.9123 26.5521 16.7622C27.5414 15.9022 28.3242 15.6235 30.0198 15.5276C30.3537 15.5088 34.179 15.4969 40.0368 15.4967L49.5136 15.4962L52.9554 12.0543L56.3972 8.61242L43.2008 8.61888C35.9427 8.62243 29.8654 8.62891 29.6957 8.63329ZM64.2843 17.4718V17.657H64.6701H65.056V18.7066V19.7561H65.2721H65.4882V18.7066V17.657H65.874H66.2599V17.4718V17.2866H65.2721H64.2843V17.4718ZM66.5686 18.5202V19.7561H66.7692H66.9699L66.9714 18.8069L66.973 17.8577L67.0955 18.1972C67.1628 18.384 67.3167 18.8111 67.4375 19.1464L67.6571 19.7561H67.8347H68.0124L68.2593 19.0693C68.3951 18.6915 68.546 18.2713 68.5947 18.1355L68.6831 17.8885L68.6913 18.8223L68.6994 19.7561H68.9151H69.1307V18.5213V17.2866H68.8242H68.5178L68.4586 17.4486C68.4261 17.5378 68.2773 17.9688 68.128 18.4064C67.9787 18.8441 67.8495 19.1952 67.841 19.1867C67.8324 19.1781 67.6776 18.7506 67.4968 18.2366L67.1681 17.302L66.8683 17.2932L66.5686 17.2844V18.5202Z" fill="white"/>
</svg>
