<svg width="75" height="33" viewBox="0 0 75 33" fill="none" xmlns="http://www.w3.org/2000/svg">
<path fill-rule="evenodd" clipRule="evenodd" d="M0 10.926V21.8421H2.84829C4.4149 21.8421 5.71712 21.8083 5.74226 21.767C5.76739 21.7257 5.80385 21.2464 5.82328 20.7019C5.85823 19.7244 5.85542 19.7107 5.60826 19.6147C5.47056 19.5612 4.94168 19.5072 4.43303 19.4948C3.29545 19.4671 3.06431 19.3244 3.12881 18.6894C3.15414 18.4395 3.11278 18.1982 3.01985 18.053C2.89496 17.8579 2.89256 17.8051 3.00593 17.7351C3.11799 17.6658 3.11889 17.6236 3.01103 17.4937C2.90628 17.3674 2.90398 17.2422 2.99962 16.8624C3.07903 16.547 3.08474 16.3774 3.01664 16.3547C2.77709 16.2749 2.40354 15.9056 2.40354 15.7486C2.40354 15.5775 2.96016 14.8312 3.08685 14.8323C3.1241 14.8327 3.23166 14.9683 3.3258 15.1337C3.62894 15.6665 4.24846 15.7483 4.36813 15.2714L4.42822 15.032L6.0447 15.0364C7.19049 15.0395 7.77795 15.0828 8.06187 15.1852C8.52636 15.3525 8.61268 15.3627 8.61268 15.2509C8.61268 14.9759 7.57525 14.7458 5.13837 14.4803C4.60839 14.4226 4.51365 14.3819 4.48741 14.2001C4.45997 14.0111 4.24836 13.8276 3.64777 13.4722C3.47412 13.3694 3.47852 13.3159 3.74491 12.2917C3.97035 11.4252 4.00019 11.19 3.89994 11.0692C3.69915 10.8272 3.94591 10.161 4.30524 9.97519C4.72065 9.76037 8.59586 9.75667 9.20205 9.97058C10.0991 10.287 11.0187 11.103 11.4075 11.9275C11.6419 12.4248 11.6672 12.5949 11.6672 13.68C11.6672 14.341 11.6334 15.017 11.5923 15.1823C11.5261 15.4478 11.5514 15.5001 11.8108 15.6329C13.3854 16.439 14.1718 17.7279 14.1633 19.4886C14.1594 20.2678 14.1074 20.4581 13.5533 21.7179C13.5089 21.8185 14.4535 21.8388 18.2267 21.818L22.9557 21.792L23.6207 19.8892L24.2858 17.9864L28.0914 17.9608L31.897 17.9354L32.5595 19.8636L33.2221 21.792L38.8438 21.8178L44.4655 21.8438V18.1875V14.5313H45.8938H47.3222L49.9105 18.1867L52.4989 21.8421H63.4542H74.4096V19.3384V16.8347H69.3521H64.2947V8.4223V0.0099146H61.441H58.5872L58.5617 10.3982L58.5362 20.7866L56.1041 17.3576C54.7664 15.4716 53.6511 13.8726 53.6255 13.8042C53.5995 13.7351 53.7668 13.5729 54.0029 13.4383C54.2361 13.3053 54.6711 12.9673 54.9697 12.6872C56.3434 11.3984 56.9814 9.62517 56.9831 7.09114C56.9841 5.71421 56.7718 4.67619 56.2823 3.6653C55.449 1.94396 53.9958 0.867377 51.6632 0.243058C51.1026 0.093037 50.2796 0.0679 44.8911 0.0361532L38.7571 0L38.7522 10.2951L38.7472 20.5902L35.1458 10.9761C33.1649 5.68828 31.4279 1.05706 31.2857 0.684408L31.0271 0.00691017L28.1149 0.0334493L25.2026 0.0599883L21.8415 9.04872C19.9928 13.9926 18.4471 18.026 18.4063 18.0119C18.2598 17.9613 12.814 10.1818 12.8534 10.0794C12.8756 10.0218 14.6414 7.78887 16.7773 5.11743C18.9132 2.446 20.7046 0.204 20.7581 0.135099C20.8354 0.0354522 20.1186 0.0099146 17.2471 0.0099146H13.6391L9.79893 4.81168L5.95877 9.61345L5.93274 4.81168L5.9068 0.0099146H2.95335H0V10.926ZM49.5641 4.77353C50.7114 5.11423 51.3486 6.20434 51.2534 7.66328C51.1794 8.79555 50.7794 9.40475 49.8222 9.84299C49.3542 10.0572 49.1692 10.0739 46.8941 10.1073L44.4655 10.143V7.37987V4.6167H46.7506C48.5334 4.6167 49.1521 4.65115 49.5641 4.77353ZM29.335 9.89457L30.5048 13.5799L29.329 13.6079C28.6822 13.6234 27.5948 13.6234 26.9124 13.6079L25.6717 13.5799L26.8759 9.85211C27.5383 7.80179 28.0992 6.14345 28.1226 6.16678C28.1459 6.19021 28.6915 7.86768 29.335 9.89457ZM10.963 17.3481L10.7993 18.0163L11.2241 18.9308C11.4578 19.4337 11.6962 19.8294 11.754 19.8102C12.1388 19.6819 12.3672 17.6302 12.0672 16.9977C11.9354 16.72 11.8666 16.68 11.5216 16.68H11.1268L10.963 17.3481ZM18.4384 22.996C15.4386 23.8355 13.9282 27.1936 15.2724 30.0349C15.8977 31.3566 17.1604 32.3457 18.6073 32.6475C19.3445 32.8012 20.5617 32.7832 21.3068 32.6075C22.0166 32.4402 23.1489 31.8998 23.6194 31.5039L23.9352 31.2381V29.0938V26.9496H21.7821H19.6289V28.0011V29.0527H20.6304H21.6319V29.6086C21.6319 30.1552 21.6255 30.1672 21.2563 30.3276C20.7567 30.5445 19.6298 30.6093 19.072 30.453C18.4972 30.2921 17.8129 29.6872 17.5185 29.0797C17.1739 28.3689 17.1866 27.1879 17.5462 26.4989C17.6899 26.2235 17.9357 25.8769 18.0923 25.7287C19.0248 24.8461 20.5343 24.8278 21.7267 25.6844L22.2241 26.0417L22.9325 25.1778C23.322 24.7026 23.6258 24.2646 23.6075 24.2045C23.5474 24.0084 22.3959 23.2946 21.8321 23.1041C21.0768 22.8489 19.1796 22.7885 18.4384 22.996ZM0.200295 27.8019V32.56L4.32136 32.5339L8.44233 32.5078L8.57733 32.1072C8.65154 31.8869 8.78373 31.515 8.87106 31.281L9.0298 30.8553H10.6678H12.3057L12.5829 31.7066L12.8601 32.5578H14.1881H15.516L15.3158 32.0321C15.2055 31.7429 14.4056 29.6135 13.538 27.3001L11.9607 23.0939H10.6649H9.3691L8.0144 26.7227L6.65981 30.3516L4.68189 30.3531L2.70398 30.3546V26.6992V23.0438H1.45214H0.200295V27.8019ZM24.8366 27.8008V32.5578H28.6923H32.5479V31.4562V30.3546H29.9441H27.3403V29.5033V28.6521H29.6437H31.947V27.6506V26.6491H29.6437H27.3403V25.848V25.0468H29.894H32.4478V24.0453V23.0438H28.6422H24.8366V27.8008ZM33.3491 27.8008V32.5578H34.601H35.8528V31.0056V29.4533H36.3964H36.9399L38.0238 31.0021L39.1076 32.551L41.8366 32.5544L44.5656 32.5578V30.7552V28.9525H46.5185H48.4714V27.9511V26.9496H46.5185H44.5656V25.9982V25.0468H46.869H49.1724V24.0453V23.0438H45.6182H42.0639L42.0379 27.719L42.0119 32.3943L40.931 30.8707C40.3365 30.0327 39.8322 29.2921 39.8103 29.2249C39.7884 29.1577 39.9583 28.9665 40.1879 28.7998C40.9741 28.229 41.3609 27.3501 41.3609 26.134C41.3609 25.2277 41.0852 24.5078 40.5357 23.9786C39.6513 23.1273 39.2572 23.0465 35.978 23.045L33.3491 23.0438V27.8008ZM49.6731 27.8008V32.5578H53.5288H57.3845V31.4562V30.3546H54.7807H52.1768V29.5051V28.6558L54.5053 28.6289L56.8337 28.602V27.6506V26.6992L54.5053 26.6724L52.1768 26.6454V25.8462V25.0468H54.7306H57.2844V24.0453V23.0438H53.4787H49.6731V27.8008ZM58.2858 27.8008V32.5578H61.7409H65.196V31.4562V30.3546H62.9928H60.7895V26.6992V23.0438H59.5377H58.2858V27.8008ZM65.7969 27.8008V32.5578H68.3112C70.2794 32.5578 70.9591 32.5234 71.4408 32.3992C73.4995 31.8685 74.6099 30.2575 74.6099 27.8008C74.6099 25.8363 73.8782 24.3837 72.5255 23.6627C71.4907 23.1112 71.0285 23.0438 68.2795 23.0438H65.7969V27.8008ZM38.2563 25.2222C38.9878 25.5876 39.0526 26.7607 38.3667 27.2216C38.0644 27.4249 37.9053 27.4503 36.9396 27.4503H35.8528V26.2486V25.0468L36.8793 25.047C37.6559 25.0471 37.9911 25.0897 38.2563 25.2222ZM70.6141 25.361C71.1288 25.5334 71.582 25.9125 71.8317 26.3795C72.0214 26.7343 72.0561 26.9551 72.0561 27.8035C72.0561 28.6834 72.0245 28.8692 71.8003 29.3058C71.4017 30.082 70.9399 30.2919 69.5274 30.3388L68.4007 30.3762V27.8117V25.2471H69.3372C69.8523 25.2471 70.4268 25.2984 70.6141 25.361ZM11.6149 28.8273C11.6165 28.9194 11.3491 28.9525 10.6049 28.9525C9.83698 28.9525 9.60404 28.9223 9.63939 28.8273C9.66513 28.7585 9.90619 28.0351 10.1751 27.2199L10.6639 25.7375L11.1383 27.2199C11.3993 28.0351 11.6137 28.7585 11.6149 28.8273Z" fill="white"/>
</svg>
