<svg width="115" height="29" viewBox="0 0 115 29" fill="none" xmlns="http://www.w3.org/2000/svg">
<path d="M13.1794 5.67188V2.04688H1.75V26.9528H13.1794V23.3278C10.8381 23.3278 8.59264 22.3976 6.93711 20.7421C5.28155 19.0865 4.35147 16.8411 4.35147 14.4998C4.35147 12.1585 5.28155 9.91305 6.93711 8.25752C8.59264 6.60196 10.8381 5.67188 13.1794 5.67188Z" fill="#EFEFEF"/>
<path d="M13.1797 5.67188V23.3278C15.521 23.3278 17.7665 22.3976 19.422 20.7421C21.0776 19.0865 22.0076 16.8411 22.0076 14.4998C22.0076 12.1585 21.0776 9.91305 19.422 8.25752C17.7665 6.60197 15.521 5.67188 13.1797 5.67188Z" fill="#EFEFEF"/>
<path d="M28.4219 7.89062H30.9807V20.2156H28.4219V7.89062Z" fill="#EFEFEF"/>
<path d="M32.4145 15.9935C32.4145 15.1068 32.6778 14.24 33.1709 13.5031C33.6641 12.7661 34.365 12.1922 35.1847 11.854C36.0045 11.5159 36.9061 11.4287 37.7755 11.6036C38.6448 11.7784 39.4426 12.2074 40.0678 12.8362C40.693 13.4651 41.1175 14.2653 41.2874 15.1357C41.4573 16.006 41.365 16.9071 41.0221 17.7249C40.6792 18.5427 40.1013 19.2403 39.3616 19.7292C38.6218 20.2182 37.7535 20.4764 36.8668 20.4714C36.2787 20.476 35.6956 20.3632 35.1516 20.1394C34.6077 19.9156 34.1139 19.5856 33.6992 19.1685C33.2845 18.7515 32.9573 18.2557 32.7366 17.7105C32.5161 17.1653 32.4065 16.5816 32.4145 15.9935ZM38.8286 15.9935C38.8185 15.6112 38.6959 15.2403 38.4762 14.9274C38.2565 14.6144 37.9495 14.3731 37.5933 14.2337C37.2372 14.0943 36.8479 14.063 36.4741 14.1438C36.1003 14.2245 35.7586 14.4136 35.4917 14.6875C35.2248 14.9614 35.0446 15.3079 34.9736 15.6837C34.9027 16.0595 34.944 16.4478 35.0926 16.8002C35.2412 17.1525 35.4903 17.4534 35.809 17.6648C36.1276 17.8763 36.5014 17.9892 36.8839 17.9894C37.1443 17.9945 37.4029 17.9458 37.6436 17.8463C37.8843 17.747 38.1019 17.599 38.2828 17.4117C38.4637 17.2244 38.604 17.0017 38.695 16.7577C38.786 16.5137 38.8257 16.2535 38.8115 15.9935H38.8286Z" fill="#EFEFEF"/>
<path d="M51.4369 11.7691V19.7953C51.4369 22.6271 49.2193 23.8297 46.976 23.8297C46.1847 23.8946 45.3911 23.7374 44.6844 23.3758C43.9777 23.0141 43.3859 22.4624 42.9757 21.7827L45.1337 20.5374C45.3085 20.89 45.5867 21.1808 45.9311 21.3713C46.2755 21.5617 46.6697 21.6428 47.0613 21.6035C47.3108 21.6342 47.5639 21.6095 47.8027 21.531C48.0415 21.4525 48.2599 21.3222 48.4425 21.1494C48.6251 20.9766 48.7672 20.7657 48.8587 20.5316C48.9502 20.2975 48.9889 20.0461 48.9719 19.7953V19.0191C48.6741 19.3802 48.2963 19.6668 47.8684 19.8563C47.4405 20.0458 46.9744 20.133 46.5069 20.1109C45.3758 20.1109 44.2911 19.6616 43.4913 18.8618C42.6915 18.062 42.2422 16.9773 42.2422 15.8462C42.2422 14.7151 42.6915 13.6304 43.4913 12.8306C44.2911 12.0308 45.3758 11.5815 46.5069 11.5815C46.9744 11.5594 47.4405 11.6466 47.8684 11.8361C48.2963 12.0256 48.6741 12.3122 48.9719 12.6732V11.8203L51.4369 11.7691ZM48.9719 15.8206C48.9889 15.4126 48.8834 15.0087 48.6691 14.661C48.4548 14.3134 48.1414 14.0378 47.7691 13.8697C47.3969 13.7016 46.9829 13.6487 46.5803 13.7178C46.1778 13.7868 45.8051 13.9747 45.5102 14.2573C45.2154 14.5399 45.0118 14.9043 44.9256 15.3035C44.8395 15.7028 44.8747 16.1186 45.0268 16.4977C45.179 16.8767 45.441 17.2016 45.7792 17.4305C46.1174 17.6595 46.5164 17.782 46.9248 17.7824C47.1914 17.8016 47.4589 17.7646 47.7102 17.674C47.9616 17.5834 48.1912 17.441 48.384 17.2561C48.577 17.0713 48.729 16.848 48.8302 16.6007C48.9315 16.3534 48.9797 16.0877 48.9719 15.8206Z" fill="#EFEFEF"/>
<path d="M52.8831 15.9936C52.8831 15.1075 53.146 14.2415 53.6384 13.5049C54.1308 12.7683 54.8306 12.1943 55.6494 11.8557C56.4681 11.517 57.3689 11.4288 58.2378 11.6023C59.1067 11.7758 59.9045 12.2031 60.5305 12.8302C61.1564 13.4574 61.5822 14.2561 61.754 15.1252C61.9258 15.9944 61.8359 16.8951 61.4957 17.7131C61.1554 18.5313 60.5801 19.23 59.8427 19.721C59.1051 20.2121 58.2386 20.4732 57.3525 20.4715C56.7633 20.4772 56.1788 20.3652 55.6334 20.1421C55.088 19.919 54.5927 19.5892 54.1764 19.1722C53.7601 18.7551 53.4313 18.2591 53.2092 17.7133C52.9872 17.1675 52.8763 16.5828 52.8831 15.9936ZM59.2972 15.9936C59.2872 15.611 59.1643 15.2398 58.9443 14.9266C58.7242 14.6134 58.4166 14.3721 58.0599 14.233C57.7033 14.0939 57.3136 14.0631 56.9396 14.1446C56.5656 14.2259 56.2239 14.416 55.9574 14.6907C55.6908 14.9654 55.5113 15.3128 55.4413 15.6891C55.3713 16.0654 55.4139 16.454 55.5637 16.8062C55.7136 17.1584 55.9641 17.4586 56.2839 17.6691C56.6036 17.8795 56.9783 17.991 57.3611 17.9895C57.6215 17.9946 57.8801 17.9459 58.1208 17.8464C58.3615 17.7471 58.579 17.5991 58.76 17.4118C58.9409 17.2245 59.0812 17.0018 59.1722 16.7578C59.2632 16.5138 59.3029 16.2536 59.2887 15.9936H59.2972Z" fill="#EFEFEF"/>
<path d="M63.0078 9.51042C63.0078 9.21019 63.0969 8.91661 63.2637 8.66695C63.4305 8.41726 63.6676 8.22267 63.945 8.10775C64.2225 7.99285 64.5277 7.96278 64.8223 8.02136C65.1167 8.07994 65.3873 8.22454 65.5996 8.43687C65.8119 8.64921 65.9565 8.91976 66.0151 9.2142C66.0737 9.50872 66.0436 9.81399 65.9287 10.0914C65.8138 10.3688 65.6192 10.6059 65.3695 10.7728C65.1199 10.9396 64.8264 11.0287 64.526 11.0287C64.1247 11.0242 63.7412 10.8628 63.4574 10.5791C63.1736 10.2953 63.0122 9.91173 63.0078 9.51042ZM63.2552 11.7707H65.814V20.2148H63.2552V11.7707Z" fill="#EFEFEF"/>
<path d="M76.7643 15.9914C76.793 16.553 76.7103 17.1147 76.521 17.6442C76.3319 18.1737 76.0397 18.6606 75.6616 19.0767C75.2834 19.493 74.8268 19.8302 74.3177 20.0692C73.8088 20.3082 73.2575 20.4442 72.6958 20.4693C72.2191 20.501 71.7413 20.4247 71.2983 20.246C70.8552 20.0672 70.4583 19.7908 70.1369 19.4373V23.6081H67.5781V11.7693H70.1369V12.5626C70.4587 12.21 70.856 11.9349 71.2991 11.7576C71.7422 11.5803 72.2197 11.5056 72.6958 11.539C73.2553 11.5642 73.8043 11.6994 74.3116 11.9367C74.8188 12.1741 75.2744 12.5092 75.6521 12.9226C76.03 13.336 76.3226 13.8198 76.5135 14.3464C76.7043 14.8729 76.7895 15.4318 76.7643 15.9914ZM74.2055 15.9914C74.1954 15.5952 74.0686 15.2108 73.841 14.8865C73.6134 14.5621 73.2951 14.312 72.9261 14.1678C72.557 14.0235 72.1536 13.9914 71.7662 14.0754C71.379 14.1594 71.0252 14.3559 70.7491 14.6402C70.473 14.9245 70.287 15.2839 70.2144 15.6736C70.1417 16.0631 70.1857 16.4654 70.3407 16.8302C70.4958 17.1948 70.755 17.5056 71.0859 17.7236C71.4169 17.9416 71.8048 18.057 72.2011 18.0555C72.4725 18.067 72.7433 18.021 72.9957 17.9206C73.2481 17.8201 73.4765 17.6674 73.6657 17.4725C73.855 17.2776 74.0009 17.0448 74.0939 16.7896C74.187 16.5344 74.2249 16.2624 74.2055 15.9914Z" fill="#EFEFEF"/>
<path d="M84.5539 17.684C84.5539 19.6287 82.848 20.456 81.0398 20.456C80.3022 20.5224 79.5618 20.366 78.9141 20.0072C78.2664 19.6484 77.7411 19.1035 77.4062 18.4431L79.6068 17.1978C79.694 17.5021 79.883 17.7673 80.1423 17.949C80.4016 18.1306 80.7154 18.2177 81.0312 18.1957C81.6368 18.1957 81.9439 18.0081 81.9439 17.6669C81.9439 16.7372 77.7901 17.2319 77.7901 14.3063C77.7901 12.464 79.3424 11.5428 81.0995 11.5428C81.7673 11.5128 82.4309 11.6644 83.0195 11.9813C83.6082 12.2981 84.1001 12.7685 84.443 13.3425L82.2424 14.5025C82.1452 14.2824 81.9864 14.0953 81.7851 13.9636C81.5837 13.8319 81.3485 13.7614 81.108 13.7604C80.6645 13.7604 80.4001 13.931 80.4001 14.2295C80.4001 15.2019 84.5539 14.5622 84.5539 17.684Z" fill="#EFEFEF"/>
<path d="M93.8238 11.7734V20.2176H91.265V19.4243C90.9742 19.7755 90.6048 20.0533 90.1877 20.2356C89.7698 20.4178 89.3152 20.4993 88.8597 20.4734C87.1538 20.4734 85.6953 19.2537 85.6953 16.9764V11.7734H88.2541V16.5926C88.2337 16.794 88.2575 16.9974 88.3241 17.1888C88.3906 17.3802 88.4972 17.5548 88.6371 17.7009C88.7778 17.8468 88.9484 17.9606 89.1369 18.0344C89.3254 18.1081 89.5276 18.14 89.7297 18.1279C90.6509 18.1279 91.2991 17.582 91.2991 16.422V11.7734H93.8238Z" fill="#EFEFEF"/>
<path d="M108.321 15.0285V20.2143H105.762V15.2502C105.762 14.3973 105.361 13.8685 104.551 13.8685C103.741 13.8685 103.229 14.457 103.229 15.4549V20.2143H100.67V15.2502C100.67 14.3973 100.269 13.8685 99.459 13.8685C98.6487 13.8685 98.1369 14.457 98.1369 15.4549V20.2143H95.5781V11.7702H98.1369V12.5464C98.4022 12.2035 98.7477 11.9319 99.1443 11.7562C99.54 11.5805 99.9742 11.5062 100.406 11.5399C100.838 11.5173 101.27 11.6077 101.657 11.8021C102.044 11.9965 102.374 12.2883 102.615 12.6488C102.896 12.2721 103.268 11.9729 103.696 11.779C104.124 11.5851 104.595 11.5028 105.063 11.5399C107.059 11.5399 108.321 12.9217 108.321 15.0285Z" fill="#EFEFEF"/>
<path d="M110.47 11.7217C111.507 11.7217 112.347 10.8815 112.347 9.84522C112.347 8.8089 111.507 7.96875 110.47 7.96875C109.434 7.96875 108.594 8.8089 108.594 9.84522C108.594 10.8815 109.434 11.7217 110.47 11.7217Z" fill="#EFEFEF"/>
</svg>
