<svg width="112" height="14" viewBox="0 0 112 14" fill="none" xmlns="http://www.w3.org/2000/svg">
<path d="M55.7701 12.0621H51.9975V1.97623H55.7701V12.0621ZM52.3659 11.6937H55.4017V2.34465H52.3659V11.6937ZM61.0194 12.0621H57.3226V1.97623H65.0462C66.1526 1.88663 67.2545 2.19726 68.1513 2.8516C68.5373 3.20477 68.8365 3.64237 69.0255 4.13023C69.2146 4.6181 69.2883 5.14305 69.241 5.66412C69.2962 6.56452 69.0096 7.45259 68.4386 8.15097C67.7629 8.92612 66.6385 9.32549 65.097 9.33949C64.7087 9.34981 61.7989 9.33949 61.0216 9.33949L61.0194 12.0621ZM57.6888 11.6937H60.6509V8.96739H60.8359C60.8735 8.96739 64.6512 8.97918 65.0882 8.96739C66.5243 8.95486 67.5566 8.59897 68.1601 7.90412C68.6684 7.27225 68.9208 6.47255 68.8675 5.66339C68.9128 5.1965 68.8499 4.72545 68.6838 4.28678C68.5177 3.8481 68.2528 3.45358 67.9096 3.13381C67.0781 2.53704 66.0608 2.25692 65.041 2.34391H57.691L57.6888 11.6937ZM64.2637 7.0737H60.6259V4.32823H64.288C64.5476 4.29236 64.812 4.32266 65.0567 4.4163C65.3015 4.50996 65.5187 4.66392 65.688 4.86391C65.8416 5.11955 65.914 5.41579 65.8958 5.71349C65.9096 5.98988 65.8499 6.265 65.7226 6.51076C65.5479 6.7214 65.3219 6.88356 65.0664 6.98163C64.8109 7.07971 64.5345 7.1104 64.2637 7.07076V7.0737ZM60.9943 6.70528H64.2637C64.8679 6.70528 65.2422 6.57928 65.408 6.31991C65.4993 6.13139 65.5406 5.92258 65.5281 5.71349C65.5442 5.49396 65.4966 5.27444 65.391 5.08128L65.3866 5.07465C65.2113 4.81676 64.8627 4.69665 64.288 4.69665H60.9943V6.70528ZM75.9647 12.211C72.6563 12.211 70.6816 11.3894 69.9293 9.69981C69.8061 9.37346 69.7226 9.03356 69.6802 8.68739L69.6478 8.47518H73.584L73.6098 8.62991C73.6401 8.78701 73.707 8.93489 73.8043 9.0617C73.9598 9.2496 74.4785 9.56497 76.1998 9.56497C78.2688 9.56497 78.2688 9.2017 78.2688 9.00644C78.2688 8.67707 78.0294 8.56433 76.342 8.38455L76.0215 8.35433C75.3863 8.29465 74.5831 8.21876 74.2162 8.18707C71.1215 7.90707 69.7399 6.94549 69.7399 5.07023C69.7399 3.10065 72.0911 1.82812 75.7304 1.82812C78.6991 1.82812 80.612 2.61065 81.4144 4.15581C81.6045 4.51523 81.7327 4.90443 81.7924 5.30676L81.8182 5.51381H77.8776L77.8614 5.34728C77.8459 5.21714 77.7906 5.09505 77.7022 4.99802C77.5548 4.80055 77.0891 4.47412 75.6435 4.47412C73.8684 4.47412 73.6238 4.70107 73.6238 4.9457C73.6238 5.27212 74.1845 5.38781 75.9817 5.58012C76.731 5.64128 77.9358 5.76507 78.3484 5.81518C80.9428 6.09665 82.1004 7.03465 82.1004 8.8576C82.1012 10.3865 81.0364 12.211 75.9647 12.211ZM70.0781 8.8436C70.115 9.08661 70.1785 9.32476 70.2675 9.55391C70.9527 11.0932 72.8169 11.8425 75.9647 11.8425C78.5967 11.8425 81.7349 11.3268 81.7349 8.8576C81.7349 7.2417 80.7107 6.44149 78.3094 6.18139C77.8967 6.13128 76.6994 6.00823 75.9515 5.94634C74.0357 5.73855 73.2568 5.62802 73.2568 4.9457C73.2568 4.23981 74.0961 4.1057 75.6449 4.1057C76.8688 4.1057 77.6595 4.32676 77.9947 4.77255C78.0861 4.88237 78.1554 5.00903 78.1981 5.14539H81.3916C81.3275 4.86041 81.2258 4.58516 81.0895 4.32676C80.3526 2.91276 78.5525 2.19655 75.7319 2.19655C72.3166 2.19655 70.1098 3.32465 70.1098 5.07023C70.1098 6.73549 71.3484 7.55781 74.2501 7.82012C74.6185 7.85181 75.4209 7.9277 76.0576 7.98812L76.3803 8.01833C77.9476 8.18339 78.6387 8.28655 78.6387 9.00644C78.6387 9.7816 77.7449 9.93339 76.2012 9.93339C74.7732 9.93339 73.8714 9.71897 73.5228 9.29676C73.4154 9.16213 73.3343 9.00836 73.2841 8.8436H70.0781ZM89.1004 12.1984C85.2541 12.1984 83.132 10.643 83.132 7.81791V1.97623H86.8545V7.81791C86.8545 8.78686 87.7218 9.34244 89.233 9.34244C90.6773 9.34244 91.574 8.76254 91.574 7.83044V1.97623H95.2582V8.12739C95.2619 10.7144 93.0153 12.1984 89.0982 12.1984H89.1004ZM83.5004 2.34465V7.81791C83.5004 11.3091 87.0063 11.83 89.1004 11.83C91.2653 11.83 94.8957 11.3489 94.8957 8.12739V2.34465H91.9483V7.83044C91.9483 8.97254 90.8843 9.71086 89.2389 9.71086C87.5191 9.71086 86.492 9.00349 86.492 7.81791V2.34465H83.5004ZM110.87 12.0621H107.357V7.50844L105.365 12.0621H102.3L100.328 7.51728V12.0621H96.8026V1.97623H101.44L103.85 7.53718L106.376 1.97623H110.875L110.87 12.0621ZM107.726 11.6937H110.502V2.34465H106.61L103.838 8.44497L101.196 2.34465H97.1681V11.6937H99.957V5.74444L102.536 11.6959H105.115L107.721 5.75328L107.726 11.6937ZM4.45714 2.16044H1.10156V11.8779H10.374V9.29086H4.45714V2.16044ZM17.147 1.93939C12.8638 1.93939 10.6112 3.96939 10.6112 6.94991C10.6112 10.3173 12.9758 12.0253 17.147 12.0253C21.739 12.0253 23.6703 10.0447 23.6703 6.94991C23.6703 3.80728 21.4915 1.93791 17.147 1.93791V1.93939ZM17.1345 4.46455C17.4261 4.46318 17.7175 4.48015 18.0069 4.51539L14.2557 8.26665C14.0782 7.86514 13.9916 7.4293 14.0022 6.99044C14.0022 5.46591 14.77 4.46307 17.1345 4.46307V4.46455ZM17.147 9.53991C16.8661 9.54117 16.5853 9.5254 16.3063 9.49276L20.0642 5.73486C20.2351 6.12973 20.3169 6.55742 20.3037 6.98749C20.3037 8.47076 19.5963 9.53844 17.147 9.53844V9.53991ZM30.3188 8.2136H33.7724C33.7216 8.45329 33.6156 8.67781 33.4629 8.86939C32.7469 9.45267 31.8332 9.7365 30.9127 9.66149C30.4494 9.71108 29.9809 9.66046 29.5389 9.51309C29.0968 9.3658 28.6916 9.12514 28.3507 8.80749C28.0015 8.29531 27.8357 7.6802 27.8799 7.06191C27.8234 6.41404 28.0037 5.76767 28.3876 5.24265C28.8702 4.69739 29.6874 4.46234 30.8884 4.46234C31.6526 4.39906 32.4158 4.59532 33.0547 5.01939C33.2561 5.17934 33.4066 5.39437 33.488 5.63834H36.691C36.6678 5.23637 36.5711 4.84205 36.4059 4.47486C35.6388 2.91497 33.8557 1.98655 30.8236 1.98655C28.1864 1.98655 26.4165 2.79118 25.4387 4.00476C24.793 4.88113 24.4614 5.94961 24.4978 7.0376C24.456 8.15023 24.779 9.24599 25.4174 10.1581C26.3834 11.4108 28.1039 12.0268 30.1715 12.0268C31.546 12.1226 32.9113 11.7376 34.0332 10.9377L34.1202 11.8779H36.7809V6.1217H30.3188V8.2136ZM44.3328 1.93718C40.0503 1.93718 37.797 3.96718 37.797 6.9477C37.797 10.3151 40.1608 12.0231 44.3328 12.0231C48.9256 12.0231 50.8568 10.0424 50.8568 6.9477C50.8568 3.80728 48.678 1.93791 44.3328 1.93791V1.93718ZM44.321 4.46234C44.6049 4.4615 44.8886 4.47774 45.1706 4.51097L41.4341 8.2497C41.2621 7.85262 41.1784 7.42304 41.1887 6.99044C41.1858 5.46591 41.9565 4.46307 44.321 4.46307V4.46234ZM44.3328 9.5377C44.0444 9.53896 43.7562 9.52216 43.47 9.4876L47.2404 5.71644C47.4178 6.11657 47.5027 6.55152 47.4887 6.98897C47.4902 8.47076 46.7858 9.53844 44.3328 9.53844V9.5377Z" fill="#EFEFEF"/>
</svg>
