<svg width="108" height="23" viewBox="0 0 108 23" fill="none" xmlns="http://www.w3.org/2000/svg">
<path d="M17.1928 10.2501C16.9022 10.5424 16.6797 10.8952 16.5411 11.2833C16.4025 11.6715 16.3512 12.0854 16.3908 12.4956L16.377 12.4818C16.4178 12.9647 16.3526 13.4507 16.1862 13.9058C16.0198 14.3609 15.756 14.7742 15.4134 15.1169C15.0707 15.4596 14.6574 15.7234 14.2022 15.8897C13.7471 16.0562 13.2611 16.1213 12.7783 16.0806L12.7921 16.0944C12.2145 16.0406 11.6343 16.1663 11.1307 16.4543C10.6272 16.7423 10.2247 17.1786 9.97819 17.7038C9.73171 18.229 9.65313 18.8173 9.75325 19.3888C9.85346 19.9602 10.1274 20.4868 10.5378 20.8968C10.9482 21.3068 11.475 21.5803 12.0465 21.6799C12.6181 21.7796 13.2063 21.7004 13.7313 21.4535C14.2562 21.2065 14.6921 20.8037 14.9797 20.2998C15.2673 19.796 15.3925 19.2158 15.3382 18.6382L15.3528 18.652C15.312 18.1691 15.3771 17.6831 15.5435 17.2279C15.7099 16.7729 15.9738 16.3595 16.3164 16.0168C16.6591 15.6742 17.0724 15.4104 17.5275 15.244C17.9827 15.0776 18.4686 15.0124 18.9515 15.0532L18.9369 15.0394C19.4087 15.0818 19.8837 15.0045 20.3177 14.8145C20.7516 14.6245 21.1307 14.328 21.4195 13.9526C21.7084 13.5772 21.8979 13.1348 21.9703 12.6667C22.0428 12.1985 21.9959 11.7196 21.8339 11.2743C21.672 10.8291 21.4003 10.432 21.044 10.1197C20.6878 9.80746 20.2584 9.59019 19.7958 9.48807C19.3332 9.38595 18.8523 9.4022 18.3977 9.53537C17.943 9.66862 17.5294 9.91441 17.1951 10.2501H17.1928Z" fill="#EFEFEF"/>
<path d="M11.5296 14.2865L11.5151 14.2727C11.9255 14.314 12.3399 14.2637 12.7285 14.1252C13.1171 13.9867 13.4701 13.7637 13.7618 13.4722C14.0536 13.1806 14.277 12.8278 14.4157 12.4393C14.5544 12.0508 14.6051 11.6365 14.5641 11.226L14.5787 11.2398C14.5379 10.7569 14.603 10.2709 14.7694 9.81577C14.9358 9.36068 15.1997 8.94737 15.5423 8.60467C15.885 8.26205 16.2983 7.99824 16.7534 7.83187C17.2086 7.6654 17.6945 7.60028 18.1774 7.64105L18.1628 7.62725C18.7405 7.68153 19.3208 7.55622 19.8247 7.26852C20.3286 6.98082 20.7314 6.54469 20.9783 6.01962C21.2251 5.49457 21.304 4.90613 21.2042 4.33457C21.1044 3.76301 20.8307 3.23617 20.4204 2.8259C20.0101 2.41563 19.4833 2.1419 18.9117 2.04207C18.3402 1.94222 17.7517 2.02112 17.2266 2.268C16.7016 2.51488 16.2655 2.91772 15.9777 3.42158C15.69 3.92544 15.5647 4.50578 15.619 5.08345L15.6052 5.06888C15.6461 5.5518 15.5811 6.03782 15.4147 6.493C15.2483 6.94819 14.9845 7.36157 14.6419 7.7043C14.2992 8.04692 13.8858 8.31073 13.4306 8.4771C12.9754 8.64346 12.4894 8.70848 12.0065 8.66761L12.0203 8.68218C11.6099 8.64086 11.1954 8.69123 10.8068 8.82969C10.4183 8.96807 10.0653 9.19117 9.77349 9.48273C9.4817 9.7743 9.25837 10.1271 9.1196 10.5156C8.98091 10.9041 8.93024 11.3184 8.97125 11.7289L8.95745 11.7151C8.99809 12.198 8.93284 12.6839 8.7664 13.139C8.59988 13.594 8.33615 14.0073 7.99352 14.3499C7.65087 14.6925 7.2376 14.9563 6.78254 15.1228C6.32748 15.2892 5.84157 15.3545 5.35872 15.3138L5.37252 15.3276C4.79485 15.2734 4.21451 15.3986 3.71064 15.6864C3.20679 15.9741 2.80395 16.4102 2.55707 16.9353C2.31019 17.4604 2.23128 18.0488 2.33113 18.6203C2.43097 19.1919 2.7047 19.7187 3.11497 20.129C3.52524 20.5393 4.05208 20.813 4.62364 20.9128C5.1952 21.0126 5.78364 20.9337 6.3087 20.6869C6.83376 20.44 7.2699 20.0372 7.5576 19.5333C7.84533 19.0294 7.9706 18.4491 7.91632 17.8714L7.93089 17.8852C7.8901 17.4023 7.95527 16.9164 8.12171 16.4612C8.28808 16.0061 8.55189 15.5928 8.89451 15.2501C9.23721 14.9075 9.65052 14.6437 10.1056 14.4773C10.5608 14.3109 11.0467 14.2457 11.5296 14.2865Z" fill="#EFEFEF"/>
<path d="M6.39286 12.7513C6.68345 12.4591 6.90592 12.1063 7.04441 11.7181C7.1829 11.3299 7.23399 10.9159 7.19403 10.5058L7.20859 10.5196C7.1678 10.0366 7.23294 9.55042 7.39947 9.09517C7.56599 8.63992 7.8299 8.22654 8.17276 7.88384C8.51561 7.54115 8.92907 7.27743 9.3844 7.1111C9.83972 6.94476 10.3259 6.87983 10.8089 6.92083L10.7943 6.90703C11.3718 6.96113 11.9519 6.83579 12.4555 6.5481C12.9591 6.26043 13.3617 5.8244 13.6085 5.2995C13.8552 4.7746 13.934 4.18637 13.8342 3.61503C13.7344 3.04369 13.4607 2.51705 13.0506 2.10693C12.6405 1.69681 12.1138 1.42317 11.5425 1.32333C10.9712 1.22349 10.3829 1.30232 9.85805 1.54905C9.33311 1.79578 8.89711 2.19841 8.60945 2.70203C8.32172 3.20565 8.19637 3.78576 8.2505 4.36323L8.2367 4.34943C8.27748 4.83231 8.21232 5.31828 8.04588 5.7734C7.87943 6.22853 7.61571 6.64185 7.27304 6.98451C6.93038 7.32718 6.51706 7.59094 6.06193 7.75734C5.60681 7.92378 5.12085 7.98895 4.63796 7.94816L4.65176 7.96196C4.17993 7.91964 3.70505 7.99715 3.27113 8.18721C2.83721 8.37726 2.45829 8.67381 2.16948 9.04932C1.88067 9.42476 1.69132 9.86713 1.61896 10.3353C1.54661 10.8035 1.5936 11.2823 1.75557 11.7274C1.91754 12.1726 2.18927 12.5697 2.54557 12.8819C2.90186 13.1942 3.33119 13.4114 3.79379 13.5135C4.25637 13.6155 4.73725 13.5992 5.19186 13.466C5.64646 13.3328 6.06008 13.087 6.39439 12.7513H6.39286Z" fill="#EFEFEF"/>
<path d="M30.1406 5.10156H32.4176V16.1822H30.1406V5.10156Z" fill="#EFEFEF"/>
<path d="M33.711 12.3904C33.7079 11.5941 33.9411 10.8147 34.3812 10.1511C34.8213 9.48745 35.4484 8.96934 36.1832 8.66244C36.9179 8.35547 37.7272 8.27351 38.5086 8.42692C39.29 8.58033 40.0083 8.96213 40.5725 9.52409C41.1367 10.086 41.5214 10.8027 41.6779 11.5835C41.8345 12.3643 41.7558 13.174 41.4518 13.91C41.1478 14.6459 40.6322 15.2752 39.9703 15.7178C39.3084 16.1606 38.5301 16.397 37.7337 16.397C37.2052 16.403 36.6807 16.3036 36.191 16.1045C35.7012 15.9055 35.2561 15.6109 34.8816 15.2379C34.507 14.8648 34.2106 14.4209 34.0097 13.932C33.8086 13.4431 33.7071 12.919 33.711 12.3904ZM39.4794 12.3904C39.4699 12.0471 39.3595 11.7143 39.1619 11.4335C38.9642 11.1527 38.6882 10.9364 38.3684 10.8116C38.0485 10.6868 37.6989 10.6591 37.3634 10.7319C37.0278 10.8047 36.7211 10.9748 36.4817 11.221C36.2423 11.4671 36.0807 11.7783 36.0173 12.1158C35.9539 12.4532 35.9912 12.8019 36.1248 13.1182C36.2584 13.4346 36.4823 13.7044 36.7684 13.8942C37.0546 14.0839 37.3904 14.1851 37.7337 14.1851C37.9689 14.1914 38.2028 14.1489 38.4208 14.0602C38.6386 13.9716 38.8358 13.8388 38.9998 13.6702C39.1638 13.5016 39.2911 13.3008 39.3736 13.0805C39.4562 12.8602 39.4922 12.6253 39.4794 12.3904Z" fill="#EFEFEF"/>
<path d="M50.8325 8.59199V15.7987C50.8325 18.3486 48.8437 19.4265 46.8251 19.4265C46.1144 19.4797 45.4027 19.3361 44.7681 19.0116C44.1336 18.687 43.6007 18.194 43.2279 17.5865L45.1706 16.4634C45.3273 16.78 45.577 17.0412 45.8862 17.2121C46.1955 17.3829 46.5495 17.4553 46.901 17.4194C47.1256 17.4505 47.3544 17.4307 47.5704 17.3615C47.7863 17.2923 47.9839 17.1754 48.1486 17.0195C48.3133 16.8636 48.4408 16.6727 48.5217 16.4607C48.6026 16.2489 48.6348 16.0216 48.616 15.7956V15.1018C48.3494 15.428 48.01 15.6872 47.6251 15.8585C47.2402 16.0299 46.8205 16.1086 46.3996 16.0885C45.3982 16.0569 44.4483 15.6369 43.7511 14.9173C43.0539 14.1978 42.6641 13.2352 42.6641 12.2333C42.6641 11.2314 43.0539 10.2688 43.7511 9.54925C44.4483 8.82966 45.3982 8.40968 46.3996 8.37809C46.8205 8.35793 47.2402 8.43666 47.6251 8.60801C48.01 8.77936 48.3494 9.03857 48.616 9.36479V8.59046L50.8325 8.59199ZM48.6168 12.2344C48.6321 11.8675 48.5372 11.5043 48.3444 11.1918C48.1516 10.8791 47.8696 10.6314 47.5348 10.4804C47.2 10.3294 46.8277 10.2821 46.4657 10.3445C46.1038 10.4069 45.7688 10.5762 45.5039 10.8307C45.239 11.085 45.0563 11.4129 44.9792 11.772C44.9023 12.1311 44.9345 12.5051 45.0719 12.8457C45.2092 13.1863 45.4453 13.4781 45.7498 13.6834C46.0543 13.8887 46.4134 13.9982 46.7806 13.9978C47.0199 14.0145 47.2599 13.9809 47.4854 13.8992C47.7109 13.8174 47.9167 13.6893 48.0897 13.5233C48.2627 13.3571 48.399 13.1566 48.4897 12.9346C48.5805 12.7127 48.6238 12.4742 48.6168 12.2344Z" fill="#EFEFEF"/>
<path d="M52.1173 12.3904C52.1142 11.5941 52.3473 10.8147 52.7874 10.1511C53.2275 9.48745 53.8546 8.96934 54.5894 8.66244C55.3242 8.35547 56.1335 8.27351 56.9149 8.42692C57.6962 8.58033 58.4145 8.96213 58.9787 9.52409C59.5429 10.086 59.9276 10.8027 60.0842 11.5835C60.2407 12.3643 60.162 13.174 59.858 13.91C59.554 14.6459 59.0385 15.2752 58.3766 15.7178C57.7146 16.1606 56.9363 16.397 56.14 16.397C55.6114 16.403 55.0869 16.3036 54.5972 16.1045C54.1075 15.9055 53.6624 15.6109 53.2878 15.2379C52.9132 14.8648 52.6169 14.4209 52.4159 13.932C52.2149 13.4431 52.1134 12.919 52.1173 12.3904ZM57.8857 12.3904C57.8762 12.0471 57.7657 11.7143 57.5681 11.4335C57.3705 11.1527 57.0945 10.9364 56.7746 10.8116C56.4547 10.6868 56.1051 10.6591 55.7696 10.7319C55.434 10.8047 55.1274 10.9748 54.888 11.221C54.6486 11.4671 54.487 11.7783 54.4235 12.1158C54.36 12.4532 54.3974 12.8019 54.5311 13.1182C54.6647 13.4346 54.8886 13.7044 55.1747 13.8942C55.4609 14.0839 55.7966 14.1851 56.14 14.1851C56.3751 14.1914 56.609 14.1489 56.8269 14.0602C57.0449 13.9716 57.2421 13.8388 57.4061 13.6702C57.5701 13.5016 57.6974 13.3008 57.7799 13.0805C57.8625 12.8602 57.8985 12.6253 57.8857 12.3904Z" fill="#EFEFEF"/>
<path d="M61.2266 6.56151C61.2266 6.2913 61.3067 6.02716 61.4568 5.8025C61.6069 5.57783 61.8203 5.40271 62.07 5.29931C62.3196 5.1959 62.5943 5.16885 62.8593 5.22156C63.1243 5.27428 63.3678 5.4044 63.5589 5.59547C63.7499 5.78653 63.88 6.02996 63.9328 6.29498C63.9854 6.56 63.9584 6.83469 63.855 7.08433C63.7516 7.33398 63.5765 7.54735 63.3518 7.69748C63.1271 7.8476 62.863 7.92771 62.5928 7.92771C62.2316 7.92411 61.8861 7.77906 61.6307 7.52359C61.3753 7.26815 61.2302 6.92274 61.2266 6.56151ZM61.4566 8.59548H63.7343V16.1855H61.4535L61.4566 8.59548Z" fill="#EFEFEF"/>
<path d="M73.5642 12.3866C73.5905 12.8882 73.5174 13.3901 73.3491 13.8633C73.1808 14.3366 72.9206 14.7719 72.5834 15.1443C72.2463 15.5166 71.8388 15.8187 71.3846 16.033C70.9302 16.2473 70.4381 16.3697 69.9363 16.3932C69.5144 16.4162 69.0926 16.345 68.7016 16.1849C68.3105 16.0247 67.96 15.7795 67.6754 15.4671V19.2168H65.3984V8.59159H67.6754V9.30459C67.9601 8.99241 68.3107 8.74738 68.7017 8.58738C69.0928 8.4273 69.5144 8.35623 69.9363 8.37923C70.4382 8.40261 70.9305 8.52497 71.3849 8.73933C71.8393 8.95369 72.2468 9.25576 72.584 9.6282C72.9211 10.0006 73.1813 10.4361 73.3495 10.9095C73.5178 11.3829 73.5907 11.8849 73.5642 12.3866ZM71.2872 12.3866C71.2783 12.0314 71.1649 11.6867 70.961 11.3956C70.7571 11.1046 70.472 10.8801 70.1413 10.7504C69.8105 10.6206 69.4487 10.5912 69.1014 10.666C68.754 10.7408 68.4364 10.9164 68.1883 11.1707C67.9402 11.4252 67.7727 11.747 67.7067 12.0963C67.6407 12.4454 67.6791 12.8062 67.8172 13.1336C67.9552 13.4611 68.1868 13.7404 68.4829 13.9369C68.779 14.1334 69.1264 14.2382 69.4817 14.2381C69.7257 14.249 69.9692 14.2081 70.1962 14.1183C70.4233 14.0285 70.6288 13.8916 70.7992 13.7168C70.9697 13.542 71.1013 13.3331 71.1854 13.1039C71.2695 12.8747 71.3042 12.6302 71.2872 12.3866Z" fill="#EFEFEF"/>
<path d="M80.592 13.9013C80.592 15.647 79.0747 16.3906 77.4356 16.3906C76.7732 16.4506 76.1082 16.3106 75.5264 15.9885C74.9446 15.6665 74.4728 15.1774 74.1719 14.5844L76.1445 13.4612C76.2243 13.7353 76.3957 13.9738 76.6301 14.1367C76.8644 14.2997 77.1481 14.3774 77.4325 14.3567C77.9784 14.3567 78.2521 14.1895 78.2521 13.8867C78.2521 13.051 74.5176 13.4919 74.5176 10.866C74.5176 9.2108 75.9145 8.37666 77.4931 8.37666C78.0865 8.35788 78.6737 8.49864 79.1943 8.78422C79.7149 9.06988 80.1496 9.48986 80.4524 10.0005L78.5097 11.0477C78.4246 10.8489 78.2828 10.6796 78.1018 10.5608C77.9209 10.4421 77.7093 10.3792 77.4931 10.38C77.0982 10.38 76.8552 10.5333 76.8552 10.8047C76.8583 11.6703 80.592 11.093 80.592 13.9013Z" fill="#EFEFEF"/>
<path d="M88.9083 8.59375V16.1838H86.6313V15.47C86.3684 15.7849 86.0349 16.0331 85.6577 16.1941C85.2805 16.3551 84.8711 16.4243 84.4617 16.3961C82.9283 16.3961 81.625 15.3036 81.625 13.2528V8.59375H83.902V12.9193C83.8828 13.1001 83.9035 13.2828 83.9626 13.4548C84.0208 13.6268 84.1167 13.784 84.2424 13.9153C84.3681 14.0467 84.5207 14.149 84.6901 14.2153C84.8588 14.2817 85.0405 14.3103 85.2222 14.2993C86.0571 14.2993 86.6336 13.814 86.6336 12.7361V8.59605L88.9083 8.59375Z" fill="#EFEFEF"/>
<path d="M101.97 11.5251V16.1849H99.6932V11.7221C99.6932 10.9631 99.329 10.4778 98.6007 10.4778C97.8417 10.4778 97.4162 11.0091 97.4162 11.9046V16.1849H95.1399V11.7221C95.1399 10.9631 94.7758 10.4778 94.0467 10.4778C93.2877 10.4778 92.8629 11.0091 92.8629 11.9046V16.1849H90.5859V8.59491H92.8629V9.29258C93.0991 8.98307 93.4088 8.73759 93.7638 8.57866C94.1195 8.41965 94.509 8.35226 94.8969 8.38254C95.2864 8.36345 95.6743 8.44572 96.0231 8.62121C96.3712 8.79662 96.6679 9.05943 96.8849 9.38381C97.1371 9.04441 97.4714 8.77454 97.8562 8.59943C98.2411 8.42433 98.6643 8.34973 99.086 8.38254C100.829 8.38331 101.97 9.62761 101.97 11.5251Z" fill="#EFEFEF"/>
<path d="M103.893 8.55134C104.826 8.55134 105.583 7.7948 105.583 6.86161C105.583 5.92839 104.826 5.17188 103.893 5.17188C102.96 5.17188 102.203 5.92839 102.203 6.86161C102.203 7.7948 102.96 8.55134 103.893 8.55134Z" fill="#EFEFEF"/>
</svg>
