<svg width="70" height="32" viewBox="0 0 70 32" fill="none" xmlns="http://www.w3.org/2000/svg">
<path fill-rule="evenodd" clipRule="evenodd" d="M10.0582 0.0135013C6.95233 0.282968 4.2295 1.7404 2.31399 4.15862C1.0868 5.7079 0.317842 7.55924 0.0520786 9.60436C-0.0169842 10.1358 -0.0174707 11.7388 0.0512947 12.2459C0.361091 14.5309 1.23507 16.4817 2.69228 18.1406C4.32737 20.0021 6.50468 21.2377 8.93647 21.684C9.67256 21.8191 9.97476 21.8441 10.9362 21.8491L11.8413 21.8539L11.8759 22.2029C12.1501 24.9701 13.5711 27.6378 15.7279 29.4349C17.367 30.8007 19.2802 31.6297 21.438 31.9092C21.9177 31.9713 23.4824 31.9795 23.9519 31.9223C25.4787 31.7364 26.885 31.2833 28.1416 30.5725C28.4902 30.3753 29.2537 29.8584 29.5607 29.6119C31.8374 27.7831 33.3025 25.1486 33.6147 22.3222C33.6303 22.1809 33.6493 22.0167 33.6568 21.9573L33.6706 21.8491H34.5884H35.5061L35.5196 21.9573C35.527 22.0167 35.5525 22.2296 35.5763 22.4303C35.8727 24.9303 37.1375 27.3826 39.0146 29.0966C40.7567 30.6873 42.8298 31.6307 45.2248 31.9223C45.6287 31.9715 47.2267 31.9715 47.6305 31.9223C49.8466 31.6524 51.7789 30.8264 53.4488 29.4349C55.6064 27.6372 57.0261 24.9711 57.3011 22.2005L57.336 21.8491L58.011 21.8582C58.918 21.8704 59.6002 21.8127 60.3876 21.6572C63.4483 21.0525 66.0875 19.1819 67.6869 16.4836C68.4432 15.2076 68.9094 13.8316 69.1245 12.2398C69.1952 11.7165 69.1956 10.1516 69.1251 9.60436C68.805 7.1197 67.7264 4.91171 65.9841 3.17444C64.2209 1.41633 62.01 0.354112 59.4699 0.0447755C59.0676 -0.00423069 57.4388 -0.00455506 57.0507 0.0442619C55.2216 0.274372 53.6438 0.849661 52.1987 1.81335C49.7201 3.46618 48.0109 6.068 47.4975 8.96966C47.4448 9.26756 47.3492 9.98827 47.347 10.1044C47.3465 10.1316 45.5224 10.1183 45.5023 10.0909C45.4914 10.076 45.4823 10.0189 45.482 9.96389C45.4814 9.80725 45.4069 9.26151 45.3316 8.86102C44.8465 6.28416 43.4093 3.92983 41.3265 2.30044C39.7309 1.05217 37.8843 0.299673 35.7912 0.0447755C35.3217 -0.0123939 33.757 -0.00423069 33.2774 0.0578853C30.9604 0.358004 28.9545 1.27523 27.231 2.82272C26.2737 3.68226 25.393 4.84503 24.7953 6.03851C24.2376 7.152 23.8502 8.465 23.723 9.67194C23.7066 9.82804 23.6875 9.99225 23.6806 10.0368L23.6681 10.1179H22.7502H21.8322L21.8159 9.96927C21.6936 8.85802 21.5159 8.05781 21.1947 7.17246C19.7503 3.19158 16.0879 0.383899 11.8693 0.0233133C11.5729 -0.00201419 10.3156 -0.00882586 10.0582 0.0135013ZM12.0924 2.00675C13.1502 2.15753 14.0639 2.44492 15.0007 2.92146C17.6733 4.2809 19.4927 6.90375 19.8428 9.90153C19.8653 10.0947 19.8838 10.3041 19.8838 10.3668C19.8838 10.4781 19.8811 10.4815 19.7689 10.5114C18.9601 10.7271 17.8924 11.1913 17.0997 11.6718C16.3112 12.1497 15.7193 12.6171 15.0301 13.306C13.9043 14.4313 13.1432 15.5884 12.5578 17.0648C12.2486 17.8443 11.9833 18.896 11.8947 19.6923L11.8761 19.8601L11.751 19.8812C11.5086 19.9222 10.2188 19.9033 9.84199 19.8533C7.3427 19.5216 5.21043 18.2848 3.72292 16.304C2.81502 15.0949 2.25471 13.7457 2.0127 12.1858C1.95954 11.843 1.95175 11.687 1.95064 10.9424C1.94962 10.2623 1.95902 10.0256 1.9973 9.76654C2.29385 7.75902 3.09957 6.08919 4.44534 4.6932C5.96585 3.11587 7.93259 2.1738 10.1528 1.95926C10.4412 1.93139 11.7965 1.96459 12.0924 2.00675ZM35.5247 1.98264C38.2788 2.27184 40.7194 3.80138 42.2188 6.17785C42.4556 6.55319 42.8498 7.3517 43.0036 7.76759C43.2943 8.55385 43.4879 9.42907 43.5513 10.2443L43.5696 10.4788L43.4511 10.5095C43.1957 10.5756 42.4512 10.8371 42.1434 10.9689C39.0032 12.3132 36.6775 15.0203 35.8291 18.3186C35.72 18.7429 35.5615 19.6005 35.5615 19.7666C35.5615 19.8579 35.5604 19.8587 35.406 19.8807C35.2066 19.9093 33.9747 19.9089 33.7707 19.8803C33.6162 19.8587 33.6153 19.858 33.6153 19.7666C33.6153 19.6005 33.4567 18.7429 33.3476 18.3186C33.1442 17.528 32.9205 16.9286 32.5465 16.1728C31.4983 14.0541 29.8085 12.3539 27.6821 11.2783C27.0848 10.9762 26.6462 10.7969 26.0223 10.6L25.6084 10.4693L25.6268 10.214C25.7531 8.46887 26.4526 6.71089 27.5849 5.29301C27.8335 4.98175 28.4402 4.3551 28.7363 4.10375C29.9763 3.05124 31.3786 2.38164 32.9803 2.07733C33.6932 1.94188 34.759 1.90223 35.5247 1.98264ZM59.4428 2.00654C61.1259 2.24757 62.5877 2.87873 63.9164 3.93797C64.2553 4.20811 64.9606 4.91358 65.2307 5.25246C66.3963 6.71502 67.0453 8.31293 67.216 10.1408C67.2632 10.6462 67.2345 11.7134 67.1607 12.1993C67.0049 13.224 66.7373 14.0653 66.2792 14.9699C65.5647 16.381 64.5515 17.525 63.2406 18.401C62.0254 19.213 60.7373 19.6832 59.2266 19.8665C58.9003 19.9061 57.7013 19.9157 57.4527 19.8807L57.3006 19.8594L57.2819 19.6919C57.1295 18.3212 56.6055 16.7716 55.868 15.5105C55.1088 14.2124 53.9733 12.9797 52.7122 12.0848C51.7683 11.4149 50.4593 10.792 49.4039 10.5103L49.2851 10.4787L49.3028 10.2085C49.444 8.05395 50.5248 5.82596 52.1518 4.33575C53.6 3.00934 55.3655 2.20135 57.2939 1.98243C57.7411 1.93166 59.0202 1.94602 59.4428 2.00654ZM23.6427 12.0934C23.7086 12.1083 23.7136 12.1225 23.7453 12.3839C23.8901 13.5776 24.36 15.0286 24.9529 16.113C25.4985 17.1106 26.0397 17.8314 26.8561 18.6473C27.5836 19.3745 28.1787 19.8432 28.9842 20.3234C29.787 20.8021 30.8121 21.2442 31.6121 21.4568L31.7308 21.4884L31.7127 21.7499C31.6379 22.8287 31.3286 23.9477 30.8187 24.9847C30.4659 25.7021 30.139 26.2103 29.6512 26.7997C29.3773 27.1307 28.7128 27.7828 28.3714 28.0556C26.9744 29.1719 25.3119 29.8395 23.525 30.0016C23.0308 30.0464 21.9738 30.0183 21.4995 29.9478C19.5708 29.6608 17.8752 28.8265 16.4948 27.4853C14.9134 25.9487 13.9617 23.9244 13.7878 21.7275L13.7696 21.4977L14.1034 21.3943C14.8798 21.1536 15.7698 20.7662 16.4145 20.3885C19.002 18.8724 20.8395 16.4089 21.5448 13.5103C21.6452 13.098 21.7339 12.6144 21.765 12.3109C21.7752 12.2115 21.7957 12.1227 21.8106 12.1135C21.8978 12.0596 23.4189 12.0429 23.6427 12.0934ZM47.3061 12.0987C47.3858 12.1217 47.3876 12.1262 47.4204 12.3904C47.4387 12.538 47.479 12.7926 47.51 12.9561C48.0549 15.8301 49.7214 18.3636 52.1375 19.991C53.05 20.6056 54.0446 21.0809 55.0629 21.389C55.2408 21.4428 55.3914 21.4919 55.3976 21.4981C55.4038 21.5042 55.3943 21.6648 55.3764 21.8549C55.1741 24.0145 54.2355 25.9757 52.6819 27.4853C51.2846 28.843 49.561 29.6829 47.6035 29.9601C47.1973 30.0176 46.0882 30.0412 45.6517 30.0016C43.8657 29.8395 42.2016 29.1714 40.8054 28.0556C40.4639 27.7828 39.7994 27.1307 39.5255 26.7997C39.0377 26.2103 38.7108 25.7021 38.358 24.9847C37.8468 23.9452 37.539 22.8314 37.464 21.7499L37.4459 21.4884L37.5646 21.4574C38.08 21.3231 38.9152 20.9975 39.5119 20.6984C41.1541 19.8751 42.6381 18.5654 43.6693 17.0291C44.5923 15.654 45.1949 14.0818 45.4168 12.4696C45.4434 12.2763 45.4686 12.1133 45.4729 12.1074C45.5107 12.055 47.1279 12.0474 47.3061 12.0987ZM19.6803 12.9031C19.183 15.1205 17.8429 17.0789 15.9361 18.3749C15.3442 18.7772 14.6421 19.138 14.0112 19.3642C13.9124 19.3997 13.91 19.399 13.9223 19.341C14.1886 18.0935 14.6046 17.0768 15.2464 16.1052C15.8292 15.2228 16.512 14.4969 17.3585 13.8598C17.8372 13.4995 18.2415 13.2513 18.7891 12.9816C19.2008 12.7788 19.7217 12.5584 19.7433 12.5778C19.7479 12.5818 19.7195 12.7282 19.6803 12.9031ZM26.1921 12.7377C28.8687 13.8465 30.8864 16.2407 31.5181 19.0575C31.5565 19.2287 31.588 19.3756 31.588 19.3838C31.588 19.4151 31.0166 19.1764 30.6014 18.9716C28.3506 17.8618 26.6512 15.8334 25.9557 13.4265C25.8763 13.1518 25.7494 12.6305 25.7494 12.5792C25.7494 12.5626 25.8973 12.6155 26.1921 12.7377ZM43.4157 12.625C43.162 13.8508 42.7314 14.8963 42.0717 15.8886C41.7156 16.4242 41.4039 16.8058 40.955 17.2558C40.2217 17.9908 39.5003 18.5131 38.5822 18.9739C38.2558 19.1378 37.6133 19.4094 37.5951 19.3912C37.59 19.3861 37.6181 19.2377 37.6576 19.0613C38.2337 16.4897 39.9708 14.2504 42.3191 13.0524C42.6482 12.8845 43.3651 12.5671 43.4211 12.5645C43.4251 12.5644 43.4227 12.5915 43.4157 12.625ZM49.9717 12.781C51.5748 13.4788 52.936 14.6162 53.9016 16.0646C54.4161 16.8365 54.766 17.5768 55.032 18.4568C55.12 18.7478 55.2726 19.3789 55.2584 19.3931C55.2443 19.4072 54.691 19.1733 54.3534 19.0104C52.1866 17.9655 50.5174 16.0798 49.753 13.8133C49.6307 13.4505 49.4867 12.9218 49.4402 12.6646L49.4217 12.5622L49.5968 12.6282C49.6932 12.6645 49.8619 12.7332 49.9717 12.781Z" fill="white"/>
</svg>
