<svg width="103" height="12" viewBox="0 0 103 12" fill="none" xmlns="http://www.w3.org/2000/svg">
<path fill-rule="evenodd" clipRule="evenodd" d="M0 5.74058V11.4701L1.08983 11.4462L2.17967 11.4222L2.2024 9.14299L2.22514 6.86366L5.36506 6.82853C8.22991 6.79647 8.56234 6.77759 9.15922 6.61321C10.8795 6.13941 11.8029 5.19446 11.9357 3.77161C12.0786 2.24114 11.3105 1.04967 9.81022 0.474411C8.71978 0.0562568 8.22308 0.0172804 3.95332 0.0140323L0 0.0110403V5.74058ZM17.9482 2.71588C17.1266 4.20361 16.1242 6.02103 15.7205 6.75468C14.6525 8.69612 13.6441 10.5111 13.3885 10.9521C13.2659 11.1637 13.1651 11.3656 13.1645 11.4009C13.1639 11.4362 13.6757 11.465 14.3017 11.465H15.4399L15.9216 10.5461C16.1865 10.0407 16.5879 9.28104 16.8134 8.85793L17.2237 8.08863H20.5922H23.9608L24.7806 9.6715C25.2315 10.5421 25.6315 11.3018 25.6696 11.3597C25.7438 11.4726 28.122 11.5187 28.122 11.4073C28.122 11.3756 27.7894 10.7505 27.3829 10.0183C26.9763 9.28608 26.3662 8.18693 26.027 7.57577C25.5328 6.68527 22.8144 1.76195 22.0271 0.33158L21.8507 0.0110403H20.6463H19.442L17.9482 2.71588ZM31.8368 0.117887C31.8144 0.176695 31.8059 2.74417 31.8181 5.82349L31.8403 11.4222L32.8866 11.4463L33.9329 11.4702L33.955 6.95589L33.9772 2.44158L37.8878 6.67544C40.0388 9.0041 41.9169 11.0355 42.0614 11.1896L42.3243 11.4697L43.4931 11.446L44.6618 11.4222V5.73801V0.0537789L43.6147 0.0297593L42.5676 0.00573968V4.55193V9.09812L42.3873 8.93528C42.2881 8.84571 40.3959 6.80118 38.1824 4.39175L34.1578 0.0110403H33.0177C32.1844 0.0110403 31.8667 0.0397606 31.8368 0.117887ZM50.3461 5.73801V11.465H55.9448H61.5436V10.7812V10.0973H57.056H52.5685V8.17411V6.25087H56.7141H60.8598V5.56706V4.88324H56.7141H52.5685V3.13096V1.37868H57.0133H61.4581V0.694858V0.0110403H55.9021H50.3461V5.73801ZM66.2841 0.117887C66.2617 0.176695 66.2532 2.74417 66.2654 5.82349L66.2876 11.4222H67.3988H68.51L68.5327 9.00341L68.5554 6.58466L71.5671 6.61005L74.5788 6.63552L75.0581 6.86024C75.324 6.98495 75.6352 7.21326 75.7571 7.3731C76.0466 7.75271 76.3213 8.76638 76.3797 9.66996C76.4374 10.5624 76.5575 11.1183 76.7354 11.3154C76.8517 11.4441 77.0353 11.465 78.0539 11.465C78.7048 11.465 79.2373 11.4421 79.2373 11.414C79.2373 11.3861 79.159 11.2532 79.0632 11.1186C78.6996 10.608 78.566 10.1385 78.4322 8.90067C78.3222 7.88409 78.2556 7.57739 78.0617 7.1948C77.7872 6.65356 77.2972 6.24233 76.7251 6.07342C76.5084 6.00949 76.3311 5.93632 76.3311 5.91093C76.3311 5.88546 76.58 5.77545 76.8842 5.6663C77.9506 5.28387 78.6236 4.39098 78.7053 3.25063C78.8206 1.63801 77.6447 0.529715 75.401 0.136606C74.4296 -0.0336648 66.3483 -0.0502469 66.2841 0.117887ZM88.0679 0.33158C87.9711 0.507919 87.2864 1.74836 86.5463 3.08822C85.8064 4.42807 84.9035 6.06282 84.5401 6.721C84.1767 7.37917 83.4504 8.6909 82.926 9.63594C82.4016 10.5811 81.9726 11.3792 81.9726 11.4096C81.9726 11.4401 82.4822 11.4647 83.1052 11.4645L84.2378 11.464L85.1353 9.77629L86.0328 8.08863L89.3818 8.06624L92.7309 8.04393L93.6129 9.73304L94.495 11.4222L95.7131 11.4459C96.383 11.459 96.9311 11.4475 96.9311 11.4203C96.9311 11.3931 96.31 10.2477 95.5508 8.87494C92.2127 2.83897 91.1312 0.87983 90.9054 0.459795L90.6641 0.0110403H89.454H88.2439L88.0679 0.33158ZM100.778 5.73801V11.465H101.837C102.724 11.465 102.905 11.443 102.948 11.3298C102.977 11.2554 103 8.73911 103 5.73801C103 2.73691 102.977 0.22063 102.948 0.146265C102.905 0.033008 102.724 0.0110403 101.837 0.0110403H100.778V5.73801ZM7.3848 1.46219C8.27949 1.60869 8.79765 1.80068 9.14461 2.11412C9.58233 2.50954 9.78432 3.03779 9.71653 3.60989C9.6514 4.15968 9.44865 4.50757 8.98878 4.85828C8.32685 5.36319 7.50968 5.47534 4.46618 5.47893L2.22241 5.48158V3.43013V1.37868L4.55166 1.37919C5.83279 1.37945 7.10768 1.4168 7.3848 1.46219ZM74.6313 1.46535C75.7697 1.67964 76.4116 2.25422 76.4836 3.12361C76.5566 4.00359 76.1013 4.60877 75.0836 4.98393C74.6086 5.15908 74.401 5.17215 71.5658 5.20506L68.5527 5.24011V3.30935V1.37868H71.3618C72.9067 1.37868 74.3781 1.41765 74.6313 1.46535ZM23.1597 6.61415C23.1623 6.64945 22.0104 6.67826 20.6 6.67826C19.1896 6.67826 18.0357 6.65484 18.0357 6.6262C18.0357 6.56022 19.0439 4.55535 19.9401 2.83914L20.6281 1.52159L21.8916 4.03582C22.5865 5.41867 23.1571 6.57885 23.1597 6.61415ZM91.9734 6.63125C91.9734 6.65715 90.7969 6.67826 89.359 6.67826H86.7446L87.1673 5.8876C87.3998 5.45277 87.8913 4.50073 88.2595 3.77204C88.6276 3.04334 89.0423 2.24234 89.1807 1.99197L89.4326 1.53681L90.7031 4.06052C91.4018 5.44859 91.9734 6.60543 91.9734 6.63125Z" fill="white"/>
</svg>
