<svg width="55" height="55" viewBox="0 0 55 55" fill="none" xmlns="http://www.w3.org/2000/svg">
<g clip-path="url(#clip0_42_30)">
<path d="M10.6181 39.5843C1.81446 21.6442 6.96783 9.4371 12.2393 5.28219C16.5982 2.35121 21.8589 0.622681 27.5384 0.622681C29.0092 0.622681 30.4479 0.740779 31.8436 0.955503C21.3114 1.23464 10.4249 21.3435 10.6181 39.5843Z" fill="white"/>
<path d="M10.1995 39.5844C14.9985 23.6841 32.5844 1.44941 39.9065 3.33898C44.5446 5.82978 48.3666 9.64112 50.8896 14.2577C47.8406 18.8206 22.3743 34.3451 10.1995 39.5844Z" fill="white"/>
<path d="M11.1121 39.928C22.6105 40.6473 52.8437 31.3175 53.8099 22.3958C54.1642 24.135 54.3575 25.928 54.3575 27.7746C54.3575 32.0691 53.3375 36.1273 51.5338 39.724C47.0354 47.5829 28.4832 50.4924 11.1121 39.928Z" fill="white"/>
<path d="M11.1121 39.9065C24.9403 52.9939 38.543 52.6182 44.4694 48.4418C40.905 51.3298 36.5783 53.316 31.8437 54.0461C22.9326 55.3129 17.0062 52.1243 11.1121 39.9065Z" fill="white"/>
<path d="M10.4463 39.5844C11.6809 46.1227 14.73 50.8788 18.8527 52.5752C15.095 51.362 11.6917 49.3972 8.84657 46.885C7.52602 45.0813 10.0061 40.5613 10.4463 39.5844Z" fill="white"/>
<path d="M10.9831 40.1212C10.4678 40.5936 7.61196 42.6442 6.04448 43.8038C4.13344 41.2915 2.66258 38.4357 1.75 35.3544C3.1135 38.5752 9.1365 39.7025 10.9831 40.1212Z" fill="white"/>
<path d="M10.9833 40.1212C8.47099 38.9617 1.68572 35.1396 0.719459 29.3743C0.697986 28.9019 0.676514 28.4295 0.676514 27.9571C0.676514 22.6856 2.25473 17.7684 4.97099 13.6243C-0.429314 24.6503 7.33296 35.3436 10.9833 40.1212Z" fill="white"/>
</g>
<defs>
<clip-path id="clip0_42_30">
<rect width="55" height="55" fill="white"/>
</clip-path>
</defs>
</svg>
