<svg width="75" height="30" viewBox="0 0 75 30" fill="none" xmlns="http://www.w3.org/2000/svg">
<path fill-rule="evenodd" clipRule="evenodd" d="M39.9763 0.815149C38.8389 2.37394 37.1612 3.51214 34.9005 4.25867C32.483 5.05682 30.6292 5.30571 27.1009 5.30571H24.7448V8.793V12.2804L25.556 12.3672C26.5938 12.4784 30.1843 12.336 31.9799 12.1126C36.5752 11.5406 40.1222 10.3133 43.3194 8.18863C44.7357 7.24747 46.8817 5.12495 47.7581 3.7984C48.4196 2.79731 49.3839 0.908723 49.5284 0.331607L49.6114 0H45.0911H40.571L39.9763 0.815149ZM10.0336 4.17318C8.14233 4.39722 7.46368 4.50961 6.45005 4.76669C5.011 5.13182 3.29979 5.95758 2.48006 6.68242C1.65333 7.41364 1.01737 8.39953 0.653205 9.51434C0.408057 10.2652 0.352709 10.6809 0.34668 11.8173C0.328954 15.1703 1.52828 16.7616 5.14991 18.1904C6.25748 18.6272 7.12906 18.8988 11.8423 20.2748C14.1723 20.955 15.1035 21.3301 15.5408 21.7645C16.4555 22.6731 16.1074 24.2814 14.8569 24.924C14.5585 25.0774 13.871 25.2675 13.3294 25.3462C10.7767 25.7176 9.32671 24.683 9.11376 22.3382L9.03429 21.464H4.51708H0L0.0830824 22.4588C0.367661 25.8637 1.35199 27.5723 3.67191 28.6877C5.76079 29.6921 7.58113 29.966 12.1438 29.9626C15.2227 29.9604 15.8185 29.928 17.1274 29.6922C18.8925 29.3743 20.5373 28.8458 21.5893 28.2584C22.6142 27.6861 23.8936 26.4579 24.3601 25.5981L24.7385 24.9006L24.7416 27.1616L24.7448 29.4225H33.2207H41.6966L44.0383 26.0462C45.3263 24.1892 46.4142 22.6698 46.4559 22.6698C46.4975 22.6698 47.5444 24.1892 48.7821 26.0462L51.0327 29.4225H60.0763H69.1198V20.8611V12.2996H71.7124H74.305V8.80265V5.30571H62.6698H51.0346L49.0891 8.22987C48.0192 9.83822 47.1006 11.2012 47.0479 11.2587C46.9952 11.3163 46.4816 10.7656 45.9067 10.035L44.8613 8.70654L43.7181 9.48166C42.3288 10.4235 40.295 11.4156 38.6723 11.943C38.0091 12.1585 37.4296 12.3676 37.3844 12.4076C37.3393 12.4477 38.0095 13.4029 38.8736 14.5304C39.7378 15.6579 40.4706 16.6435 40.5021 16.7207C40.5335 16.7979 38.9951 19.1836 37.0835 22.0224L33.6078 27.1839L33.5767 20.2241C33.5523 14.7775 33.513 13.2643 33.3958 13.2645C33.3134 13.2646 32.4592 13.3478 31.4976 13.4494C30.5359 13.5509 28.6232 13.6375 27.247 13.6418L24.7448 13.6497V16.3697V19.0897L24.2825 18.3743C23.0549 16.4749 21.2895 15.5909 15.2849 13.8689C11.9417 12.9101 10.731 12.4971 10.2144 12.1396C9.7596 11.8247 9.70052 11.7402 9.54653 11.1842C9.20697 9.95748 10.1236 8.9711 11.8141 8.74416C13.6248 8.50107 14.9811 9.67109 15.1857 11.6528L15.2525 12.2996H19.5943H23.9363L23.8596 11.3048C23.6075 8.03067 22.1641 6.00678 19.3477 4.97808C17.6931 4.37371 16.4714 4.20791 13.3496 4.16389C11.7579 4.14146 10.2657 4.14569 10.0336 4.17318ZM60.3172 20.0371C60.3172 24.2927 60.2963 27.752 60.2708 27.7244C60.2453 27.6966 58.5682 25.2476 56.544 22.2819L52.8634 16.8896L54.5005 14.5947L56.1375 12.2996H58.2273H60.3172V20.0371Z" fill="white"/>
</svg>
