<svg width="76" height="46" viewBox="0 0 76 46" fill="none" xmlns="http://www.w3.org/2000/svg">
<path fill-rule="evenodd" clipRule="evenodd" d="M27.2473 0.0775785C26.7833 0.191803 26.5691 0.307864 26.2208 0.633583C25.8466 0.983602 25.625 1.47723 25.5458 2.13736C25.5063 2.46706 25.4907 8.32325 25.5017 18.7759C25.5185 34.7802 25.5196 34.9073 25.641 35.1135C25.7083 35.2279 25.8412 35.3794 25.9362 35.4502C26.1034 35.5749 26.182 35.5797 28.3847 35.5979C30.8908 35.6187 31.1765 35.5924 31.7492 35.2886C32.3518 34.9688 32.6991 34.4436 32.832 33.6508C32.8793 33.3688 32.8937 28.5023 32.8815 16.9287L32.8642 0.604445L32.738 0.435373C32.6686 0.342389 32.5358 0.209555 32.4428 0.140139C32.2798 0.0183236 32.1923 0.0134877 29.9369 0.00234681C28.0952 -0.00677403 27.5251 0.00914154 27.2473 0.0775785ZM7.64418 10.9441C4.15255 11.1728 1.42915 12.9506 0.452 15.6391C0.0734546 16.6804 -0.0024504 17.1508 5.93573e-05 18.4392C0.00214062 19.5019 0.0164033 19.6551 0.165765 20.2144C0.47569 21.3749 0.993374 22.257 1.83788 23.0636C2.64388 23.8333 3.69088 24.449 4.95121 24.8942C5.91649 25.2352 6.04828 25.2668 12.4752 26.7017C14.7118 27.201 15.2724 27.3658 15.6099 27.6232C16.21 28.0809 16.2753 28.8644 15.7462 29.2575C15.2967 29.5915 15.602 29.5763 8.65421 29.6119C4.04849 29.6356 2.1396 29.6651 1.99899 29.7149C1.12872 30.0233 0.667901 30.5458 0.478689 31.4383C0.372361 31.9401 0.356568 34.5341 0.457632 34.9057C0.532986 35.1828 0.754457 35.4458 0.997475 35.5464C1.11574 35.5954 3.19082 35.6087 8.41247 35.594C14.9743 35.5755 15.7243 35.5633 16.3059 35.4663C19.373 34.9547 21.3467 33.7902 22.4627 31.8337C23.1426 30.6417 23.43 29.195 23.2906 27.6666C23.0488 25.0169 21.8205 23.2595 19.3818 22.0736C18.1439 21.4717 17.7972 21.3806 10.6743 19.7858C8.59716 19.3207 8.29745 19.2406 7.91964 19.0492C7.41561 18.794 7.18508 18.4504 7.18508 17.9546C7.18508 17.5994 7.38445 17.3143 7.76667 17.1231L8.07268 16.9701L14.2859 16.9367C19.188 16.9103 20.5507 16.8862 20.7439 16.8226C21.4277 16.5975 21.9529 16.1588 22.1839 15.62C22.3915 15.1357 22.4363 14.6458 22.416 13.0806C22.3944 11.4022 22.3676 11.2884 21.9354 11.0345C21.7258 10.9114 21.6453 10.9099 15.051 10.903C11.3813 10.8991 8.04819 10.9177 7.64418 10.9441ZM44.6785 10.9409C43.873 11.0356 43.5057 11.2404 42.7395 12.0221C41.4766 13.3105 33.3255 22.1201 33.346 22.1743C33.3591 22.2084 33.6162 22.5941 33.9175 23.0312C34.2188 23.4684 35.4671 25.286 36.6915 27.0704C37.9158 28.8548 39.6169 31.3339 40.4716 32.5796C41.3264 33.8253 42.1378 34.96 42.2748 35.1011C42.4118 35.2422 42.658 35.4154 42.8219 35.4859C43.1128 35.611 43.1904 35.6137 46.1334 35.5966C49.0212 35.5798 49.1556 35.5739 49.3518 35.4566C49.7222 35.2352 49.8724 34.7698 49.7193 34.318C49.6582 34.1378 48.0989 31.8036 43.042 24.3231C42.4075 23.3844 41.8964 22.5934 41.9061 22.5654C41.9307 22.4946 47.4871 16.5103 47.5249 16.5138C47.5417 16.5154 50.068 20.2341 53.1388 24.7778L58.7221 33.0389L56.7594 37.1861C53.5185 44.034 53.5213 44.028 53.4866 44.3456C53.4472 44.707 53.5953 45.0108 53.898 45.1896C54.0953 45.3061 54.2328 45.3129 56.7286 45.3299C59.0107 45.3454 59.3968 45.3346 59.6975 45.2476C60.3156 45.0686 60.3801 44.9663 61.7811 41.9444C66.1878 32.4389 70.6755 22.7623 74.4135 14.7052C75.6522 12.0353 75.7266 11.8178 75.5351 11.4236C75.4005 11.1464 75.2016 11.0118 74.8201 10.9394C74.4063 10.8609 70.2065 10.8638 69.659 10.9429C69.4263 10.9766 69.1413 11.0626 69.0257 11.134C68.6055 11.3937 68.7929 11.0113 65.4907 18.3474C62.3788 25.2608 62.0138 26.0603 61.9694 26.0603C61.9441 26.0603 59.9302 22.9193 57.494 19.0803C55.0579 15.2413 52.9676 11.9702 52.8488 11.8112C52.5914 11.4666 52.1606 11.1637 51.7273 11.0228C51.4517 10.9332 51.0148 10.9184 48.2595 10.9054C46.5256 10.8972 44.9141 10.9131 44.6785 10.9409Z" fill="white"/>
</svg>
