<svg xmlns="http://www.w3.org/2000/svg" width="27" height="27" fill="none" viewBox="0 0 27 27"><path stroke="url(#a)" stroke-linecap="round" stroke-linejoin="round" stroke-width="2.342" d="M2.409 10.027H24.66M11.193 3 8.85 10.027l4.685 13.468 4.684-13.468L15.877 3m-1.622 20.217 10.492-12.59c.178-.214.267-.32.3-.44a.585.585 0 0 0 0-.32c-.034-.12-.122-.226-.3-.44l-5.075-6.09c-.104-.124-.155-.186-.219-.23a.587.587 0 0 0-.184-.087C19.194 3 19.113 3 18.952 3H8.118c-.161 0-.242 0-.317.02a.586.586 0 0 0-.185.087 1.265 1.265 0 0 0-.218.23l-5.075 6.09c-.178.214-.267.32-.3.44a.586.586 0 0 0 0 .32c.033.12.122.226.3.44l10.492 12.59c.247.297.37.445.519.5.13.047.272.047.402 0 .148-.055.272-.203.519-.5Z"/><defs><linearGradient id="a" x1="29.559" x2=".908" y1="6.277" y2="7.479" gradientUnits="userSpaceOnUse"><stop stop-color="#B1BFD8"/><stop offset="1" stop-color="#6782B4"/></linearGradient></defs></svg>