<svg xmlns="http://www.w3.org/2000/svg" width="27" height="27" fill="none" viewBox="0 0 27 27"><path stroke="url(#a)" stroke-linecap="round" stroke-linejoin="round" stroke-width="2.342" d="M10.198 19.982H3.757M7.27 13.54H2m8.198-6.442H4.342M19.567 3l-7.725 10.816c-.341.479-.513.718-.506.918.006.173.09.335.228.441.158.122.452.122 1.04.122h5.792l-1.17 8.784 7.724-10.816c.342-.479.513-.718.506-.917a.586.586 0 0 0-.227-.443c-.158-.121-.452-.121-1.041-.121h-5.792L19.567 3Z"/><defs><linearGradient id="a" x1="30.021" x2=".89" y1="6.329" y2="7.552" gradientUnits="userSpaceOnUse"><stop stop-color="#B1BFD8"/><stop offset="1" stop-color="#6782B4"/></linearGradient></defs></svg>