<svg xmlns="http://www.w3.org/2000/svg" width="27" height="27" fill="none" viewBox="0 0 27 27"><path stroke="url(#a)" stroke-linecap="round" stroke-linejoin="round" stroke-width="2.342" d="M5.342 24.08v-7.026m0 0a2.342 2.342 0 1 0 .002-4.683 2.342 2.342 0 0 0-.002 4.683Zm0-9.37V3m8.199 21.08v-7.026m0-9.37V3m0 4.685a2.342 2.342 0 1 0-.002 4.683 2.342 2.342 0 0 0 .002-4.683Zm8.198 16.396v-4.685m0 0a2.342 2.342 0 1 0 0-4.683 2.342 2.342 0 0 0 0 4.683Zm0-9.369V3"/><defs><linearGradient id="a" x1="28.183" x2="1.993" y1="6.329" y2="7.317" gradientUnits="userSpaceOnUse"><stop stop-color="#B1BFD8"/><stop offset="1" stop-color="#6782B4"/></linearGradient></defs></svg>