<svg xmlns="http://www.w3.org/2000/svg" width="201" height="201" fill="none" viewBox="0 0 201 201"><g fill="#A2B3D1" clip-path="url(#a)"><path fill-opacity=".11" d="M100.831 200.542c55.181 0 99.914-44.733 99.914-99.914 0-55.18-44.733-99.914-99.914-99.914C45.65.714.917 45.447.917 100.628c0 55.181 44.733 99.914 99.914 99.914Z"/><path fill-opacity=".22" d="M100.833 173.514c40.254 0 72.887-32.633 72.887-72.887 0-40.255-32.633-72.887-72.887-72.887-40.255 0-72.887 32.632-72.887 72.887 0 40.254 32.632 72.887 72.887 72.887Z"/><path fill-opacity=".22" d="M100.825 143.701c23.789 0 43.074-19.285 43.074-43.075 0-23.789-19.285-43.074-43.074-43.074-23.79 0-43.075 19.285-43.075 43.074 0 23.79 19.285 43.075 43.075 43.075Z"/></g><defs><clipPath id="a"><path fill="#fff" d="M0 0h201v201H0z"/></clipPath></defs></svg>