
<svg xmlns="http://www.w3.org/2000/svg" viewBox="0 0 633.16 633.16"><defs><style>.cls-1{fill:none;stroke:#3966E0;stroke-linecap:round;stroke-opacity:0.66;stroke-width:4px;stroke-dasharray:0.01 22;}</style></defs><g id="Layer_2" data-name="Layer 2"><g id="Layer_1-2" data-name="Layer 1"><path class="cls-1" d="M196.2,26A314.56,314.56,0,0,1,437,26h0A314.54,314.54,0,0,1,607.22,196.2h0a314.65,314.65,0,0,1,0,240.77h0A314.6,314.6,0,0,1,437,607.22h0a314.65,314.65,0,0,1-240.77,0h0A314.57,314.57,0,0,1,26,437h0A314.56,314.56,0,0,1,26,196.2h0A314.5,314.5,0,0,1,196.2,26Z"/></g></g></svg>